<?xml version="1.0" standalone="no"?><!DOCTYPE svg PUBLIC "-//W3C//DTD SVG 1.1//EN" "http://www.w3.org/Graphics/SVG/1.1/DTD/svg11.dtd"><svg class="icon" width="200px" height="200.00px" viewBox="0 0 1024 1024" version="1.1" xmlns="http://www.w3.org/2000/svg"><path d="M980.944841 119.744243h-93.359918v-93.359918h-60.886904v93.359918h-93.359918v60.886904h93.359918v93.359918h60.886904v-93.359918h93.359918z" fill="#9BBF00" /><path d="M486.61625 139.130633c-131.284341 32.326887-256.528701 76.38465-375.745258 132.165172-18.310721 145.450694-41.768416 302.303475-56.823717 449.613249a150549.310416 150549.310416 0 0 1 384.581977-203.20801c15.972664-142.105973 35.614779-274.811009 47.986998-378.570411z" fill="#79CDF2" /><path d="M28.154104 734.632962a29.672218 29.672218 0 0 1-3.186414-17.003682c16.301454-147.69945 40.77393-305.526422 59.799057-452.483052 1.274566-9.798732 6.6935-17.843922 14.527615-21.464663 117.507664-54.290822 241.668238-96.014587 372.473602-125.159119 9.693195-2.147278 21.704151 0.073064 31.161917 5.57724 9.465884 5.520413 14.767104 13.468183 13.784795 21.030337-13.179985 102.147928-33.301077 233.777295-49.533526 375.383996a29.388079 29.388079 0 0 1-15.217666 22.410439A37832.970417 37832.970417 0 0 1 68.059381 747.082304c-9.57548 5.017081-21.310416 4.335148-30.36227-1.781956a29.367783 29.367783 0 0 1-9.543007-10.667386zM135.530188 292.75235c-15.132425 121.514023-33.297018 250.894633-46.63125 375.838618a25134.95395 25134.95395 0 0 1 322.712765-169.095108c13.460065-119.151611 29.071467-231.61378 40.278716-325.769288-109.267637 32.034629-214.719694 71.708536-316.360231 119.025778z" fill="#79CDF2" /><path d="M771.623786 728.824352c0.893008-10.464429-2.212224-19.564992-8.422689-24.135569-85.757174-63.168133-194.444355-133.143421-308.026844-210.429197-8.771773-5.979094-20.324048-6.689441-29.895469-1.777898a25092.101748 25092.101748 0 0 0-384.80523 202.014627c-9.11274 4.891248-15.083716 14.377427-15.635757 24.870271a29.582917 29.582917 0 0 0 3.324425 15.274494 29.343428 29.343428 0 0 0 9.871797 10.890638c120.78338 79.351872 255.875182 156.402218 383.457599 232.571734 9.555185 5.674659 20.567596 6.352534 28.758914 1.631769 109.259519-62.71351 212.203036-137.364913 308.834611-223.946089 6.92893-6.234819 11.637517-16.512528 12.538643-26.96478z" fill="#67AFCF" /><path d="M749.408184 731.479021c-1.712952-131.33711 3.34878-256.20803 6.815274-364.176747-78.410154-71.128081-171.538702-146.497949-269.607208-228.167582-12.380337 103.759402-32.010275 236.460378-47.986998 378.566352 113.927514 78.016419 223.560473 149.087672 310.778932 213.777977" fill="#80D8FF" /><path d="M413.077048 531.157049a28.580312 28.580312 0 0 1-3.153941-16.492232c15.814358-142.63366 35.042442-276.450896 46.692136-381.862362 0.832121-7.476912 7.164359-12.977029 16.743899-14.592562 9.583599-1.619592 21.0141 0.771234 29.976652 6.117105 99.018341 79.664424 192.394496 152.939783 270.447447 221.863757 7.643336 4.22961 10.992116 12.2748 8.873251 21.225175-4.919662 107.11224-11.43862 231.61378-11.219426 363.117314-1.323275 10.55373-6.433716 20.591951-13.614312 26.299083-7.168418 5.723369-15.461214 6.242937-21.931462 1.424754-88.732514-66.139414-199.39649-138.237625-313.738036-216.887268a28.7305 28.7305 0 0 1-9.076208-10.212764z m98.912804-350.270177c-12.355982 91.975756-28.860392 203.561154-42.860321 322.850775 95.474724 64.710601 186.963385 124.233638 263.567228 178.865427-4.034772-107.303019-4.607109-209.511834-6.46213-301.101974-63.890657-64.29657-136.967119-130.752595-214.244777-200.614228z" fill="#80D8FF" /></svg>