<?xml version="1.0" standalone="no"?><!DOCTYPE svg PUBLIC "-//W3C//DTD SVG 1.1//EN" "http://www.w3.org/Graphics/SVG/1.1/DTD/svg11.dtd"><svg class="icon" width="200px" height="200.00px" viewBox="0 0 1024 1024" version="1.1" xmlns="http://www.w3.org/2000/svg"><path fill="#1296db" d="M4.344 216.32c2.168 3.72 7.24 8.56 15.2 14.528L463.68 504.736c10.856 6.704 20.632 12.112 29.32 16.208 8.688 4.096 15.2 6.144 19.544 6.144 3.616-0.744 10.68-3.72 21.176-8.936a428.24 428.24 0 0 1 26.6-12.304l444.136-275c10.136-8.2 15.928-13.6 17.376-16.208 1.448-2.608 2.168-7.272 2.168-13.976l-1.088-12.296c0-18.64-4.704-33.168-14.112-43.6-9.416-10.432-26.064-15.648-49.952-15.648L64.064 128c-23.16 0-39.448 5.592-48.864 16.768C5.792 155.944 1.088 171.224 1.088 190.608v10.056c0 6.704 1.08 11.92 3.256 15.648zM338.4 895.56l-16.984-0.128c-44.88-0.368-84.336-0.56-118.36-0.56h-74.928c-22.8 0-42-2.712-57.6-8.128a106.744 106.744 0 0 1-6.472-2.488c-14.56-6.2-26.36-13.96-35.392-23.296a80.064 80.064 0 0 1-3.696-4.096 94.136 94.136 0 0 1-19.544-38.568 179.8 179.8 0 0 1-3.312-16.584A191.12 191.12 0 0 1 0 774.176V359.408c0-15.656 3.616-25.52 10.856-29.624 7.24-4.104 16.288-2.048 27.152 6.144 3.616 2.24 10.136 6.52 19.544 12.856 9.408 6.336 20.64 13.6 33.664 21.8a2228.848 2228.848 0 0 1 40.72 26.272 5342.928 5342.928 0 0 0 40.176 26.272 4842.904 4842.904 0 0 1 32.576 21.24c9.056 5.96 15.024 9.68 17.92 11.176 4.672 3.096 8.424 6.544 11.248 10.344a32.16 32.16 0 0 1 6.128 14.808c1.44 10.064 0.36 18.824-3.256 26.272-2.896 7.456-7.24 17.144-13.04 29.064a1160.6 1160.6 0 0 1-18.456 36.336 2510.12 2510.12 0 0 1-19 35.216c-6.16 11.176-10.32 19.744-12.488 25.712-3.624 10.432-2.896 17.512 2.168 21.24 4.752 3.488 12.048 2.4 21.888-3.28a75.76 75.76 0 0 0 2-1.2c2.04-1.392 7.416-6.56 16.136-15.488l0.84-0.864 0.944-0.968a951.52 951.52 0 0 0 30.952-33.536 4023.104 4023.104 0 0 1 30.944-34.656c7.328-8.104 12.928-13.8 16.8-17.088 1.288-1.088 2.384-1.92 3.288-2.48 6.112-5.584 13.968-9.704 23.576-12.344l1.944-0.512c10.496-2.608 19.728-1.68 27.696 2.8 5.064 2.976 11.944 7.448 20.624 13.416 8.688 5.96 18.28 12.48 28.784 19.56 10.496 7.08 21.168 14.344 32.032 21.8l29.32 20.12c8.688 5.96 17.92 9.688 27.688 11.176a126.568 126.568 0 0 0 20.072 1.488v-0.016l0.544 0.008h0.56v0.008c6.512 0.056 13.2-0.44 20.072-1.488 9.776-1.488 19-5.216 27.688-11.176l29.32-20.12c10.856-7.456 21.536-14.72 32.032-21.8 10.496-7.08 20.088-13.6 28.776-19.56 8.688-5.968 15.568-10.44 20.64-13.416 7.96-4.48 17.184-5.408 27.68-2.8 10.504 2.608 19.008 6.896 25.52 12.856 3.624 2.24 10.32 8.76 20.096 19.568a3941.336 3941.336 0 0 1 30.944 34.656 962.24 962.24 0 0 0 30.952 33.536c9.768 10.056 15.744 15.84 17.912 17.328 10.864 6.704 18.824 8.192 23.888 4.472 5.072-3.728 5.792-10.808 2.176-21.24-2.176-5.968-6.336-14.536-12.488-25.712a2494.144 2494.144 0 0 1-19-35.216 1153.968 1153.968 0 0 1-18.464-36.336c-5.792-11.92-10.136-21.608-13.032-29.064-3.616-7.448-4.704-16.208-3.256-26.272 1.448-10.056 7.24-18.44 17.376-25.152 2.896-1.488 8.864-5.216 17.912-11.176 9.056-5.96 19.912-13.04 32.584-21.24a5512.368 5512.368 0 0 0 40.176-26.272 2208.104 2208.104 0 0 1 40.72-26.272 1329.976 1329.976 0 0 0 33.664-21.8 715.92 715.92 0 0 1 19.544-12.856c10.856-8.192 19.912-10.24 27.144-6.144 7.24 4.096 10.864 13.968 10.864 29.624v413.624c0 15.648-1.808 30.744-5.432 45.272a94.464 94.464 0 0 1-19.544 38.568c-9.408 11.184-22.44 20.312-39.096 27.392-16.648 7.08-38 10.616-64.064 10.616h-74.928c-34.024 0-73.48 0.192-118.36 0.56-44.88 0.376-93.024 0.56-144.424 0.56H465.84c-44.976 0-87.456-0.144-127.44-0.432z"  /></svg>