<?xml version="1.0" standalone="no"?><!DOCTYPE svg PUBLIC "-//W3C//DTD SVG 1.1//EN" "http://www.w3.org/Graphics/SVG/1.1/DTD/svg11.dtd"><svg class="icon" width="200px" height="192.84px" viewBox="0 0 1062 1024" version="1.1" xmlns="http://www.w3.org/2000/svg"><path d="M90.24 93.661867a11684.992 11684.992 0 0 1 881.915733 0c22.728533 117.12 22.728533 234.24 0 351.364266-293.969067 11.093333-587.9424 11.093333-881.915733 0-22.728533-117.12-22.728533-234.244267 0-351.364266z" fill="#F7F7F7" /><path d="M997.329067 475.7504a9574.2848 9574.2848 0 0 1-932.258134 0c-34.184533-137.604267-34.184533-275.2128 0-412.817067a9574.2848 9574.2848 0 0 1 932.258134 0c34.184533 137.604267 34.184533 275.2128 0 412.817067zM117.482667 413.755733a14689.386667 14689.386667 0 0 0 827.434666 0 995.733333 995.733333 0 0 0 0-288.827733 14689.386667 14689.386667 0 0 0-827.434666 0 995.733333 995.733333 0 0 0 0 288.827733z" fill="#D4D4D4" /><path d="M175.022933 443.7504h64v257.821867h-64zM815.790933 443.7504h64v257.821867h-64z" fill="#D4D4D4" /><path d="M94.626133 699.127467a1774.5664 1774.5664 0 0 1 232.384 0 1773.077333 1773.077333 0 0 1 0 232.384 1774.5664 1774.5664 0 0 1-232.384 0 1773.077333 1773.077333 0 0 1 0-232.384z" fill="#FFE95F" /><path d="M356.561067 961.066667a1328.96 1328.96 0 0 1-291.490134 0 1328.96 1328.96 0 0 1 0-291.490134 1328.96 1328.96 0 0 1 291.490134 0 1328.96 1328.96 0 0 1 0 291.490134z m-230.570667-60.9152c56.5504 1.8816 113.1008 1.8816 169.655467 0a2544.580267 2544.580267 0 0 0 0-169.659734 2550.216533 2550.216533 0 0 0-169.655467 0 2544.580267 2544.580267 0 0 0 0 169.659734z" fill="#FFE95F" /><path d="M735.389867 699.127467a1774.5664 1774.5664 0 0 1 232.384 0 1774.5664 1774.5664 0 0 1 0 232.384 1774.5664 1774.5664 0 0 1-232.384 0 1774.5664 1774.5664 0 0 1 0-232.384z" fill="#3FD9FF" /><path d="M997.329067 961.066667a1328.96 1328.96 0 0 1-291.490134 0 1328.96 1328.96 0 0 1 0-291.490134 1328.96 1328.96 0 0 1 291.490134 0 1328.96 1328.96 0 0 1 0 291.490134z m-230.574934-60.9152c56.554667 1.8816 113.105067 1.8816 169.659734 0a2550.344533 2550.344533 0 0 0 0-169.659734 2550.344533 2550.344533 0 0 0-169.659734 0 2550.344533 2550.344533 0 0 0 0 169.659734z" fill="#3FD9FF" /></svg>