<?xml version="1.0" standalone="no"?><!DOCTYPE svg PUBLIC "-//W3C//DTD SVG 1.1//EN" "http://www.w3.org/Graphics/SVG/1.1/DTD/svg11.dtd"><svg class="icon" width="200px" height="200.00px" viewBox="0 0 1024 1024" version="1.1" xmlns="http://www.w3.org/2000/svg"><path d="M830.364098 274.098992A5730.79935 5730.79935 0 0 0 574.230894 18.648455c-5.211577-4.870244-11.47213-7.063935-17.416325-6.119024L207.126894 67.917008c-12.358764 1.981398-21.59974 15.13522-20.808845 29.37548 14.872976 259.405008-8.570797 518.43122-69.315642 768.703479-3.350894 13.732423 6.331317 26.836293 21.787056 29.313041l689.609887 109.222504c15.451577 2.476748 29.229789-10.04852 30.574309-27.985171 17.258146-227.611057 10.993431-455.56761-18.452813-680.264845-1.111415-8.487545-4.786992-16.483902-10.156748-22.182504z" fill="#E3E3E3" /><path d="M830.364098 274.098992A5730.79935 5730.79935 0 0 0 574.230894 18.648455c-7.954732-7.430244-18.019902-8.387642-25.6-2.535024s-11.264 17.308098-9.361691 29.092423a3013.224065 3013.224065 0 0 1 31.019708 265.528195c1.153041 16.209171 12.966504 28.900943 26.578211 28.334829l223.082146-9.703024c9.956943-0.424585 18.019902-8.59161 20.284358-20.746407 2.276943-12.142309-1.673366-25.82478-9.869528-34.520455z" fill="#C4C4C4" /></svg>