<?xml version="1.0" standalone="no"?><!DOCTYPE svg PUBLIC "-//W3C//DTD SVG 1.1//EN" "http://www.w3.org/Graphics/SVG/1.1/DTD/svg11.dtd"><svg class="icon" width="200px" height="200.00px" viewBox="0 0 1024 1024" version="1.1" xmlns="http://www.w3.org/2000/svg"><path fill="#1296db" d="M921.6 162.40896h-39.90272s-93.08928-2.63424-186.18624-39.424c-95.744-39.424-159.58272-84.11392-159.58272-84.11392L512 20.48l-23.936 15.77984s-63.8336 44.67968-159.5904 84.10368c-93.08928 39.424-186.176 39.424-186.176 39.424H102.4v415.28576C102.4 782.71488 368.36352 1003.52 512 1003.52s409.6-220.8 409.6-428.4416V162.40896z m-210.65472 207.40864l-32.08448-7.79776-192.44288 192a12.56448 12.56448 0 1 1-17.77152-17.76384l192.45312-191.58272-7.80288-32.07424 74.10176-73.68192 11.28704 46.38464 46.37184 10.8288z m-232.7552 209.78176a34.08384 34.08384 0 0 0 24.2688-9.9584l25.57696-25.5744a86.24128 86.24128 0 0 1 0.8576 10.3936 58.95424 58.95424 0 1 1-58.94144-58.07616c2.59072 0 5.19168 0.4224 7.80288 0.4224l-24.27904 24.2816a34.23744 34.23744 0 0 0 24.71424 58.51136z m110.95296-96.65024a139.63264 139.63264 0 1 1-49.408-48.11264L506.368 468.20608a92.68992 92.68992 0 0 0-36.4032-7.36 93.90848 93.90848 0 1 0 85.8112 55.47264z m-119.19104-101.85728c-96.22784 0-174.6816 78.01344-174.6816 173.80352s78.45376 173.824 174.6816 173.824 174.67136-78.01344 174.67136-173.824a170.4448 170.4448 0 0 0-29.90592-97.08288l40.73472-40.75264a230.9632 230.9632 0 0 1 45.94688 137.83552c0 126.99648-103.59552 230.15936-231.01184 230.15936s-231.45728-103.168-231.45728-230.15936 103.59552-230.58176 231.02208-230.58176a231.05792 231.05792 0 0 1 136.09216 44.20864l-40.74752 40.7424a174.592 174.592 0 0 0-95.34464-28.1728z"  /></svg>