<?xml version="1.0" standalone="no"?><!DOCTYPE svg PUBLIC "-//W3C//DTD SVG 1.1//EN" "http://www.w3.org/Graphics/SVG/1.1/DTD/svg11.dtd"><svg class="icon" width="200px" height="199.80px" viewBox="0 0 1025 1024" version="1.1" xmlns="http://www.w3.org/2000/svg"><path fill="#1296db" d="M515.091381 0c13.65276 0 24.984551 10.171306 26.793541 23.380351l0.238924 3.652114v39.661267c218.171103 15.973729 394.428234 187.247602 412.074426 405.657629l0.750902 10.785681h43.279249a27.032465 27.032465 0 0 1 3.652113 53.826006l-3.652113 0.238923h-41.470259c-12.424012 220.014226-185.472743 398.080347-404.019298 419.139729l-10.580889 0.921562v39.661267a27.032465 27.032465 0 0 1-53.860137 3.652113l-0.238924-3.652113v-37.886409c-225.372934-10.615021-407.091169-187.21347-424.737361-411.118733l-0.71677-10.717416H28.336358a27.032465 27.032465 0 0 1-3.652113-53.826006l3.652113-0.238923H64.447908C78.612646 259.538966 255.245228 81.370449 477.409764 65.533248l10.649152-0.648506V27.032465c0-14.91564 12.082693-27.032465 27.032465-27.032465z m-306.50446 537.236103H123.939809c12.38988 191.309298 164.072042 342.61601 354.118461 358.043629l10.034778 0.682638v-84.715376c-147.825258-9.010822-266.809061-126.219765-279.437863-274.045023z m686.870351 0h-84.715375c-12.355748 141.135406-121.407168 254.623972-259.573098 272.952802l-9.044953 1.023957v84.749508c191.104507-16.212652 340.704624-167.655892 353.333426-358.726267zM513.28239 353.060371a158.883994 158.883994 0 1 0 0 317.767988 158.883994 158.883994 0 0 0 0-317.767988zM513.28239 409.582798a102.395699 102.395699 0 1 1 0 204.791398 102.395699 102.395699 0 0 1 0-204.791398z m28.841456-285.206155v84.749507c139.394679 14.096475 251.142519 124.922753 267.662358 264.863542l0.955693 9.14735h84.715375c-12.628803-191.104507-162.22892-342.513614-353.333426-358.726267z m-54.06493 0C296.715486 135.025796 141.92732 283.192373 124.656579 473.102263l-0.750902 10.034779h84.715376c12.355748-143.01266 126.800008-258.378481 270.39291-273.225858l9.044953-0.785034V124.376643z"  /></svg>