<?xml version="1.0" standalone="no"?><!DOCTYPE svg PUBLIC "-//W3C//DTD SVG 1.1//EN" "http://www.w3.org/Graphics/SVG/1.1/DTD/svg11.dtd"><svg class="icon" width="200px" height="200.00px" viewBox="0 0 1024 1024" version="1.1" xmlns="http://www.w3.org/2000/svg"><path d="M512 512m-384 0a384 384 0 1 0 768 0 384 384 0 1 0-768 0Z" fill="#53A275" /><path d="M512 224c66.752 0 102.4 30.72 102.4 30.72l15.36 102.4-3.712 51.2L768 490.24V736H256V490.24l141.952-81.92-3.712-51.2 15.36-102.4S445.248 224 512 224z m0 256a73.152 73.152 0 1 0 0 146.304A73.152 73.152 0 0 0 512 480z" fill="#FFFFFF" /></svg>