<?xml version="1.0" standalone="no"?><!DOCTYPE svg PUBLIC "-//W3C//DTD SVG 1.1//EN" "http://www.w3.org/Graphics/SVG/1.1/DTD/svg11.dtd"><svg class="icon" width="200px" height="200.00px" viewBox="0 0 1024 1024" version="1.1" xmlns="http://www.w3.org/2000/svg"><path d="M512.000683 512m-512 0a512 512 0 1 0 1024 0 512 512 0 1 0-1024 0Z" fill="#0382EF" /><path d="M779.537749 752.503467l-55.057066-55.5008a127.931733 127.931733 0 0 0 25.156266-75.912534 127.8976 127.8976 0 0 0-72.635733-115.370666v-159.402667A72.977067 72.977067 0 0 0 604.365483 273.066667H277.436416A72.977067 72.977067 0 0 0 204.800683 346.3168v329.728c0 40.448 32.529067 73.250133 72.635733 73.250133h345.088a125.6448 125.6448 0 0 0 75.229867-25.326933l55.0912 55.534933a18.773333 18.773333 0 0 0 31.573333-8.567466 19.1488 19.1488 0 0 0-4.881067-18.432zM331.879083 383.010133h217.975466c9.659733 0.512 17.237333 8.533333 17.237334 18.295467a18.261333 18.261333 0 0 1-17.237334 18.3296H331.879083a18.261333 18.261333 0 0 1-17.237334-18.3296c0-9.762133 7.5776-17.783467 17.237334-18.295467z m72.704 256.443734h-72.704a18.261333 18.261333 0 0 1-18.158934-18.3296c0-10.1376 8.123733-18.363733 18.158934-18.363734h72.704c10.001067 0 18.158933 8.192 18.158933 18.363734a18.261333 18.261333 0 0 1-18.193067 18.3296z m36.283733-109.909334H331.879083a18.261333 18.261333 0 0 1-17.5104-18.3296c0-9.898667 7.748267-17.954133 17.5104-18.3296h108.987733c9.762133 0.341333 17.5104 8.465067 17.5104 18.3296a18.261333 18.261333 0 0 1-17.5104 18.3296z m90.794667 91.579734c0-32.733867 17.3056-62.976 45.397333-79.325867a90.112 90.112 0 0 1 90.794667 0 91.716267 91.716267 0 0 1 45.397333 79.291733c0 32.699733-17.3056 62.941867-45.397333 79.325867a90.112 90.112 0 0 1-90.794667 0 91.716267 91.716267 0 0 1-45.397333-79.291733z" fill="#FFFFFF" /></svg>