<?xml version="1.0" standalone="no"?><!DOCTYPE svg PUBLIC "-//W3C//DTD SVG 1.1//EN" "http://www.w3.org/Graphics/SVG/1.1/DTD/svg11.dtd"><svg class="icon" width="200px" height="200.00px" viewBox="0 0 1024 1024" version="1.1" xmlns="http://www.w3.org/2000/svg"><path d="M945.752211 752.671722c-15.473392 84.316184-106.466839 175.305572-190.783023 190.783023-161.975399 26.583222-323.958917 26.583222-485.938376 0-84.316184-15.473392-175.305572-106.466839-190.778964-190.783023-26.583222-161.975399-26.583222-323.958917 0-485.938376 15.473392-84.316184 106.46278-175.305572 190.778964-190.778964 161.979459-26.583222 323.962976-26.583222 485.938376 0 84.316184 15.473392 175.305572 106.46278 190.783023 190.778964 26.583222 161.979459 26.583222 323.958917 0 485.938376z" fill="#ABAABC" /><path d="M824.534505 525.372794c-0.629165 91.310059-9.551126 167.158905-34.616235 212.811904-24.419707 46.874797-64.982562 63.55375-113.809799 64.739015-48.827237-1.185265-89.394152-17.864217-113.8098-64.739015-25.069168-45.653-33.987069-121.501845-34.620293-212.811904 0.633224-91.301941 9.555185-167.150786 34.620293-212.803787 24.415648-46.874797 64.982562-63.557809 113.8098-64.739015 48.827237 1.185265 89.390092 17.864217 113.809799 64.739015 25.065109 45.653 33.98301 121.501845 34.616235 212.803787z" fill="#FF5E00" /><path d="M463.633474 374.210908c2.293407 81.056705-37.124775 120.474886-118.18148 118.18148-81.056705 2.289348-120.474886-37.124775-118.181479-118.18148-2.289348-81.060764 37.124775-120.474886 118.181479-118.185538 81.060764-2.289348 120.474886 37.124775 118.18148 118.185538zM466.917307 668.659973c2.313702 81.787348-37.461682 121.562732-119.24903 119.24903-81.791407 2.313702-121.562732-37.461682-119.249029-119.24903-2.313702-81.787348 37.457623-121.566791 119.249029-119.24903 81.787348-2.317761 121.562732 37.461682 119.24903 119.24903z" fill="#6C6B86" /><path d="M619.99916 481.465218h116.837908v31.340519h-116.837908v-31.340519z m0 72.836973h116.837908v31.340519h-116.837908v-31.340519zM404.861375 380.70957H359.801008v45.060368h-26.676582V380.70957H288.064058v-26.676582h45.060368V309.195873h26.676582v44.837115h45.060367v26.676582zM296.685644 659.539115h101.636478v26.002767H296.685644v-26.002767z" fill="#FFFFFF" /></svg>