<?xml version="1.0" standalone="no"?><!DOCTYPE svg PUBLIC "-//W3C//DTD SVG 1.1//EN" "http://www.w3.org/Graphics/SVG/1.1/DTD/svg11.dtd"><svg class="icon" width="200px" height="168.14px" viewBox="0 0 1218 1024" version="1.1" xmlns="http://www.w3.org/2000/svg"><path d="M1128.608152 914.407735c20.120872-241.804739 14.860133-483.575507-15.791925-725.307451-6.114882-46.497365-50.831166-87.680607-97.97399-90.772019a6583.727924 6583.727924 0 0 0-823.048493 0c-47.152531 3.086559-91.868815 44.274654-97.983697 90.772019-30.647204 241.731943-35.912796 483.497858-15.787071 725.307451a6836.719014 6836.719014 0 0 0 1050.585176 0z" fill="#00BFBB" /><path d="M1159.745517 943.298123a6278.066351 6278.066351 0 0 1-1112.859906 0C22.037839 692.563716 26.653118 441.824455 60.726597 191.090047c9.075261-63.594768 70.976303-120.385517 135.168-125.03962a5980.815166 5980.815166 0 0 1 814.841934 0c64.186844 4.654104 126.092739 61.449706 135.168 125.03962 34.068626 250.739261 38.683905 501.473668 13.840986 752.208076zM109.791242 884.92527a7481.601213 7481.601213 0 0 0 987.048644 0c16.000607-232.632417 10.298237-465.192038-17.102256-697.688569-3.537896-29.346578-31.147071-54.873782-61.037194-56.630597a7285.536758 7285.536758 0 0 0-830.769744 0c-29.890123 1.756815-57.494445 27.288872-61.037194 56.630597-27.405346 232.496531-33.102863 465.056152-17.102256 697.688569z" fill="#00BFBB" /><path d="M1014.303545 94.028436a6498.905782 6498.905782 0 0 0-821.985668 0c-47.084588 3.120531-91.800872 44.337744-97.973991 90.835109a3525.326256 3525.326256 0 0 0-11.108701 97.542066 12969.357953 12969.357953 0 0 1 1040.146199 0c-3.241858-32.51564-6.949611-65.03128-11.108702-97.542066-6.168265-46.502218-50.879697-87.714578-97.969137-90.835109z" fill="#F0E58B" /><path d="M1160.38127 315.406559a15344.843829 15344.843829 0 0 0-1114.136265 0 3271.738237 3271.738237 0 0 1 15.054256-128.528986c9.162616-63.589915 71.058806-120.429194 135.158294-125.126976a5907.193934 5907.193934 0 0 1 813.716018 0c64.089782 4.697782 125.995678 61.537062 135.158294 125.126976a3280.95909 3280.95909 0 0 1 15.049403 128.528986zM120.113744 249.094066a11188.389005 11188.389005 0 0 1 966.398787 0c-2.232417-22.042692-4.66381-44.080531-7.284474-66.123222-3.571867-29.346578-31.181043-54.888341-61.037194-56.664569a7184.233555 7184.233555 0 0 0-829.765157 0c-29.851299 1.776227-57.455621 27.317991-61.032341 56.664569a3817.141991 3817.141991 0 0 0-7.279621 66.123222z" fill="#F0E58B" /><path d="M372.284664 808.071886c-62.434882-59.95981-125.224038-119.652701-186.945517-178.108057a16928.685498 16928.685498 0 0 0 186.921251-172.881289c16.00546 15.525005 32.117687 31.117953 48.312417 46.754578a21153.777441 21153.777441 0 0 1-136.560834 127.679697c45.274389 43.187564 90.990408 86.860436 136.580246 130.635223-16.19473 15.389118-32.306957 30.700588-48.307563 45.919848zM838.952038 807.960265c-15.9909-15.204701-32.093422-30.506464-48.283299-45.885876 45.604398-43.77964 91.32527-87.447659 136.599659-130.63037a20848.290578 20848.290578 0 0 1-136.585099-127.611754 29279.071848 29279.071848 0 0 0 48.293004-46.740019 16895.538957 16895.538957 0 0 0 186.955223 172.789081c-61.716626 58.43109-124.520341 118.109422-186.979488 178.078938zM528.908133 598.016c21.829156 0.048531 39.513782 16.985782 39.518635 37.863735 0 20.877953-17.684626 37.776379-39.513782 37.68417-21.824303-0.097062-39.562313-17.102256-39.567166-37.931678 0.004853-20.834275 17.738009-37.659905 39.562313-37.616227zM696.315147 597.967469c21.829156-0.058237 39.567166 16.743128 39.567166 37.557991-0.009706 20.810009-17.747716 37.829763-39.576872 37.946237-21.81945 0.116474-39.499223-16.757687-39.499223-37.630787s17.679773-37.810351 39.508929-37.873441z" opacity=".44" /></svg>