<?xml version="1.0" standalone="no"?><!DOCTYPE svg PUBLIC "-//W3C//DTD SVG 1.1//EN" "http://www.w3.org/Graphics/SVG/1.1/DTD/svg11.dtd"><svg class="icon" width="200px" height="200.00px" viewBox="0 0 1024 1024" version="1.1" xmlns="http://www.w3.org/2000/svg"><path d="M865.323077 177.993846c-3.532308-6.921026-9.661538-11.721026-16.693333-13.390769-7.044103-1.661538-14.354872-0.020513-20.233847 4.475897-0.106667 0.036923-10.73641 8.414359-29.403076 17.952821-65.575385 39.667692-218.469744 51.593846-279.528206-98.297436-3.491282-8.295385-9.464615-13.362051-15.930256-13.542564h-0.01641c-6.477949-0.164103-12.668718 4.635897-16.516923 12.738461-1.878974 0.172308-19.532308 47.076923-70.531282 84.414359-49.234872 36.775385-131.82359 63.995897-222.785641 11.757949-12.123077-7.064615-27.195897-3.076923-34.326154 9.595898-0.484103 4.644103-59.922051 97.907692-70.157949 249.542564-13.948718 198.441026 103.934359 427.638974 371.257436 532.082051 7.117949 2.744615 15.146667 4.254359 23.224615 4.484102 7.060513 0.192821 14.153846-0.603077 20.701539-2.4 5.44-0.426667 184.287179-50.026667 308.557948-203.401025 57.312821-68.196923 106.346667-164.147692 118.998975-268.254359 13.858462-104.492308-8.672821-217.148718-66.617436-327.757949z" fill="#FF6161" /><path d="M848.625641 163.097436c-7.044103-1.661538-14.354872-0.020513-20.233846 4.475897-0.106667 0.036923-10.73641 8.414359-29.403077 17.952821-65.575385 39.667692-218.469744 51.593846-279.528205-98.297436-2.436923-5.792821-6.09641-9.956923-10.272821-12.041026v899.561026c29.878974-8.196923 189.76-61.563077 303.753846-202.248205 57.312821-68.196923 106.346667-164.147692 118.998975-268.254359 13.858462-104.49641-8.672821-217.152821-66.617436-327.762051-3.53641-6.916923-9.665641-11.721026-16.697436-13.386667z" fill="#DE5454" /></svg>