<?xml version="1.0" standalone="no"?><!DOCTYPE svg PUBLIC "-//W3C//DTD SVG 1.1//EN" "http://www.w3.org/Graphics/SVG/1.1/DTD/svg11.dtd"><svg t="1727507949372" class="icon" viewBox="0 0 1024 1024" version="1.1" xmlns="http://www.w3.org/2000/svg" p-id="7898" xmlns:xlink="http://www.w3.org/1999/xlink" width="256" height="256"><path d="M96.064 832V192a64 64 0 0 1 64-64h698.88a64 64 0 0 1 64 64v640a64 64 0 0 1-64 64H160.128a64 64 0 0 1-64-64z" fill="#ED5F38" fill-opacity=".302" p-id="7899"></path><path d="M96 192v192h64V320h704v64h64V192q0-39.744-28.16-67.84-28.096-28.16-67.84-28.16H192q-39.744 0-67.84 28.16Q96 152.192 96 192z m768 64h-704V192q0-13.248 9.344-22.656Q178.752 160 192 160h640q13.248 0 22.656 9.344 9.344 9.408 9.344 22.656v64zM176.896 448h68.288v176.832q0 46.272-20.48 70.528l-0.192 0.192-0.192 0.192q-23.552 25.984-71.552 25.984-42.88 0-65.664-24.768Q64 672.64 64 631.552v-22.144h68.224v21.76q0 26.88 21.184 26.88 12.672 0 17.472-6.08 6.016-7.808 6.016-28.416V448zM337.28 448l-3.584 9.28-99.2 259.648h73.216l21.76-60.096h80.256l21.888 60.096h73.216L401.92 448H337.28z m130.496 0h73.6l55.936 166.272L653.376 448h73.6l-95.808 268.928H563.392l-88.768-249.6L467.776 448z m324.672 0h64.64L960 716.928h-73.152l-21.888-60.096H784.64l-21.76 60.096h-73.216l99.2-259.648 3.584-9.28zM369.728 545.792l17.792 49.792h-35.84l18.048-49.792z m472.96 49.792l-17.792-49.792-17.92 49.792h35.712z m-651.264 27.968c0 17.088-3.072 29.568-9.088 37.312 6.016-7.808 9.088-20.224 9.088-37.312z m-38.016 49.024c13.12 0 22.912-4.032 28.928-11.712-6.016 7.68-15.744 11.712-28.928 11.712z m0 0c-11.072 0-19.52-3.008-25.472-8.96 5.888 5.952 14.4 8.96 25.472 8.96zM78.72 638.336q-0.192-3.328-0.192-6.784c0 22.72 5.952 40.704 17.856 54.016-10.688-11.968-16.576-27.712-17.664-47.232zM928 832v-64h-64v64q0 13.248-9.344 22.656-9.408 9.344-22.656 9.344H192q-13.248 0-22.656-9.344Q160 845.248 160 832v-64h-64v64q0 39.744 28.16 67.84 28.096 28.16 67.84 28.16h640q39.744 0 67.84-28.16 28.16-28.096 28.16-67.84z" fill="#ED5F38" p-id="7900"></path></svg>