<?xml version="1.0" standalone="no"?><!DOCTYPE svg PUBLIC "-//W3C//DTD SVG 1.1//EN" "http://www.w3.org/Graphics/SVG/1.1/DTD/svg11.dtd"><svg class="icon" width="200px" height="200.00px" viewBox="0 0 1024 1024" version="1.1" xmlns="http://www.w3.org/2000/svg"><path d="M958.988693 704h-212.458666c-58.602667 0-102.784 44.16-102.784 102.784V1024H128.396693C89.762027 1024 63.99136 998.4 63.99136 960V64c0-38.4 25.770667-64 64.405333-64h772.672c38.656 0 64.405333 25.6 57.941334 64v640zM543.99136 640h-192c-19.2 0-32 12.8-32 32s12.8 32 32 32h192c19.2 0 32-12.8 32-32s-12.8-32-32-32z m-64 128h-128c-19.2 0-32 12.8-32 32s12.8 32 32 32h128c19.2 0 32-12.8 32-32s-12.8-32-32-32z m227.754667 170.666667v-131.882667c0-23.296 15.552-38.784 38.784-38.784h131.882666l-170.666666 170.666667zM601.59136 345.6C627.19136 320 639.99136 288 639.99136 256c0-70.4-57.6-128-128-128s-128 57.6-128 128c0 32 12.8 64 38.4 89.6-64 32-102.4 96-102.4 166.4 0 19.2 12.8 32 32 32S383.99136 531.2 383.99136 512c0-70.4 57.6-128 128-128s128 57.6 128 128c0 19.2 12.8 32 32 32S703.99136 531.2 703.99136 512c0-70.4-38.4-134.4-102.4-166.4zM511.99136 320c-38.4 0-64-25.6-64-64s25.6-64 64-64 64 25.6 64 64-25.6 64-64 64z" fill="#00C9C8" /></svg>