<?xml version="1.0" standalone="no"?><!DOCTYPE svg PUBLIC "-//W3C//DTD SVG 1.1//EN" "http://www.w3.org/Graphics/SVG/1.1/DTD/svg11.dtd"><svg class="icon" width="200px" height="200.00px" viewBox="0 0 1024 1024" version="1.1" xmlns="http://www.w3.org/2000/svg"><path d="M512 512m-481.792 0a481.792 481.792 0 1 0 963.584 0 481.792 481.792 0 1 0-963.584 0Z" fill="#30ba78" /><path d="M512 512m-423.424 0a423.424 423.424 0 1 0 846.848 0 423.424 423.424 0 1 0-846.848 0Z" fill="#E1FCE7" /><path d="M760.832 588.8h-38.4c-10.752 0-18.944-8.704-18.944-18.944v-76.8c0-10.752 8.704-18.944 18.944-18.944h38.4c10.752 0 18.944 8.704 18.944 18.944v76.8c0.512 10.24-8.192 18.944-18.944 18.944zM760.832 416.256h-38.4c-10.752 0-18.944-8.704-18.944-18.944v-76.8c0-10.752 8.704-18.944 18.944-18.944h38.4c10.752 0 18.944 8.704 18.944 18.944v76.8c0.512 10.24-8.192 18.944-18.944 18.944zM607.744 588.8h-38.4c-10.752 0-18.944-8.704-18.944-18.944v-76.8c0-10.752 8.704-18.944 18.944-18.944h38.4c10.752 0 18.944 8.704 18.944 18.944v76.8c0 10.24-8.192 18.944-18.944 18.944zM607.744 416.256h-38.4c-10.752 0-18.944-8.704-18.944-18.944v-76.8c0-10.752 8.704-18.944 18.944-18.944h38.4c10.752 0 18.944 8.704 18.944 18.944v76.8c0 10.24-8.192 18.944-18.944 18.944zM741.888 684.544v18.944c0 10.752-8.704 18.944-18.944 18.944H301.568c-10.752 0-18.944-8.704-18.944-18.944v-18.944c0-10.752 8.704-18.944 18.944-18.944h421.376c10.24-0.512 18.944 8.192 18.944 18.944zM454.656 588.8h-38.4c-10.752 0-18.944-8.704-18.944-18.944v-76.8c0-10.752 8.704-18.944 18.944-18.944h38.4c10.752 0 18.944 8.704 18.944 18.944v76.8c0 10.24-8.704 18.944-18.944 18.944zM454.656 416.256h-38.4c-10.752 0-18.944-8.704-18.944-18.944v-76.8c0-10.752 8.704-18.944 18.944-18.944h38.4c10.752 0 18.944 8.704 18.944 18.944v76.8c0 10.24-8.704 18.944-18.944 18.944zM301.568 588.8h-38.4c-10.752 0-18.944-8.704-18.944-18.944v-76.8c0-10.752 8.704-18.944 18.944-18.944h38.4c10.752 0 18.944 8.704 18.944 18.944v76.8c0 10.24-8.704 18.944-18.944 18.944zM301.568 416.256h-38.4c-10.752 0-18.944-8.704-18.944-18.944v-76.8c0-10.752 8.704-18.944 18.944-18.944h38.4c10.752 0 18.944 8.704 18.944 18.944v76.8c0 10.24-8.704 18.944-18.944 18.944z" fill="#30ba78" /></svg>