<?xml version="1.0" standalone="no"?><!DOCTYPE svg PUBLIC "-//W3C//DTD SVG 1.1//EN" "http://www.w3.org/Graphics/SVG/1.1/DTD/svg11.dtd"><svg class="icon" width="200px" height="200.00px" viewBox="0 0 1024 1024" version="1.1" xmlns="http://www.w3.org/2000/svg"><path d="M512 17.066667c273.339733 0 494.933333 221.5936 494.933333 494.933333S785.339733 1006.933333 512 1006.933333 17.066667 785.339733 17.066667 512 238.660267 17.066667 512 17.066667z m155.716267 676.4032H356.283733c-14.2336 0-25.770667 10.564267-25.770666 23.586133v35.328c0 13.021867 11.537067 23.586133 25.770666 23.586133h311.432534c14.2336 0 25.770667-10.564267 25.770666-23.586133v-35.328c0-13.021867-11.537067-23.586133-25.770666-23.586133zM468.548267 512H390.485333c-14.882133 0-26.948267 10.769067-26.948266 24.064v67.345067c0 13.312 12.066133 24.064 26.948266 24.064h78.08c14.882133 0 26.965333-10.752 26.965334-24.064V536.064c0-13.294933-12.0832-24.064-26.965334-24.064z m164.983466 0h-78.08c-14.882133 0-26.965333 10.769067-26.965333 24.064v67.345067c0 13.312 12.0832 24.064 26.965333 24.064h78.08c14.882133 0 26.948267-10.752 26.948267-24.064V536.064c0-13.294933-12.066133-24.064-26.948267-24.064z m-346.453333-16.503467h-78.08c-14.882133 0-26.965333 10.786133-26.965333 24.064v67.362134c0 13.294933 12.0832 24.064 26.965333 24.064h78.08c14.882133 0 26.948267-10.769067 26.948267-24.064v-67.345067c0-13.312-12.066133-24.064-26.948267-24.064z m527.9232 0H736.938667c-14.882133 0-26.948267 10.786133-26.948267 24.064v67.362134c0 13.294933 12.066133 24.064 26.948267 24.064h78.08c14.882133 0 26.965333-10.769067 26.965333-24.064v-67.345067c0-13.312-12.0832-24.064-26.965333-24.064z m-346.453333-164.9664H390.485333c-14.882133 0-26.948267 10.769067-26.948266 24.064v67.345067c0 13.294933 12.066133 24.064 26.948266 24.064h78.08c14.882133 0 26.965333-10.769067 26.965334-24.064v-67.345067c0-13.294933-12.0832-24.064-26.965334-24.064z m164.983466 0h-78.08c-14.882133 0-26.965333 10.769067-26.965333 24.064v67.345067c0 13.294933 12.0832 24.064 26.965333 24.064h78.08c14.882133 0 26.948267-10.769067 26.948267-24.064v-67.345067c0-13.294933-12.066133-24.064-26.948267-24.064z m-346.453333 0h-78.08c-14.882133 0-26.965333 10.769067-26.965333 24.064v67.345067c0 13.294933 12.0832 24.064 26.965333 24.064h78.08c14.882133 0 26.948267-10.769067 26.948267-24.064v-67.345067c0-13.294933-12.066133-24.064-26.948267-24.064z m527.9232 0H736.938667c-14.882133 0-26.948267 10.769067-26.948267 24.064v67.345067c0 13.294933 12.066133 24.064 26.948267 24.064h78.08c14.882133 0 26.965333-10.769067 26.965333-24.064v-67.345067c0-13.294933-12.0832-24.064-26.965333-24.064z" fill="#5FBE39" /></svg>