<?xml version="1.0" standalone="no"?><!DOCTYPE svg PUBLIC "-//W3C//DTD SVG 1.1//EN" "http://www.w3.org/Graphics/SVG/1.1/DTD/svg11.dtd"><svg class="icon" width="200px" height="200.00px" viewBox="0 0 1024 1024" version="1.1" xmlns="http://www.w3.org/2000/svg"><path d="M513.4 494.2c-11.8 0-21.5 9.6-21.5 21.4 0 11.8 9.6 21.4 21.5 21.4 11.8 0 21.5-9.6 21.5-21.4 0-11.9-9.6-21.4-21.5-21.4z" fill="#2F8ECE" /><path d="M782.6 498.5h-53.4c-7.8-105.6-92.8-190.1-198.6-197.1v-54.9c-0.3-9.5-8.1-16.9-17.6-16.7-9.1 0.2-16.4 7.6-16.7 16.7v55.3c-103.3 9.6-185.4 92.9-193.1 196.7h-58.9c-9.5-0.2-17.3 7.3-17.5 16.8-0.2 9.5 7.3 17.3 16.8 17.5H303.4c8.8 102.7 90.4 184.9 192.9 194.4v57.6c0 9.5 7.7 17.1 17.1 17.1 9.5 0 17.1-7.7 17.1-17.1v-57.2c105-7 189.5-90.3 198.4-194.8h53.6c9.5 0 17.1-7.7 17.1-17.1 0.1-9.6-7.6-17.2-17-17.2z m-142.9 34.2h54.9c-8.7 85.6-77.9 153.6-164.1 160.4v-51.3c-0.2-9.5-8-17-17.5-16.8-9.2 0.2-16.6 7.6-16.8 16.8v50.8c-83.6-9.3-150.1-76.1-158.6-159.9h49.5c9.5 0.2 17.3-7.3 17.5-16.8 0.2-9.5-7.3-17.3-16.8-17.5H337.5c7.5-84.9 74.4-153 158.8-162.3v53.2c0 9.5 7.7 17.1 17.1 17.1 9.5 0 17.1-7.7 17.1-17.1v-53.7c86.9 6.9 156.6 76.1 164.2 162.8h-55.1c-9.5 0-17.1 7.7-17.1 17.1 0.1 9.5 7.7 17.2 17.2 17.2z" fill="#2F8ECE" /><path d="M939.6 427.8L798.3 163c-29.2-58.3-53.9-94.3-125.7-94.3H371.9c-78.5 0-107.7 13.5-145.9 92l-22.4 47.1-98.7 184c-53.9 98.7-53.9 134.6 0 240.1 0 0 20.2 38.1 47.1 87.5 31.4 60.6 71.8 136.9 76.3 143.6 40.4 80.8 58.3 92 136.9 92h320.9c62.8-4.5 87.5-40.4 110-92l141.4-264.8c29.1-58.1 29.1-107.5 2.1-170.4z m-35.9 152.6L760.1 845.2c-22.4 44.9-35.9 65.1-76.3 67.3H362.9c-62.8-2.2-67.3-2.2-101-69.6-4.5-6.7-42.6-78.5-76.3-143.6-22.4-42.6-42.6-80.8-44.9-85.3-47.1-94.3-47.1-114.4-2.2-202l101-184 24.7-47.1c33.7-65.1 47.1-67.3 110-67.3h300.7c47.1 0 62.8 18 87.5 69.6L906 448c17.9 42.7 24.7 78.6-2.3 132.4z" fill="#E4A547" /></svg>