<?xml version="1.0" standalone="no"?><!DOCTYPE svg PUBLIC "-//W3C//DTD SVG 1.1//EN" "http://www.w3.org/Graphics/SVG/1.1/DTD/svg11.dtd"><svg class="icon" width="200px" height="200.00px" viewBox="0 0 1024 1024" version="1.1" xmlns="http://www.w3.org/2000/svg"><path d="M512 0A512 512 0 1 1 0 512 512 512 0 0 1 512 0z" fill="#F5820C" /><path d="M520.587636 296.238545a33.582545 33.582545 0 0 0-12.986181 16.081455 39.563636 39.563636 0 0 0 1.024 25.925818 43.589818 43.589818 0 0 0 15.266909 21.853091 27.368727 27.368727 0 0 0 12.520727 4.817455 22.784 22.784 0 0 0 13.125818-2.327273 25.809455 25.809455 0 0 0 10.938182-11.892364 43.031273 43.031273 0 0 0 3.584-16.011636 54.132364 54.132364 0 0 0-2.606546-20.689455 34.373818 34.373818 0 0 0-13.40509-17.803636 26.810182 26.810182 0 0 0-10.589091-3.979636 22.225455 22.225455 0 0 0-11.194182 1.233454 30.533818 30.533818 0 0 0-5.701818 3.095273" fill="#FFFFFF" /><path d="M716.474182 576.837818a290.048 290.048 0 0 0-16.290909-56.785454 162.746182 162.746182 0 0 0-20.270546-38.353455c-8.517818-11.333818-19.316364-20.945455-27.624727-32.372364-4.398545-5.981091-8.122182-12.637091-12.706909-18.501818-1.861818-3.84-3.653818-7.703273-5.422546-11.636363-5.492364-12.032-10.519273-24.343273-17.058909-35.746909-1.024-1.792-2.141091-3.584-3.165091-5.28291-0.814545-11.008-2.001455-21.992727-2.606545-33.000727a312.250182 312.250182 0 0 0-5.562182-65.931636 109.614545 109.614545 0 0 0-13.056-29.416727 100.817455 100.817455 0 0 0-25.6-27.55491 98.466909 98.466909 0 0 0-56.645818-18.152727 88.901818 88.901818 0 0 0-42.961455 9.890909 77.847273 77.847273 0 0 0-32.302545 33.605818 112.919273 112.919273 0 0 0-10.309818 45.707637c-0.558545 15.546182 0.884364 30.929455 1.512727 46.545454 0.628364 16.081455 0.279273 32.232727 1.582546 48.314182 0.418909 5.166545 1.024 10.309818 1.024 15.546182 0 2.606545-0.139636 5.213091-0.209455 7.773091l-0.209455 0.558545a330.170182 330.170182 0 0 1-23.272727 34.304c-5.911273 7.493818-11.822545 14.917818-17.803636 22.272a132.654545 132.654545 0 0 0-19.595637 28.881455 207.290182 207.290182 0 0 0-8.517818 27.927273l-0.209454 0.744727a217.204364 217.204364 0 0 1-12.381091 31.767273c-0.488727 0.954182-0.954182 2.001455-1.373091 2.885818-2.955636 6.120727-6.050909 12.241455-9.309091 18.222545l-3.723636 6.981818a117.341091 117.341091 0 0 0-6.190546 12.916364 39.354182 39.354182 0 0 0-1.233454 26.042182c0.349091 1.442909 0.814545 2.885818 1.303272 4.328727a90.763636 90.763636 0 0 0 5.422546 12.450909c0.954182 1.861818 2.001455 3.653818 2.955636 5.492364l0.884364 1.303273c0.954182 1.722182 2.001455 3.444364 3.025454 5.096727l0.139637 0.209454c1.163636 1.931636 2.466909 3.770182 3.723636 5.632l0.209455 0.279273c1.303273 1.792 2.606545 3.653818 3.979636 5.422546a143.150545 143.150545 0 0 0 27.298909 54.295272c-2.001455 3.514182-3.770182 6.981818-5.771636 10.379637a159.045818 159.045818 0 0 0-17.245091 32.581818 39.237818 39.237818 0 0 0-1.303273 18.292364 25.809455 25.809455 0 0 0 8.936727 15.802181 27.042909 27.042909 0 0 0 10.868364 5.026909 46.941091 46.941091 0 0 0 12.032 1.024 196.584727 196.584727 0 0 0 44.962909-8.866909c8.797091-2.327273 17.594182-4.398545 26.530909-6.190545a156.16 156.16 0 0 1 28.183273-3.84c2.327273 0 4.654545 0 6.981818-0.209455a131.188364 131.188364 0 0 0 19.456 0.698182l2.327273-0.139636c1.652364 0.209455 3.374545 0.279273 5.096727 0.418909q17.105455 0.930909 34.024727 3.514182c9.890909 1.512727 19.805091 3.444364 29.556364 5.841454a224.581818 224.581818 0 0 0 46.266182 8.866909 50.129455 50.129455 0 0 0 12.381091-0.954181 28.16 28.16 0 0 0 11.194182-5.096728 25.879273 25.879273 0 0 0 9.006545-15.732363 39.237818 39.237818 0 0 0-1.303273-18.292364 154.670545 154.670545 0 0 0-17.524363-32.581818c-2.466909-4.189091-4.817455-8.517818-7.284364-12.706909a225.489455 225.489455 0 0 0 27.927273-38.842182 38.097455 38.097455 0 0 0 14.149818-1.792 59.508364 59.508364 0 0 0 29.765818-22.341818 33.256727 33.256727 0 0 0 4.957091-10.170182 65.582545 65.582545 0 0 0 9.495273-24.273455 122.693818 122.693818 0 0 0-1.024-43.101091z m0 0" fill="#020204" /><path d="M452.119273 382.091636a23.877818 23.877818 0 0 0-4.398546 9.309091 52.270545 52.270545 0 0 0-1.303272 10.309818 90.763636 90.763636 0 0 1-1.722182 20.689455 64.116364 64.116364 0 0 1-10.728728 19.456 117.550545 117.550545 0 0 0-18.618181 33.536 59.834182 59.834182 0 0 0-2.141091 23.272727 247.202909 247.202909 0 0 0-21.504 38.981818 214.737455 214.737455 0 0 0-17.524364 64.884364 165.562182 165.562182 0 0 0 11.636364 80.965818 133.864727 133.864727 0 0 0 34.583272 48.197818 118.458182 118.458182 0 0 0 25.227637 16.779637 113.338182 113.338182 0 0 0 101.469091-0.954182 196.491636 196.491636 0 0 0 43.031272-34.024727 150.388364 150.388364 0 0 0 21.853091-24.808728 138.379636 138.379636 0 0 0 18.222546-60.50909 197.306182 197.306182 0 0 0-11.636364-109.381819 119.482182 119.482182 0 0 0-21.853091-31.348363 173.568 173.568 0 0 0-13.963636-46.754909c-4.957091-10.658909-10.938182-20.829091-15.522909-31.767273-1.861818-4.468364-3.514182-9.006545-5.562182-13.335273a41.425455 41.425455 0 0 0-8.122182-11.892363 32.861091 32.861091 0 0 0-12.706909-7.354182 52.642909 52.642909 0 0 0-14.568727-2.466909c-9.890909-0.488727-19.874909 0.744727-29.626182 0.418909a225.326545 225.326545 0 0 0-23.575273-1.233455 36.375273 36.375273 0 0 0-11.473454 2.327273 22.993455 22.993455 0 0 0-9.495273 6.981818m3.165091-86.109091a16.151273 16.151273 0 0 0-9.890909 4.398546 21.853091 21.853091 0 0 0-5.771637 9.309091 56.506182 56.506182 0 0 0-1.303272 21.992727 63.976727 63.976727 0 0 0 3.514182 19.665454 25.6 25.6 0 0 0 5.352727 8.378182 18.292364 18.292364 0 0 0 8.517818 5.026909 17.012364 17.012364 0 0 0 9.309091-0.349091 19.968 19.968 0 0 0 7.912727-4.817454 26.647273 26.647273 0 0 0 6.725818-11.752727 47.592727 47.592727 0 0 0 1.582546-13.614546 56.692364 56.692364 0 0 0-2.606546-16.919273 37.562182 37.562182 0 0 0-8.657454-14.708363 24.436364 24.436364 0 0 0-6.609455-4.957091 17.245091 17.245091 0 0 0-8.052363-1.652364m65.303272 0a33.582545 33.582545 0 0 0-12.986181 16.081455 39.563636 39.563636 0 0 0 1.024 25.925818 43.589818 43.589818 0 0 0 15.266909 21.853091 27.368727 27.368727 0 0 0 12.520727 4.817454 22.784 22.784 0 0 0 13.125818-2.327272 25.809455 25.809455 0 0 0 10.938182-11.892364 43.077818 43.077818 0 0 0 3.584-16.011636 54.132364 54.132364 0 0 0-2.606546-20.689455 34.350545 34.350545 0 0 0-13.40509-17.803636 26.810182 26.810182 0 0 0-10.589091-3.979637 22.248727 22.248727 0 0 0-11.217455 1.233455 30.533818 30.533818 0 0 0-5.701818 3.095273" fill="#FFFFFF" /><path d="M533.853091 313.646545a12.869818 12.869818 0 0 0-6.120727 2.001455 16.290909 16.290909 0 0 0-4.654546 4.538182 23.505455 23.505455 0 0 0-3.700363 12.311273 25.6 25.6 0 0 0 1.303272 9.611636 17.664 17.664 0 0 0 5.422546 7.912727 15.918545 15.918545 0 0 0 9.146182 3.584 15.243636 15.243636 0 0 0 9.30909-2.676363 16.802909 16.802909 0 0 0 5.213091-5.981091 22.504727 22.504727 0 0 0 2.327273-7.563637 23.458909 23.458909 0 0 0-2.187636-13.684363 19.083636 19.083636 0 0 0-10.170182-9.309091 14.778182 14.778182 0 0 0-5.981091-0.954182" fill="#020204" /><path d="M455.261091 296.238545a16.151273 16.151273 0 0 0-9.890909 4.398546 21.853091 21.853091 0 0 0-5.771637 9.309091 56.482909 56.482909 0 0 0-1.303272 21.992727 63.883636 63.883636 0 0 0 3.514182 19.665455 25.041455 25.041455 0 0 0 5.352727 8.378181 18.292364 18.292364 0 0 0 8.517818 5.02691 17.012364 17.012364 0 0 0 9.309091-0.349091 19.944727 19.944727 0 0 0 7.912727-4.817455 26.600727 26.600727 0 0 0 6.725818-11.752727 47.662545 47.662545 0 0 0 1.582546-13.614546 56.715636 56.715636 0 0 0-2.606546-16.919272 37.585455 37.585455 0 0 0-8.657454-14.708364 24.436364 24.436364 0 0 0-6.609455-4.957091 17.245091 17.245091 0 0 0-8.052363-1.652364" fill="#FFFFFF" /><path d="M446.417455 326.842182a27.927273 27.927273 0 0 0 0.744727 13.963636 22.621091 22.621091 0 0 0 4.957091 7.912727 15.872 15.872 0 0 0 4.817454 3.723637 8.238545 8.238545 0 0 0 10.589091-2.327273 15.732364 15.732364 0 0 0 2.536727-5.026909 27.927273 27.927273 0 0 0-0.279272-16.430545 21.201455 21.201455 0 0 0-6.260364-10.170182 12.962909 12.962909 0 0 0-5.096727-2.676364 8.797091 8.797091 0 0 0-5.771637 0.488727 10.030545 10.030545 0 0 0-4.468363 4.468364 19.037091 19.037091 0 0 0-1.861818 6.120727" fill="#020204" /><path d="M437.666909 384.651636a4.654545 4.654545 0 0 0 0.698182 1.722182 7.586909 7.586909 0 0 0 2.327273 2.327273c0.884364 0.628364 1.792 1.163636 2.676363 1.722182a49.268364 49.268364 0 0 1 12.311273 11.892363 76.8 76.8 0 0 0 15.127273 17.175273 31.441455 31.441455 0 0 0 15.127272 5.422546 50.129455 50.129455 0 0 0 18.827637-2.21091 67.490909 67.490909 0 0 0 16.151273-6.981818 170.496 170.496 0 0 1 27.927272-18.362182c2.327273-0.814545 4.654545-1.442909 6.981818-2.466909a10.752 10.752 0 0 0 5.352728-4.817454 23.272727 23.272727 0 0 0 1.303272-6.981818c0.349091-2.466909 1.163636-4.887273 1.582546-7.354182a13.056 13.056 0 0 0-0.558546-7.424 10.146909 10.146909 0 0 0-4.328727-4.328727 15.080727 15.080727 0 0 0-5.981091-1.512728 91.950545 91.950545 0 0 0-12.381091 1.233455c-5.492364 0.488727-11.008-0.209455-16.500363 0-6.795636 0.209455-13.614545 1.722182-20.48 2.001454-7.842909 0.418909-15.616-0.814545-23.435637-1.163636a45.893818 45.893818 0 0 0-10.170181 0.488727 22.248727 22.248727 0 0 0-9.309091 3.653818 83.642182 83.642182 0 0 0-7.354182 6.609455 20.456727 20.456727 0 0 1-4.049455 2.816 9.704727 9.704727 0 0 1-4.817454 1.093818 7.912727 7.912727 0 0 0-2.536728 0 4.212364 4.212364 0 0 0-1.303272 0.814546l-1.024 1.233454a21.364364 21.364364 0 0 0-1.792 3.234909" fill="#D99A03" /><path d="M454.935273 367.336727a172.497455 172.497455 0 0 0-8.122182 5.282909 10.682182 10.682182 0 0 0-3.514182 3.514182 7.470545 7.470545 0 0 0-0.628364 3.444364 29.486545 29.486545 0 0 1 0 3.514182c0 0.744727-0.349091 1.582545-0.34909 2.327272a3.211636 3.211636 0 0 0 0.139636 1.163637 2.466909 2.466909 0 0 0 0.558545 1.024 2.978909 2.978909 0 0 0 1.373091 0.768c0.488727 0.139636 1.024 0.209455 1.582546 0.349091a15.383273 15.383273 0 0 1 6.4 3.723636c1.861818 1.652364 3.514182 3.584 5.492363 5.166545a31.045818 31.045818 0 0 0 18.967273 6.190546 85.666909 85.666909 0 0 0 20.084364-2.816 127.464727 127.464727 0 0 0 15.197091-4.189091 66.653091 66.653091 0 0 0 20.945454-12.520727 69.259636 69.259636 0 0 1 8.517818-6.981818c2.746182-1.722182 5.981091-2.885818 8.727273-4.538182 0.279273-0.139636 0.488727-0.349091 0.744727-0.488728a2.676364 2.676364 0 0 0 0.558546-0.698181 1.908364 1.908364 0 0 0 0-1.512728 3.514182 3.514182 0 0 0-0.628364-1.233454 9.309091 9.309091 0 0 0-1.163636-1.163637 19.386182 19.386182 0 0 0-10.868364-3.770181 92.276364 92.276364 0 0 1-11.636363-0.768 79.616 79.616 0 0 1-10.519273-3.025455 76.055273 76.055273 0 0 0-11.194182-2.676364 72.145455 72.145455 0 0 0-26.88 0.698182 85.131636 85.131636 0 0 0-23.784727 9.309091" fill="#604405" /><path d="M454.050909 357.957818a50.920727 50.920727 0 0 0-10.658909 9.704727 22.970182 22.970182 0 0 0-4.189091 6.981819 49.687273 49.687273 0 0 0-1.373091 6.330181 9.309091 9.309091 0 0 0-0.349091 2.327273 3.234909 3.234909 0 0 0 0.209455 1.163637 2.606545 2.606545 0 0 0 0.628363 1.024 3.397818 3.397818 0 0 0 1.792 0.884363 17.873455 17.873455 0 0 0 2.001455 0.209455 19.409455 19.409455 0 0 1 8.308364 3.514182c2.466909 1.722182 4.817455 3.723636 7.354181 5.352727a38.935273 38.935273 0 0 0 19.10691 5.422545 84.177455 84.177455 0 0 0 19.944727-2.001454 86.993455 86.993455 0 0 0 15.406545-4.328728 115.409455 115.409455 0 0 0 29.416728-19.595636c0.884364-0.884364 1.792-1.792 2.746181-2.606545a10.100364 10.100364 0 0 1 3.234909-1.861819 11.450182 11.450182 0 0 1 5.701819 0 17.664 17.664 0 0 0 4.258909 0.488728 7.284364 7.284364 0 0 0 2.141091-0.349091 3.979636 3.979636 0 0 0 1.722181-1.233455 4.026182 4.026182 0 0 0 0.884364-2.606545 5.259636 5.259636 0 0 0-0.768-2.676364 9.309091 9.309091 0 0 0-4.328727-3.514182 40.005818 40.005818 0 0 0-7.424-2.210909 104.843636 104.843636 0 0 1-22.481455-8.168727c-3.584-1.792-6.981818-3.700364-10.519272-5.562182a61.998545 61.998545 0 0 0-11.124364-4.957091 43.845818 43.845818 0 0 0-26.88 1.233455 57.460364 57.460364 0 0 0-24.808727 16.989091" fill="#F5BD0C" /><path d="M498.804364 347.159273c0.488727 1.582545 2.955636 1.303273 4.398545 2.001454s2.327273 2.001455 3.653818 2.141091 3.444364-0.488727 3.653818-1.792c0.279273-1.792-2.327273-2.885818-3.979636-3.514182a8.285091 8.285091 0 0 0-6.981818-0.139636c-0.418909 0.093091-0.884364 0.698182-0.744727 1.303273z m-23.645091-0.814546c-1.861818-0.628364-4.887273 2.606545-3.979637 4.328728 0.279273 0.488727 1.093818 1.024 1.652364 0.744727s1.582545-2.141091 2.466909-2.746182 0.535273-2.257455-0.139636-2.443636z m0 0" fill="#CD8907" /><path d="M769.768727 730.344727a34.769455 34.769455 0 0 1-5.841454 9.821091 63.418182 63.418182 0 0 1-20.48 14.568727 420.421818 420.421818 0 0 0-38.144 20.13091 158.021818 158.021818 0 0 0-22.481455 18.152727 182.062545 182.062545 0 0 1-18.292363 16.64 52.317091 52.317091 0 0 1-22.760728 9.634909 54.853818 54.853818 0 0 1-29.626182-4.468364 35.118545 35.118545 0 0 1-16.500363-12.916363 38.958545 38.958545 0 0 1-4.654546-20.549819 215.435636 215.435636 0 0 1 4.538182-37.46909c1.792-10.309818 3.584-20.619636 4.654546-30.999273a321.885091 321.885091 0 0 0 0.698181-56.994909 44.544 44.544 0 0 1 0-9.541818 12.171636 12.171636 0 0 1 12.381091-11.333819 41.890909 41.890909 0 0 1 8.797091 0.768 186.670545 186.670545 0 0 1 20.48 3.584c4.189091 1.093818 8.378182 2.606545 12.590546 3.770182a57.925818 57.925818 0 0 0 21.713454 2.001455 164.724364 164.724364 0 0 1 23.272728-3.630546 36.561455 36.561455 0 0 1 9.495272 1.652364 20.503273 20.503273 0 0 1 8.517818 4.654545 19.781818 19.781818 0 0 1 3.979637 6.330182 39.563636 39.563636 0 0 1 2.327273 10.868364q0.209455 4.957091 0.814545 9.890909a32.814545 32.814545 0 0 0 7.284364 14.359273 94.045091 94.045091 0 0 0 11.822545 11.008 126.906182 126.906182 0 0 0 12.776727 9.890909c2.141091 1.442909 4.258909 2.746182 6.260364 4.328727a18.990545 18.990545 0 0 1 5.096727 5.632 13.777455 13.777455 0 0 1 1.373091 9.890909" fill="#F5BD0C" /><path d="M769.768727 730.344727a34.769455 34.769455 0 0 1-5.841454 9.821091 63.418182 63.418182 0 0 1-20.48 14.568727 419.397818 419.397818 0 0 0-38.144 20.13091 158.254545 158.254545 0 0 0-22.481455 18.152727 182.202182 182.202182 0 0 1-18.292363 16.64 52.340364 52.340364 0 0 1-22.760728 9.611636 54.877091 54.877091 0 0 1-29.626182-4.468363 35.141818 35.141818 0 0 1-16.500363-12.916364 38.981818 38.981818 0 0 1-4.654546-20.549818 215.412364 215.412364 0 0 1 4.538182-37.469091c1.792-10.309818 3.584-20.619636 4.654546-30.999273a322.071273 322.071273 0 0 0 0.698181-56.994909 44.357818 44.357818 0 0 1 0-9.565091 12.171636 12.171636 0 0 1 12.381091-11.333818 42.030545 42.030545 0 0 1 8.797091 0.744727 188.136727 188.136727 0 0 1 20.48 3.584c4.189091 1.093818 8.378182 2.606545 12.590546 3.770182a57.925818 57.925818 0 0 0 21.713454 2.001455 164.538182 164.538182 0 0 1 23.272728-3.653819 36.631273 36.631273 0 0 1 9.495272 1.652364 20.596364 20.596364 0 0 1 8.517818 4.654545 19.712 19.712 0 0 1 3.979637 6.330182 39.424 39.424 0 0 1 2.327273 10.868364q0.209455 4.933818 0.814545 9.890909a32.861091 32.861091 0 0 0 7.284364 14.359273 94.068364 94.068364 0 0 0 11.822545 11.008 127.208727 127.208727 0 0 0 12.776727 9.890909c2.141091 1.442909 4.258909 2.746182 6.260364 4.328727a18.967273 18.967273 0 0 1 5.096727 5.632 13.800727 13.800727 0 0 1 1.373091 9.890909m-432.034909-105.239273a19.153455 19.153455 0 0 1 10.589091-0.954181 25.809455 25.809455 0 0 1 9.890909 4.189091 63.232 63.232 0 0 1 14.568727 15.685818 558.312727 558.312727 0 0 1 27.438546 41.099636c6.981818 11.473455 13.125818 23.272727 20.945454 34.094546 5.166545 6.981818 11.008 13.544727 16.290909 20.549818a70.539636 70.539636 0 0 1 12.101819 23.04 46.336 46.336 0 0 1-3.374546 33.070545 43.682909 43.682909 0 0 1-16.081454 17.245091 42.216727 42.216727 0 0 1-22.830546 5.981091 110.964364 110.964364 0 0 1-36.165818-11.403636c-23.994182-9.565091-50.036364-12.567273-74.798545-19.991273-7.633455-2.327273-15.057455-5.026909-22.760728-6.981818a66.583273 66.583273 0 0 1-10.100363-3.234909 17.408 17.408 0 0 1-7.912728-6.656 15.220364 15.220364 0 0 1-2.001454-7.912728 23.505455 23.505455 0 0 1 1.582545-7.912727c1.861818-5.143273 4.887273-9.751273 6.981818-14.848a62.045091 62.045091 0 0 0 3.444364-26.251636c-0.418909-8.866909-2.001455-17.733818-2.466909-26.600728a43.008 43.008 0 0 1 0.418909-11.892363 17.803636 17.803636 0 0 1 15.057455-15.266909 48.872727 48.872727 0 0 1 10.938181-0.698182 97.28 97.28 0 0 0 11.008 0 25.6 25.6 0 0 0 10.519273-2.955636 24.971636 24.971636 0 0 0 7.563637-7.144728 91.601455 91.601455 0 0 0 5.422545-8.936727 55.854545 55.854545 0 0 1 5.701818-8.727273 20.945455 20.945455 0 0 1 8.122182-6.469818" fill="#F5BD0C" /><path d="M337.873455 624.896a19.153455 19.153455 0 0 1 10.58909-0.954182 25.856 25.856 0 0 1 9.89091 4.189091 63.255273 63.255273 0 0 1 14.568727 15.662546 558.312727 558.312727 0 0 1 27.438545 41.099636c6.981818 11.473455 13.125818 23.272727 20.945455 34.094545 5.166545 6.981818 11.008 13.544727 16.290909 20.549819a70.493091 70.493091 0 0 1 12.101818 23.04 46.312727 46.312727 0 0 1-3.374545 33.070545 43.682909 43.682909 0 0 1-16.081455 17.245091 42.193455 42.193455 0 0 1-22.830545 5.981091 111.034182 111.034182 0 0 1-36.165819-11.403637c-23.994182-9.565091-50.036364-12.590545-74.798545-19.991272-7.633455-2.327273-15.057455-5.026909-22.760727-6.981818a66.420364 66.420364 0 0 1-10.100364-3.23491 17.408 17.408 0 0 1-7.912727-6.679272 15.220364 15.220364 0 0 1-2.001455-7.912728 23.435636 23.435636 0 0 1 1.582546-7.912727c1.861818-5.166545 4.887273-9.751273 6.981818-14.848a62.068364 62.068364 0 0 0 3.444364-26.251636c-0.418909-8.866909-2.001455-17.664-2.46691-26.600727a43.031273 43.031273 0 0 1 0.41891-11.892364 17.803636 17.803636 0 0 1 15.057454-15.266909 48.686545 48.686545 0 0 1 10.938182-0.674909 98.629818 98.629818 0 0 0 11.008 0 25.6 25.6 0 0 0 10.519273-2.955637 24.994909 24.994909 0 0 0 7.563636-7.144727 91.089455 91.089455 0 0 0 5.422545-8.936727 56.087273 56.087273 0 0 1 5.701819-8.727273 20.177455 20.177455 0 0 1 8.122181-6.469818" fill="#F5BD0C" /><path d="M343.156364 630.714182a16.290909 16.290909 0 0 1 9.565091-0.628364 21.783273 21.783273 0 0 1 8.657454 4.258909 54.551273 54.551273 0 0 1 12.101818 15.057455c8.238545 13.335273 16.290909 26.810182 23.784728 40.564363a271.616 271.616 0 0 0 18.292363 30.394182c4.654545 6.330182 10.030545 12.101818 14.848 18.292364a61.044364 61.044364 0 0 1 11.147637 20.549818 40.727273 40.727273 0 0 1-3.095273 29.486546 39.098182 39.098182 0 0 1-14.917818 15.522909 37.841455 37.841455 0 0 1-20.945455 5.143272 119.691636 119.691636 0 0 1-33.140364-10.24c-20.945455-7.633455-43.659636-8.587636-65.163636-14.568727-7.703273-2.071273-15.197091-4.887273-22.970182-6.795636a74.472727 74.472727 0 0 1-10.170182-2.955637 16.802909 16.802909 0 0 1-8.122181-6.539636 14.568727 14.568727 0 0 1-1.722182-7.563636 24.855273 24.855273 0 0 1 1.652363-7.703273c1.861818-4.887273 4.817455-9.309091 6.656-14.242909a54.551273 54.551273 0 0 0 2.676364-23.505455c-0.558545-7.912727-2.001455-15.732364-2.327273-23.714909a42.100364 42.100364 0 0 1 0.488728-10.589091 18.176 18.176 0 0 1 4.654545-9.309091 18.920727 18.920727 0 0 1 10.309818-4.817454 45.917091 45.917091 0 0 1 11.473455 0 80.849455 80.849455 0 0 0 11.636363 0.558545 19.549091 19.549091 0 0 0 17.664-11.264 72.564364 72.564364 0 0 0 4.049455-9.565091 47.336727 47.336727 0 0 1 4.654545-9.309091 17.780364 17.780364 0 0 1 7.912728-6.656" fill="#F5BD0C" /></svg>