<?xml version="1.0" standalone="no"?><!DOCTYPE svg PUBLIC "-//W3C//DTD SVG 1.1//EN" "http://www.w3.org/Graphics/SVG/1.1/DTD/svg11.dtd"><svg class="icon" width="200px" height="200.00px" viewBox="0 0 1024 1024" version="1.1" xmlns="http://www.w3.org/2000/svg"><path d="M40.96 40.96m245.76 0l450.56 0q245.76 0 245.76 245.76l0 450.56q0 245.76-245.76 245.76l-450.56 0q-245.76 0-245.76-245.76l0-450.56q0-245.76 245.76-245.76Z" fill="#1ABF74" /><path d="M806.01088 204.8H217.98912A54.41536 54.41536 0 0 0 163.84 258.94912v526.1312a54.41536 54.41536 0 0 0 54.14912 54.14912h588.02176A54.41536 54.41536 0 0 0 860.16 785.05984V258.94912A54.21056 54.21056 0 0 0 806.01088 204.8z m-588.02176 46.42816h588.02176c4.32128 0 7.72096 3.39968 7.72096 7.72096v71.18848H210.26816v-71.18848c0-4.32128 3.39968-7.72096 7.72096-7.72096z m595.7632 416.23552H210.24768V376.56576h603.46368V667.4432z m-7.74144 125.3376H217.98912a7.65952 7.65952 0 0 1-7.72096-7.74144v-71.168h603.46368v71.168a7.86432 7.86432 0 0 1-7.72096 7.74144z" fill="#FFFFFF" /><path d="M260.7104 603.40224a16.97792 16.97792 0 0 0 16.9984-17.01888V441.5488a16.97792 16.97792 0 0 0-16.9984-17.01888 17.16224 17.16224 0 0 0-17.01888 17.01888v144.52736a16.85504 16.85504 0 0 0 16.9984 17.32608z m68.07552-147.31264h2.47808c8.66304 0 15.7696-7.10656 15.7696-15.7696a15.85152 15.85152 0 0 0-15.7696-15.79008h-2.4576a15.85152 15.85152 0 0 0-15.79008 15.7696c0 8.68352 7.10656 15.79008 15.7696 15.79008z m1.2288 147.31264a16.97792 16.97792 0 0 0 17.03936-17.01888v-95.31392a16.97792 16.97792 0 0 0-17.01888-17.01888 17.16224 17.16224 0 0 0-17.01888 16.9984v95.3344c0 9.27744 7.72096 17.01888 16.9984 17.01888z m69.34528 0a16.97792 16.97792 0 0 0 16.9984-17.01888v-41.472c0-14.5408 0.94208-24.45312 2.49856-29.696 1.536-5.26336 4.93568-9.60512 9.58464-13.0048 4.64896-3.39968 9.91232-4.95616 16.09728-4.95616 4.62848 0 8.66304 1.2288 11.75552 3.39968 3.39968 2.17088 5.57056 5.57056 7.12704 9.60512 1.536 4.01408 2.1504 13.312 2.1504 27.2384v48.88576c0 9.58464 7.74144 17.01888 17.01888 17.01888a17.16224 17.16224 0 0 0 17.03936-17.01888v-63.44704c0-9.89184-0.6144-17.63328-1.86368-23.20384a36.94592 36.94592 0 0 0-6.81984-14.5408c-3.072-4.34176-8.02816-7.74144-14.2336-10.52672a50.5856 50.5856 0 0 0-20.72576-4.03456c-17.01888 0-31.25248 7.43424-42.7008 21.97504v-3.072a15.85152 15.85152 0 0 0-15.79008-15.79008 15.85152 15.85152 0 0 0-15.7696 15.7696v96.5632a17.77664 17.77664 0 0 0 17.6128 17.32608z m154.7264-2.78528c6.81984 3.70688 14.848 5.87776 23.53152 5.87776 8.66304 0 16.71168-1.8432 24.43264-5.87776 7.74144-4.01408 13.9264-9.27744 18.57536-16.384v3.3792c0 8.68352 7.12704 15.79008 15.7696 15.79008 8.68352 0 15.79008-7.10656 15.79008-15.7696v-96.5632a16.97792 16.97792 0 0 0-16.9984-17.01888 17.16224 17.16224 0 0 0-17.03936 16.9984v37.4784c0 18.55488-0.9216 30.3104-2.4576 34.95936-1.86368 4.62848-4.97664 8.66304-9.6256 12.0832a28.0576 28.0576 0 0 1-15.7696 4.9152c-5.26336 0-9.27744-1.2288-12.6976-3.6864a17.48992 17.48992 0 0 1-6.79936-9.91232c-1.2288-4.01408-1.8432-15.1552-1.8432-33.42336v-42.3936a16.97792 16.97792 0 0 0-17.03936-17.01888 17.16224 17.16224 0 0 0-16.9984 16.9984v65.00352c0 12.0832 1.536 21.66784 4.62848 28.7744 2.4576 6.51264 7.43424 11.776 14.5408 15.79008z m148.54144 2.78528a16.24064 16.24064 0 0 0 13.6192-7.43424l21.66784-32.78848L759.6032 595.968a16.24064 16.24064 0 0 0 13.6192 7.43424h1.8432a16.22016 16.22016 0 0 0 13.312-25.68192l-30.02368-42.3936 25.3952-35.59424a16.22016 16.22016 0 0 0-13.312-25.68192 17.16224 17.16224 0 0 0-13.6192 7.10656l-19.18976 28.4672-18.26816-28.16a16.22016 16.22016 0 0 0-13.59872-7.41376h-1.55648a16.22016 16.22016 0 0 0-13.312 25.68192l26.624 37.13024-28.79488 41.1648c-7.10656 10.52672 0.6144 25.3952 13.9264 25.3952z" fill="#FFFFFF" /></svg>