<?xml version="1.0" standalone="no"?><!DOCTYPE svg PUBLIC "-//W3C//DTD SVG 1.1//EN" "http://www.w3.org/Graphics/SVG/1.1/DTD/svg11.dtd"><svg class="icon" width="256px" height="256.00px" viewBox="0 0 1024 1024" version="1.1" xmlns="http://www.w3.org/2000/svg"><path d="M128 237.714286v39.716571c0 54.857143 41.545143 98.011429 91.062857 99.181714a387.657143 387.657143 0 0 1 97.865143-84.553142l14.994286-0.146286h252.781714l32.914286 0.073143h15.213714l39.058286 0.073143h35.254857a387.657143 387.657143 0 0 1 97.792 84.48l-2.048 0.146285c50.468571 0 93.110857-43.739429 93.110857-99.328 0-5.997714-0.731429-19.236571-2.340571-39.716571h87.698285v39.789714a178.761143 178.761143 0 0 1-128.731428 171.666286 396.434286 396.434286 0 0 1 40.96 138.093714H1024v87.405714l-128-0.073142-2.340571-0.146286c-5.12 48.274286-19.090286 95.085714-41.033143 138.24a178.761143 178.761143 0 0 1 128.731428 171.593143V1024h-85.065143l-0.292571-39.789714c0-54.857143-41.545143-98.011429-91.062857-99.181715a380.342857 380.342857 0 0 1-258.779429 137.508572V363.52h-68.315428v659.017143a379.830857 379.830857 0 0 1-246.272-123.099429l-12.507429-14.409143-7.314286 0.438858c-46.299429 5.046857-83.748571 46.665143-83.748571 98.816V1024H42.642286v-39.789714c0-80.749714 53.906286-150.089143 128.731428-171.666286-21.942857-43.008-35.84-89.892571-40.96-138.166857l-2.413714 0.146286H0V587.117714h128l2.340571 0.073143c5.12-48.274286 19.090286-95.085714 41.033143-138.093714a178.761143 178.761143 0 0 1-128.731428-171.666286v-39.789714H128zM512 0c101.814857 0 184.32 85.284571 184.32 190.464 0 16.310857-1.974857 32.109714-5.705143 47.177143l-357.376-0.585143a196.900571 196.900571 0 0 1-5.558857-46.592C327.68 85.284571 410.185143 0 512 0z" fill="#C80202" /></svg>