<?xml version="1.0" standalone="no"?><!DOCTYPE svg PUBLIC "-//W3C//DTD SVG 1.1//EN" "http://www.w3.org/Graphics/SVG/1.1/DTD/svg11.dtd"><svg class="icon" width="200px" height="200.00px" viewBox="0 0 1024 1024" version="1.1" xmlns="http://www.w3.org/2000/svg"><path d="M796.444444 170.647704h-85.276444v-56.888889h-76.61037c-3.659852-4.171852-7.471407-8.173037-11.45363-12.003556-67.621926-64.265481-172.22163-58.842074-233.566815 12.003556h-76.61037v56.888889H227.555556c-61.421037-1.517037-112.336593 49.417481-113.777778 113.777777v568.850963c1.517037 64.265481 52.432593 115.2 113.777778 113.777778h568.888888c61.345185 1.422222 112.31763-49.512296 113.777778-113.777778V284.444444c-1.460148-64.379259-52.356741-115.313778-113.777778-113.79674z m-426.609777 0h63.10874c8.571259-23.476148 26.30163-42.040889 48.696889-51.010371 43.690667-17.521778 92.653037 5.328593 109.359408 51.010371H654.222222v113.777777H369.834667v-113.777777zM711.092148 796.444444h-398.222222a28.444444 28.444444 0 0 1 0-56.888888h398.222222a28.444444 28.444444 0 1 1 0 56.888888z m0-151.722666h-398.222222a28.444444 28.444444 0 1 1 0-56.888889h398.222222a28.444444 28.444444 0 0 1 0 56.888889z m0-151.703704h-398.222222a28.444444 28.444444 0 1 1 0-56.888889h398.222222a28.444444 28.444444 0 0 1 0 56.888889z" fill="#1FCCCC" /></svg>