<?xml version="1.0" standalone="no"?><!DOCTYPE svg PUBLIC "-//W3C//DTD SVG 1.1//EN" "http://www.w3.org/Graphics/SVG/1.1/DTD/svg11.dtd"><svg class="icon" width="200px" height="135.45px" viewBox="0 0 1512 1024" version="1.1" xmlns="http://www.w3.org/2000/svg"><path d="M1344.911071 550.540041c-4.182823-4.093827-8.365646-8.187653-8.365646-12.28148-8.321148-16.464303-20.914115-28.790281-37.600908-41.11626-12.503971-8.187653-37.600908-20.513632-41.783731-32.83961 8.365646 0 16.731292-4.093827 25.096937-4.093826 12.503971-4.138325 20.914115-4.138325 33.373588-4.138325 4.227321 0 12.592967-4.093827 16.775789-4.093827v-4.093826c-4.182823-8.232152-12.548469-16.464303-16.731291-24.651957-16.731292-16.464303-37.600908-32.928606-58.515023-49.303913-12.503971-8.232152-25.05244-12.325978-37.600909-20.55813-4.182823-4.093827-12.548469-4.093827-12.548469-8.232151-4.182823-8.187653-8.321148-20.513632-12.50397-28.745784-8.365646-20.55813-20.914115-45.210086-29.279761-69.862042-4.182823-16.419805-8.321148-32.83961-16.686794-45.165589-37.600908-65.768216-75.201817-106.839978-133.71684-147.911739-12.548469-8.232152-29.279761-12.325978-45.966554-16.464303h-25.096938c-4.182823-4.093827-12.503971-8.187653-16.686793-12.325978-20.914115-12.325978-71.063492-45.165588-87.750286-4.093827-8.365646 24.651957 12.503971 49.303913 20.914115 61.629892 4.138325 8.232152 12.459473 20.55813 16.686794 28.745783 4.182823 8.232152 4.182823 12.325978 4.182823 20.55813 8.365646 16.464303 12.503971 36.977935 20.914114 53.397739l12.503971 24.651957c4.182823 4.138325 8.365646 8.232152 8.365646 12.325978-4.182823 8.232152-4.182823 20.55813-8.365646 28.790281-12.548469 45.165588-8.365646 98.607826 8.365646 131.447436 4.182823 8.232152 20.914115 32.884108 37.600908 24.651957 16.731292-8.187653 12.548469-28.745783 16.731292-49.303913 0-4.093827 0-8.187653 4.138325-12.325978 4.182823 12.325978 8.365646 20.55813 12.548469 32.884108 12.548469 20.55813 29.279761 41.071761 45.966554 53.397739 8.365646 8.232152 16.731292 20.55813 25.096938 24.651957l-8.365646-8.187653c-8.365646-8.232152-12.548469-16.464303-16.731292-24.651957-16.686794-24.651957-29.235262-45.210086-37.600908-69.862043-4.182823-12.325978-12.548469-24.651957-16.731292-36.977935-4.182823-4.093827-4.182823-12.325978-4.182823-12.325978-4.138325 8.232152-12.503971 16.464303-16.686794 24.651957-8.365646 16.464303-8.365646 36.933437-8.365646 57.536064-12.548469-4.138325-16.731292-16.464303-20.914114-28.790281-8.321148-28.745783-12.503971-73.95587-4.138325-106.79548 4.182823-8.232152 12.503971-32.884108 8.321148-41.116259-4.138325-8.187653-8.321148-12.325978-12.503971-16.419805l-12.548469-24.651957c-8.365646-20.55813-12.548469-45.210086-20.914115-69.862042-4.138325-8.187653-12.503971-20.513632-16.686793-28.745784-8.365646-12.325978-12.548469-16.464303-20.914115-28.745783 0-4.138325-4.182823-12.325978 0-16.464303 0-4.093827 4.182823-4.093827 4.182823-4.093827 4.182823-4.093827 16.731292 0 20.914115 4.093827 12.503971 4.138325 25.05244 12.325978 33.418085 20.55813 4.182823 4.093827 8.365646 12.325978 16.731292 12.325978h8.321148c12.548469 4.093827 25.096938 0 33.462583 4.093827 16.686794 8.232152 33.373587 16.464303 50.149377 28.790281a322.967329 322.967329 0 0 1 108.619903 135.585761c4.182823 8.187653 4.182823 16.419805 8.365645 28.745783 8.365646 20.55813 16.731292 36.933437 25.05244 57.536065 8.365646 16.419805 12.548469 36.933437 25.096938 53.397739 4.182823 8.232152 25.05244 12.325978 37.600908 16.464304l25.05244 12.28148c12.548469 8.232152 25.096938 16.464303 33.462583 24.651956 4.182823 4.138325 25.05244 12.325978 25.05244 20.55813-29.235262 0-50.149377 4.093827-66.836171 12.325978-8.365646-4.093827-16.731292-4.093827-16.731292 4.093827 4.182823 4.138325 4.182823 8.232152 4.182823 12.325978 4.182823 8.232152 12.548469 16.464303 16.686794 24.651957 8.365646 8.232152 16.731292 12.325978 20.914114 16.464303 12.548469 8.187653 29.235262 16.419805 41.783732 24.607458 8.365646 4.138325 16.731292 12.325978 25.052439 16.464303 4.182823 4.093827 4.182823 8.187653 12.548469 8.187654-4.182823 0-4.182823-4.093827-4.182823-8.187654z" fill="#02608A" /><path d="M913.813319 140.089415c-4.182823 0-8.321148 0-12.459472 4.049329 4.138325 0 16.597797 32.483625 20.736122 32.483625 4.182823-4.093827 8.321148-12.192484 8.321148-16.241813 0-8.098657-4.138325-12.147986-12.459473-16.241812 0-4.00483 0-4.00483-4.138325-4.004831zM245.051127 586.138534l-74.756835 255.419189-74.756836-255.419189H29.05727c-12.459473 109.465366-24.918945 223.02456-29.05727 348.687241h58.159038c0-93.223554 0-174.34362 8.321148-263.517846l74.756836 263.517846h49.83789l74.756836-263.517846c8.321148 93.223554 8.321148 174.34362 12.459472 263.517846h62.297363c-4.138325-105.416038-16.597797-218.930733-29.05727-348.687241H245.051127z m249.23395 89.218724c-8.321148 77.02624-12.459473 141.904493-37.378417 206.782747 0-16.241812-4.138325-24.34047-12.459473-56.779597l-41.561241-150.00315H344.771406l58.11454 198.68409c8.321148 28.3453 12.459473 48.636441 12.459473 60.784427 0 12.192484 0 20.291141-4.138325 24.340469-8.321148 8.098657-20.78062 12.147986-37.378418 12.147986h-20.78062v44.631611c8.321148 4.00483 20.78062 8.098657 29.101768 8.098657 33.195595 0 62.297363-20.291141 87.216308-68.927582 33.240093-56.779597 62.297363-150.003151 83.077984-279.759658h-58.159039z" fill="#02608A" /><path d="M1258.095246 872.7954v-301.43024h-65.011748v355.851437h156.010396v-54.421197h-90.998648z m-164.732027 29.324259c4.360815-4.182823 8.677133-8.365646 13.037948-16.731292 25.9869-33.507082 38.98035-79.562632 38.98035-146.576795 0-117.208039-43.341165-175.812058-125.662681-175.812058-43.341165 0-73.688881 16.731292-95.359463 46.05555-26.031398 33.462584-39.024848 79.518134-39.024848 146.532298 0 62.786842 12.99345 108.842393 34.70853 138.166651 21.626085 25.096938 51.9738 37.689905 90.998649 37.689905 17.354265 0 30.347715-4.227321 43.341165-4.227321l78.005198 50.282871 21.670583-41.872727-60.695431-33.507082z m-73.644383-33.507082c-21.670583 0-39.024848-8.365646-47.701981-29.27976-12.99345-20.914115-17.354265-54.465695-17.354265-96.338422 0-79.518134 21.715081-117.208039 65.056246-117.208039 21.670583 0 38.98035 8.365646 47.657483 29.324259 12.99345 20.914115 17.354265 50.238373 17.354265 96.293924 0 79.518134-21.670583 117.208039-65.011748 117.208038z m-195.079742-117.208038s-47.657483-29.324259-69.328066-41.872728C729.324128 692.756021 711.969863 676.024729 711.969863 655.110615c0-12.592967 8.677133-20.914115 17.354265-33.507082 8.632635-8.365646 21.670583-12.548469 38.98035-12.548469 21.670583 0 43.341165 8.365646 60.695431 20.914115l12.99345-46.055551c-25.9869-16.731292-52.018298-25.141436-82.321515-25.141435-30.347715 0-52.062796 8.410144-73.688881 25.141435-17.354265 16.731292-34.708531 50.282872-34.708531 79.562633 0 33.462584 13.037948 54.421196 39.024848 75.335311 0 0 43.341165 29.324259 69.328066 41.872727 26.031398 16.77579 39.024848 33.507082 39.024848 54.421197 0 16.77579-4.316317 29.368757-17.354266 37.689904-12.99345 8.365646-25.9869 4.182823-38.98035 4.182823-21.670583 0-43.341165-8.365646-69.372563-20.914114l-12.99345 41.828229c30.347715 20.958613 60.695431 33.55158 91.043146 33.55158 34.664033 0 60.650933-8.410144 82.321515-29.368757 21.670583-20.914115 30.347715-46.011052 30.347716-75.335311 0-33.462584-12.99345-54.421196-39.024848-75.335311z" fill="#E58E01" /><path d="M1402.58063 924.813698v-41.427746h15.930326v-6.229736H1379.441609v6.229736h15.930326v41.427746h7.208695z m28.923776 0v-34.041059h0.266988l14.595383 34.041059h6.318732l14.595382-34.041059h0.266989v34.041059h7.297691V877.156216h-8.632634l-16.5533 38.179384h-0.22249L1432.839349 877.156216h-8.632634v47.657482h7.297691z" fill="#F5992B" /></svg>