<?xml version="1.0" standalone="no"?><!DOCTYPE svg PUBLIC "-//W3C//DTD SVG 1.1//EN" "http://www.w3.org/Graphics/SVG/1.1/DTD/svg11.dtd"><svg class="icon" width="200px" height="200.00px" viewBox="0 0 1024 1024" version="1.1" xmlns="http://www.w3.org/2000/svg"><path d="M512 771.4304C229.12 771.4304 0 655.36 0 512c0-143.36 229.12-259.4304 512-259.4304S1024 368.64 1024 512c0 143.36-229.12 259.4304-512 259.4304zM290.56 432.2304c23.04 0 38.8096 4.2496 46.4896 13.2096 7.68 8.5504 9.4208 23.9104 5.5808 43.9296-4.3008 22.6304-12.3904 37.12-24.7808 46.5408-11.9296 9.3696-30.2592 14.08-55.04 14.08h-37.12l22.6304-117.76h42.24m-149.3504 236.8h61.44l14.5408-74.7008h52.48c23.04 0 41.7792-2.56 56.7296-7.2192 14.9504-5.12 28.5696-13.2608 40.96-24.7808 10.24-9.3696 18.3296-19.6096 24.7296-31.1296 6.4-11.1104 11.1104-23.9104 13.2608-37.5296 6.8096-33.28 2.0992-59.3408-14.08-77.6704-16.64-18.7904-42.24-27.7504-77.6704-27.7504h-117.76l-54.6304 280.7808M450.56 313.6l-54.6304 280.7296h60.6208l31.5392-160.8192h48.64c15.36 0 25.6 2.56 30.3104 7.68 4.7104 5.12 5.5296 14.4896 2.9696 28.16l-24.32 124.9792h61.9008l25.1392-130.9696c5.5808-26.4704 1.28-45.6704-11.52-58.0096-12.8-11.52-36.2496-17.1008-70.4-17.1008H496.64l15.36-74.6496H450.56M768 432.2304c23.4496 0 38.8096 4.2496 46.4896 13.2096 7.68 8.5504 9.4208 23.9104 5.5808 43.9296-4.3008 22.6304-12.3904 37.12-24.32 46.5408-12.3904 9.3696-30.72 14.08-55.5008 14.08h-36.2496l21.3504-117.76H768m-149.3504 236.8h61.44l14.5408-74.7008h52.0192c23.5008 0 42.7008-2.56 57.6-7.2192 14.9504-5.12 27.7504-13.2608 40.5504-24.7808 10.24-9.3696 18.7904-19.6096 24.7296-31.1296 6.4-11.1104 11.1104-23.9104 13.6704-37.5296 6.4-33.28 1.6896-59.3408-14.4896-77.6704-15.36-18.7904-42.24-27.7504-77.6704-27.7504h-117.3504l-55.04 280.7808z" fill="#1E88E5" /></svg>