<?xml version="1.0" standalone="no"?><!DOCTYPE svg PUBLIC "-//W3C//DTD SVG 1.1//EN" "http://www.w3.org/Graphics/SVG/1.1/DTD/svg11.dtd"><svg t="1726275492852" class="icon" viewBox="0 0 1024 1024" version="1.1" xmlns="http://www.w3.org/2000/svg" p-id="1691" xmlns:xlink="http://www.w3.org/1999/xlink" width="200" height="200"><path d="M792 367.04c-3.872-72.576-65.344-133.824-138.56-137.184-0.192 45.76-0.064 91.616-0.064 137.472 46.208 0 92.416 0.224 138.656-0.32z m166.048-199.456c2.432-24.096-16.544-42.816-40.736-40.544-112.448-1.664-225.088 0.128-337.632-0.512V32.32h-59.712C357.312 59.84 194.88 88.32 32.416 116.256c0 244.16-0.096 488.416 0 732.704 160.544 28.032 321.312 54.624 481.76 83.744h65.504v-104.704c105.376 0 210.656-0.192 315.936 0.32 18.016-0.832 37.984 0.64 53.376-10.464 12.192-18.752 9.056-42.208 10.112-63.36-1.472-195.68 0.736-391.36-1.056-586.912zM341.216 517.28c-23.904 12.16-51.296 10.464-77.28 9.6-0.096 40.96-0.224 81.92-0.096 122.816a13097.28 13097.28 0 0 0-62.656-5.216c-0.96-111.808-1.152-223.744 0.096-335.552 57.184 2.72 126.464-22.528 173.824 20.096 45.376 54.752 33.376 155.456-33.92 188.256z m585.888 279.328H579.68v-83.776h252.672v-41.856h-252.672v-52.352h252.672v-41.888h-252.576c-0.096-20.512-0.096-41.024-0.224-61.568 41.696 12.864 89.184 12.576 126.464-12.352 40.32-23.776 61.376-69.12 64.832-114.336-46.208-0.32-92.416-0.192-138.56-0.192-0.096-45.536 0.544-91.104-0.928-136.544-17.28 3.36-34.56 6.912-51.68 10.56V157.984h347.424v638.656zM263.84 365.568c-0.32 35.168-0.544 70.24 1.664 105.312 20.96-2.496 48.128-0.416 60.128-21.984 9.984-21.12 10.624-48.16-1.376-68.672-13.984-19.36-39.68-15.616-60.416-14.656z" fill="#EB601D" p-id="1692"></path></svg>