<?xml version="1.0" standalone="no"?><!DOCTYPE svg PUBLIC "-//W3C//DTD SVG 1.1//EN" "http://www.w3.org/Graphics/SVG/1.1/DTD/svg11.dtd"><svg class="icon" width="200px" height="200.00px" viewBox="0 0 1024 1024" version="1.1" xmlns="http://www.w3.org/2000/svg"><path d="M2.276 71.964A18.204 18.204 0 0 1 20.48 53.76h360.084c18.933 0 35.68 12.379 41.288 30.948l14.563 48.496h567.105a18.204 18.204 0 0 1 18.204 18.205v732.983c0 24.103-19.515 43.181-42.962 43.181H45.238c-24.03 0-42.962-19.66-42.962-43.18V71.963z" fill="#2C5CAB" /><path d="M892.473 895.968H131.527a42.817 42.817 0 0 1-43.18-42.38V276.362c0-23.666 19.587-42.38 43.107-42.38h761.019c24.103 0 43.18 19.224 43.18 42.38v577.226a42.453 42.453 0 0 1-43.18 42.38" fill="#FFFFFF" /><path d="M2.276 930.702V331.63a18.204 18.204 0 0 1 18.204-18.204h983.04a18.204 18.204 0 0 1 18.204 18.204v599.072a18.204 18.204 0 0 1-18.204 18.205H20.48a18.204 18.204 0 0 1-18.204-18.205" fill="#4686F2" /><path d="M649.99 803.271h48.788v-48.933H649.99v48.933zM458.042 507.922h107.843v-48.788h-107.77v48.788zM325.15 803.272h48.86v-48.934h-48.86v48.933z m162.383 0h48.934v-48.934h-48.934v48.933z m238.551-88.62h-31.821V609.066a12.452 12.452 0 0 0-12.452-12.525H532.025v-48.86h61.312a12.452 12.452 0 0 0 12.452-12.525V431.9a12.452 12.452 0 0 0-12.379-12.451H430.881a12.452 12.452 0 0 0-12.452 12.451v103.402c0 6.845 5.607 12.379 12.38 12.379h61.457v48.933H342.19a12.452 12.452 0 0 0-12.38 12.452v105.659h-31.893a12.452 12.452 0 0 0-12.452 12.452v103.4c0 6.846 5.607 12.38 12.452 12.38h103.401a12.452 12.452 0 0 0 12.379-12.38v-103.4a12.452 12.452 0 0 0-12.379-12.38h-31.894v-78.643h122.916v78.425H460.3a12.452 12.452 0 0 0-12.379 12.452v103.401a12.369 12.369 0 0 0 12.38 12.38h103.4a12.452 12.452 0 0 0 12.38-12.38V727.031a12.452 12.452 0 0 0-12.38-12.38h-31.675v-78.497h122.552v78.425h-31.894a12.452 12.452 0 0 0-12.452 12.452v103.401a12.369 12.369 0 0 0 12.38 12.38h103.4a12.452 12.452 0 0 0 12.452-12.38V727.031a12.452 12.452 0 0 0-12.452-12.38z" fill="#FFFFFF" /></svg>