<?xml version="1.0" standalone="no"?><!DOCTYPE svg PUBLIC "-//W3C//DTD SVG 1.1//EN" "http://www.w3.org/Graphics/SVG/1.1/DTD/svg11.dtd"><svg t="1726466782412" class="icon" viewBox="0 0 1024 1024" version="1.1" xmlns="http://www.w3.org/2000/svg" p-id="17659" width="256" height="256" xmlns:xlink="http://www.w3.org/1999/xlink"><path d="M886.016 4.48l67.2 67.242667a14.933333 14.933333 0 0 1-1.066667 22.058666l-4.992 4.992a15.744 15.744 0 0 1-22.016 0l-18.090666-18.005333-104.32 104.277333 34.133333 34.090667a16.085333 16.085333 0 0 1 4.992 11.050667 16 16 0 0 1-5.034667 11.008 15.616 15.616 0 0 1-22.016 0l-5.077333-4.992-15.018667 15.061333-35.072-35.157333-19.072 19.114666 35.114667 35.072-24.106667 24.064-35.072-35.114666-19.029333 19.072 35.072 34.133333-24.064 24.064-35.114667-35.157333-19.029333 19.114666 34.090667 36.053334-24.106667 24.106666-35.072-35.114666-19.072 19.072 35.114667 35.072-36.138667 36.138666-75.178667 6.997334-143.445333 143.402666 2.005333-42.112 122.368-122.325333 6.997334-75.264 199.594666-199.594667-4.992-4.992a18.090667 18.090667 0 0 1-4.053333-6.101333 13.44 13.44 0 0 1-0.938667-4.949333 16.213333 16.213333 0 0 1 4.992-11.008c5.973333-6.016 16.042667-6.016 22.058667 0l34.133333 34.133333 104.277334-104.362667L858.88 31.573333a15.744 15.744 0 0 1 0-22.016l4.992-5.077333a15.786667 15.786667 0 0 1 22.101333 0zM536.96 792.789333c-1.024-2.005333-2.986667-4.010667-4.992-5.973333a42.069333 42.069333 0 0 0-34.133333-15.061333c-15.061333 0-26.026667 4.010667-35.072 15.018666-8.064 10.069333-13.056 25.088-13.056 43.136 0 6.570667 0.597333 12.586667 1.621333 18.048 0.64 3.285333 1.408 6.4 2.389333 9.258667 1.450667 4.309333 3.242667 8.149333 5.333334 11.52 2.261333 3.669333 4.864 6.784 7.68 9.301333 9.045333 6.058667 17.066667 8.064 28.117333 8.064 3.968 0 9.045333 0 11.008-2.005333 2.005333 0 4.010667-1.024 7.04-2.005333l-15.061333-15.061334 0.981333-0.981333-0.981333-1.024 19.072-19.072 17.066666 17.066667c1.962667-4.010667 3.968-11.008 5.973334-15.061334a26.453333 26.453333 0 0 0 1.706666-6.528c0.213333-2.005333 0.256-4.010667 0.298667-5.973333v-8.533333a81.024 81.024 0 0 0-0.426667-17.536 61.397333 61.397333 0 0 0-4.565333-16.597334z" fill="#f4ea2a" p-id="17660"></path><path d="M804.736 787.84c20.053333-7.04 31.104-16.042667 31.104-24.106667v-151.466666c0-8.96-11.050667-17.024-30.08-24.021334 7.381333-2.730667 13.568-5.802667 18.346667-8.917333 7.594667-4.949333 11.733333-10.24 11.733333-15.146667v-151.466666c0-7.637333-8.874667-15.061333-25.002667-21.930667-17.706667-7.552-44.202667-14.421333-77.312-20.181333l-13.013333 13.013333c18.816 4.608 33.109333 9.813333 41.898667 15.488a24.362667 24.362667 0 0 1 9.002666 8.917333 10.282667 10.282667 0 0 1 1.194667 4.693334c0 17.066667-49.109333 33.109333-123.306667 42.112l-19.072 19.072-77.226666 7.04-71.210667 71.168-8.021333 9.045333L412.586667 623.36c22.101333 1.024 45.098667 1.024 68.224 1.024 115.328 0 217.6-9.002667 281.813333-24.106667 5.973333 4.053333 9.002667 8.064 9.002667 12.074667 0 28.074667-130.389333 51.157333-290.816 51.157333-38.144 0-73.216-1.024-106.368-4.010666l-26.026667 26.026666 0.981333-28.032c-94.293333-8.021333-158.421333-26.069333-158.421333-46.165333 0-4.010667 2.986667-8.96 8.96-12.032l10.24 2.218667c9.813333 2.048 20.394667 3.882667 31.573333 5.632 31.829333 4.864 68.906667 8.490667 109.653334 11.221333l2.005333-53.162667v-10.026666l1.024-29.098667 64.213333-64.170667c-130.432-5.034667-227.669333-26.069333-227.669333-50.176 0-29.056 130.346667-52.096 290.816-52.096l0.981333-8.064h-0.981333c-195.584 0-355.029333 27.093333-355.029333 60.16v151.466667c0 9.045333 11.008 17.066667 30.08 24.106667-20.053333 7.978667-30.08 16.042667-30.08 24.021333v151.466667c0 9.045333 11.008 17.066667 31.061333 24.064-20.053333 8.021333-31.061333 16.042667-31.061333 24.064v151.466666c0 33.066667 158.464 60.16 355.029333 60.16 196.565333 0 355.029333-27.093333 355.029333-60.16v-149.461333a20.906667 20.906667 0 0 0-6.826666-10.581333c-5.504-4.949333-13.952-9.728-25.258667-14.506667z m-426.24 113.322667a44.074667 44.074667 0 0 1-14.933333 9.685333c-9.642667 3.84-21.461333 5.376-35.242667 5.376-22.016 0-39.125333-4.053333-52.096-15.061333-13.056-11.050667-19.114667-23.04-19.114667-40.106667h34.133334c0 7.978667 2.005333 13.013333 6.997333 17.066667 5.973333 5.973333 15.061333 11.008 30.08 11.008 9.045333 0 15.061333-2.005333 19.114667-2.005334 10.965333-4.053333 15.018667-10.026667 15.018666-19.072 0-5.973333-2.048-11.008-7.04-13.056a93.226667 93.226667 0 0 0-24.064-7.978666l-15.061333-5.077334c-17.066667-3.968-30.08-7.978667-37.12-12.970666a38.186667 38.186667 0 0 1-15.018667-15.914667 45.866667 45.866667 0 0 1-4.010666-20.224c0-15.018667 4.010667-28.074667 17.066666-38.101333a41.088 41.088 0 0 1 8.704-6.656c5.973333-3.413333 13.141333-5.717333 21.248-6.997334 6.186667-0.938667 12.928-1.408 20.181334-1.408 17.066667 0 32.085333 4.053333 45.098666 15.061334 13.056 8.021333 19.114667 23.04 19.114667 40.106666h-35.114667a22.741333 22.741333 0 0 0-4.181333-14.634666 22.485333 22.485333 0 0 0-8.874667-6.4 62.037333 62.037333 0 0 0-44.117333 0l-1.408 1.365333c-3.669333 3.584-7.68 7.424-7.68 13.653333 0 5.973333 2.090667 11.093333 9.088 13.056 1.877333 0.896 4.394667 1.834667 7.68 2.730667 3.754667 1.109333 8.533333 2.176 14.378667 3.285333l30.08 10.026667c13.056 2.005333 22.058667 5.973333 28.117333 13.056 11.008 7.978667 15.018667 19.029333 15.018667 34.048 4.010667 15.061333-2.986667 28.117333-16.042667 36.138667z m201.6 6.997333l-17.066667 17.066667-22.058666-19.072a78.848 78.848 0 0 1-6.613334 3.882666l-2.389333 1.194667-6.058667 2.986667c-9.045333 2.005333-17.066667 3.968-28.074666 3.968-22.058667 0-41.130667-6.016-54.186667-19.029334-17.024-15.061333-26.026667-38.101333-26.026667-68.181333 0-10.368 1.024-19.882667 3.114667-28.586667 4.010667-16.469333 11.776-29.781333 22.912-39.637333 15.061333-13.056 32.128-19.029333 54.186667-19.029333 2.986667 0 5.888 0.085333 8.746666 0.256a110.933333 110.933333 0 0 1 8.448 1.066666c14.848 2.432 27.989333 8.149333 38.954667 17.706667 17.066667 15.061333 26.112 38.101333 26.112 65.152 0 6.272-0.341333 12.16-1.109333 17.664-1.066667 7.722667-2.986667 14.592-5.973334 20.48a35.413333 35.413333 0 0 1-13.013333 23.04l20.053333 19.072z m144.384 4.010667h-118.314667V746.666667h34.090667v135.381333h84.224v30.08z" fill="#f4ea2a" p-id="17661"></path></svg>