<?xml version="1.0" standalone="no"?><!DOCTYPE svg PUBLIC "-//W3C//DTD SVG 1.1//EN" "http://www.w3.org/Graphics/SVG/1.1/DTD/svg11.dtd"><svg t="1727508330228" class="icon" viewBox="0 0 1740 1024" version="1.1" xmlns="http://www.w3.org/2000/svg" p-id="54410" width="435" height="256" xmlns:xlink="http://www.w3.org/1999/xlink"><path d="M0 512C0 229.2224 229.2224 0 512 0h716.8c282.7776 0 512 229.2224 512 512s-229.2224 512-512 512H512C229.2224 1024 0 794.7776 0 512z" fill="#141414" p-id="54411"></path><path d="M544.1024 601.6c0-7.424-1.1264-13.9776-3.328-19.8144a40.2432 40.2432 0 0 0-11.9808-16.4864 110.1312 110.1312 0 0 0-24.576-15.0016 304.4352 304.4352 0 0 0-41.728-15.872 562.6368 562.6368 0 0 1-56.064-21.6064 241.5616 241.5616 0 0 1-47.104-28.5184 124.7232 124.7232 0 0 1-32.768-37.7856 104.192 104.192 0 0 1-11.6736-50.432c0-18.5856 4.096-35.3792 12.288-50.3808 8.192-15.0016 19.712-27.8016 34.5088-38.4 14.848-10.8032 32.256-18.9952 52.224-24.576 19.968-5.8368 41.984-8.704 65.9968-8.704 32 0 60.1088 5.632 84.3264 17.1008 24.3712 11.1616 43.3664 26.9824 56.9856 47.36 13.568 20.224 20.3776 43.7248 20.3776 70.5024h-97.1776c0-11.776-2.5088-22.1696-7.5264-31.232a50.432 50.432 0 0 0-22.1696-21.5552c-9.8304-5.2224-22.1184-7.7824-36.9152-7.7824a88.576 88.576 0 0 0-36.3008 6.6048 49.5104 49.5104 0 0 0-21.9136 17.408 43.776 43.776 0 0 0-7.168 24.2688c0 7.0144 1.792 13.4144 5.376 19.2 3.7888 5.632 9.216 10.9056 16.2304 15.872 7.168 4.8128 15.9744 9.4208 26.368 13.824 10.3936 4.4032 22.3232 8.6016 35.6864 12.5952 23.3984 7.424 44.1344 15.616 62.1056 24.576 18.2272 9.0112 33.536 19.2512 45.9264 30.6176 12.3904 11.4176 21.7088 24.32 27.904 38.7072 6.4 14.4384 9.5744 30.72 9.5744 48.896a112.64 112.64 0 0 1-11.3664 51.6096 106.1888 106.1888 0 0 1-32.4096 38.4 150.8352 150.8352 0 0 1-50.432 23.7056c-19.5584 5.4272-41.472 8.0896-65.6896 8.0896-22.016 0-43.6736-2.816-65.0752-8.3968A192.5632 192.5632 0 0 1 358.4 688.0256a135.2192 135.2192 0 0 1-41.4208-45.056c-10.1888-18.3808-15.2576-40.192-15.2576-65.3824h97.792c0 13.2096 1.8944 24.4224 5.6832 33.5872 3.7888 9.0112 9.216 16.3328 16.1792 21.9136 7.2192 5.632 15.9232 9.6256 26.112 12.032 10.24 2.3552 21.6064 3.584 34.2016 3.584 14.592 0 26.4192-2.048 35.4304-5.9904a44.7488 44.7488 0 0 0 20.3776-17.1008 45.1072 45.1072 0 0 0 6.6048-24.0128zM925.696 601.6c0-7.424-1.0752-13.9776-3.2768-19.8144a40.192 40.192 0 0 0-12.032-16.4864 110.08 110.08 0 0 0-24.576-15.0016 304.2304 304.2304 0 0 0-41.728-15.872 562.8416 562.8416 0 0 1-56.064-21.6064 241.5616 241.5616 0 0 1-47.104-28.5184 124.8256 124.8256 0 0 1-32.7168-37.7856 104.2432 104.2432 0 0 1-11.7248-50.432c0-18.5856 4.096-35.3792 12.288-50.3808 8.192-15.0016 19.7632-27.8016 34.56-38.4 14.7968-10.8032 32.1536-18.9952 52.224-24.576 19.968-5.8368 41.984-8.704 65.9456-8.704 32 0 60.1088 5.632 84.3264 17.1008a133.632 133.632 0 0 1 56.9856 47.36c13.6192 20.224 20.3776 43.7248 20.3776 70.5024h-97.1776c0-11.776-2.5088-22.1696-7.4752-31.232a50.4832 50.4832 0 0 0-22.2208-21.5552c-9.8304-5.2224-22.1184-7.7824-36.864-7.7824a88.576 88.576 0 0 0-36.352 6.6048 49.5104 49.5104 0 0 0-21.9136 17.408 43.776 43.776 0 0 0-7.168 24.2688c0 7.0144 1.792 13.4144 5.376 19.2 3.84 5.632 9.216 10.9056 16.2304 15.872 7.168 4.8128 15.9744 9.4208 26.368 13.824 10.3936 4.4032 22.3232 8.6016 35.7376 12.5952 23.3984 7.424 44.032 15.616 62.0544 24.576 18.2272 9.0112 33.536 19.2512 45.9264 30.6176 12.3904 11.4176 21.7088 24.32 27.904 38.7072 6.4 14.4384 9.5744 30.72 9.5744 48.896 0 19.456-3.7888 36.608-11.3664 51.6096a106.1888 106.1888 0 0 1-32.4096 38.4 150.784 150.784 0 0 1-50.432 23.7056c-19.5584 5.4272-41.472 8.0896-65.6896 8.0896-22.016 0-43.6736-2.816-65.0752-8.3968a192.6656 192.6656 0 0 1-58.2144-26.368 135.2704 135.2704 0 0 1-41.3696-45.056c-10.24-18.3808-15.36-40.192-15.36-65.3824h97.792c0 13.2096 1.9456 24.4224 5.7344 33.5872 3.7888 9.0112 9.216 16.3328 16.2304 21.9136 7.168 5.632 15.872 9.6256 26.112 12.032 10.1888 2.3552 21.5552 3.584 34.1504 3.584 14.592 0 26.4192-2.048 35.4304-5.9904a44.8 44.8 0 0 0 20.3776-17.1008 45.1584 45.1584 0 0 0 6.656-24.0128zM1080.832 280.0128h167.68c33.3824 0 62.3104 4.9664 86.6816 15.0016 24.576 9.984 43.52 24.7808 56.7296 44.3904 13.1584 19.6096 19.7632 43.776 19.7632 72.6016 0 24.0128-3.8912 44.3904-11.6736 61.184-7.8336 16.7936-18.7904 30.72-33.024 41.728a175.4624 175.4624 0 0 1-49.152 26.6752l-31.8464 17.408h-142.7968l-0.6144-75.8784h106.24c14.592 0 26.6752-2.6112 36.3008-7.8336a50.7392 50.7392 0 0 0 21.5552-21.9136c5.0176-9.5744 7.5264-20.7872 7.5264-33.5872 0-13.2096-2.5088-24.576-7.4752-34.2016a50.0224 50.0224 0 0 0-22.2208-21.8624c-9.6256-5.2224-21.6064-7.8336-35.9936-7.8336h-69.9392V716.8h-97.792V280.0128zM1322.5472 716.8l-98.0992-194.0992 103.2192-0.3072 99.584 189.952V716.8h-104.704z" fill="#FFE7A9" p-id="54412"></path></svg>