<?xml version="1.0" standalone="no"?><!DOCTYPE svg PUBLIC "-//W3C//DTD SVG 1.1//EN" "http://www.w3.org/Graphics/SVG/1.1/DTD/svg11.dtd"><svg class="icon" width="200px" height="176.86px" viewBox="0 0 1158 1024" version="1.1" xmlns="http://www.w3.org/2000/svg"><path fill="#1296db" d="M854.862122 197.348357l1.408601 61.319812c19.734836 0.706704 35.239061 3.523906 53.565296 8.461221 14.100432 23.960638 32.426667 67.66092 43.700281 126.870234h-95.856976v14.095625h98.678986c4.23061 27.484545 7.047812 61.319812 7.754516 96.558873h-106.433502v14.100432h106.433502c0 32.421859-2.822009 64.137014-7.754516 96.558873h-98.678986v14.100432h95.15508c-11.985127 59.204507-30.311362 103.606685-44.406986 126.870235-18.326235 4.932507-33.83046 7.749709-53.565296 8.456413l-1.408601 61.319812c169.863812-4.932507 304.488563-143.787869 304.488564-315.060281 0.701897-169.863812-133.21615-308.719174-303.079963-313.651681z m242.462047 307.305765h-113.476507c0-32.421859-2.822009-64.137014-7.754516-96.558873h99.380882c13.393728 29.59985 20.44154 63.435117 21.850141 96.558873z m-164.224601-229.775023c57.089202 21.143437 104.31339 66.959023 133.21615 119.822422h-93.746479c-9.869822-53.565296-26.080751-95.861784-39.469671-119.822422z m0 474.357183c13.38892-23.965446 29.59985-66.257127 40.171568-119.822423h93.039775c-29.604657 52.156695-76.122141 98.674178-133.21615 119.822423z m42.993578-133.922855c4.23061-27.484545 7.754516-60.613108 7.754516-96.558873h114.178404c-1.408601 33.123756-9.15831 65.545615-22.54723 96.558873h-99.38569z m-200.175174 140.970667c18.326235 4.932507 46.522291 7.749709 66.959023 8.456413v-135.331455h-110.659305c11.278423 59.209315 29.604657 102.909596 43.700282 126.870234z m-47.224188-140.970667h114.183211v-96.558873h-121.93292c0.701897 32.421859 3.523906 64.843718 7.749709 96.558873z m-7.749709-110.659305h121.93292V408.797146h-114.178403c-4.937315 31.719962-7.754516 63.435117-7.754517 95.861784z m-191.71876 7.047812c0-173.387718 143.081164-314.353577 316.47369-314.353577h8.46122V2.10569L453.098366 64.838911V958.569765l400.350348 62.728413 0.701896-195.233051h-8.46122c-173.387718 0-316.468883-140.26877-316.468883-314.363193z m172.685821 7.05262H590.554742c1.408601 33.123756 9.15831 65.545615 22.552037 96.558873h96.563681c-4.23061-31.715155-7.047812-64.137014-7.754516-96.558873z m29.604657-125.461634h111.361202V258.668169c-20.436732 0.706704-48.632789 4.23061-66.959023 9.163117-14.802329 23.965446-32.421859 66.959023-44.402179 125.461634z m-21.85014 15.504226h-97.270385c-13.38892 30.311362-21.143437 62.733221-21.845334 96.56368h111.361202c0.706704-35.945765 3.523906-69.074329 7.754517-96.56368z m-86.69386 220.616713c28.191249 51.449991 74.006836 97.265577 130.394141 119.115718-13.393728-23.965446-28.897953-65.550423-39.469671-119.115718h-90.92447z m129.687437-353.832864c-55.680601 21.854948-101.496188 66.257127-129.687437 117.711925h90.919662c9.869822-52.863399 25.378854-93.039775 38.767775-117.707117zM150.729915 802.806385h50.748094v-49.339493H150.023211l0.706704 49.339493z m-99.380882 0h47.930892v-49.339493h-47.930892v49.339493z m216.386103-77.530742l28.191249 28.191249h-45.108883v49.339493h45.108883l-25.374047 35.945765 29.604657 21.850141 75.415437-85.987155-78.939343-78.939343-28.897953 29.59985z m-115.59662-222.732019h-50.046197v47.228996h50.046197v-47.224188z m-150.128976 47.930892h48.632789v-47.224187H2.00954v47.224187z m244.577352-110.659305l66.257127 63.435118H199.362704v47.224187h113.481315l-66.257127 63.435118 28.897953 28.897953 115.59662-115.591812-115.59662-116.293709-28.893145 28.893145zM152.138516 253.028958H53.464338v50.046197h98.674178v-50.046197z m119.822423 76.824037l28.897953 28.902761L381.211643 278.403005 300.854085 198.050254l-28.893146 28.90276 31.008451 26.075944H202.184714v50.046197h100.082779l-30.306554 26.77784z"  /></svg>