<?xml version="1.0" standalone="no"?><!DOCTYPE svg PUBLIC "-//W3C//DTD SVG 1.1//EN" "http://www.w3.org/Graphics/SVG/1.1/DTD/svg11.dtd"><svg class="icon" width="200px" height="181.40px" viewBox="0 0 1129 1024" version="1.1" xmlns="http://www.w3.org/2000/svg"><path fill="#1296db" d="M820.471172 200.280276l1.518345 58.862345a212.921379 212.921379 0 0 1 51.729655 8.474482c13.700414 22.810483 31.073103 65.394759 42.372414 122.103173H824.143448v13.665103h94.808276c4.13131 26.482759 6.956138 58.650483 7.591724 92.548414h-102.4v13.700414h102.4c-0.423724 34.109793-3.248552 66.030345-7.591724 92.513103H824.143448v13.700414h91.524414c-11.29931 57.132138-28.883862 99.928276-42.584276 122.315035-17.655172 4.590345-32.414897 7.591724-51.305931 8.26262l-1.518345 58.862345c163.486897-4.766897 292.82869-138.381241 292.82869-302.821517 0-164.228414-129.377103-297.842759-292.616828-302.185931z m233.472 295.441655h-109.356138c-0.423724-33.897931-3.248552-66.030345-7.415172-92.513103h95.902897c12.393931 27.789241 19.561931 60.38069 20.868413 92.513103z m-158.049103-221.14869c54.801655 20.409379 99.998897 64.512 128.03531 114.899862H933.958621c-9.816276-51.023448-25.246897-91.665655-38.064552-114.899862z m-0.423724 456.209656c13.064828-23.022345 28.460138-63.45269 38.488276-115.111725h89.758896c-28.036414 50.352552-73.268966 94.667034-128.247172 115.111725z m41.524965-128.847449c4.13131-26.482759 7.168-58.438621 7.591724-92.513103h109.568a248.937931 248.937931 0 0 1-21.715862 92.513103h-95.443862z m-192.194207 135.344552c17.619862 5.014069 45.02069 7.627034 64.123587 8.474483v-130.118621H702.675862c11.087448 56.708414 28.672 99.29269 42.160552 121.644138z m-45.444413-135.344552h109.568v-92.513103h-117.159724c0.635586 34.074483 3.460414 66.030345 7.591724 92.513103z m-7.591724-106.213517h117.159724v-92.513103h-109.568c-4.343172 26.482759-7.168 58.40331-7.591724 92.513103z m-184.143449 6.708966c0-167.017931 137.392552-302.609655 304.587035-302.609656 2.824828 0 5.437793 0.247172 8.26262 0.247173V12.358621L435.023448 72.527448v859.842207l384.98869 60.168828 0.459034-187.674483c-2.824828 0-5.437793 0.211862-8.26262 0.211862-167.194483 0-304.587034-135.591724-304.587035-302.609655z m166.099862 6.991448h-106.990345c1.341793 32.132414 9.18069 64.723862 21.539311 92.513103h93.042758a665.953103 665.953103 0 0 1-7.591724-92.513103zM702.181517 388.413793h106.743173V258.930759c-19.350069 0.882759-46.715586 3.884138-64.547311 8.898207-13.700414 22.810483-31.073103 64.088276-42.195862 120.584827z m-21.080276 14.759724h-93.25462a257.377103 257.377103 0 0 0-21.292138 92.548414h106.955034c0.635586-33.897931 3.460414-66.030345 7.591724-92.513103z m-83.897379 212.462345c27.365517 49.752276 71.503448 93.643034 125.422345 114.264276-12.817655-23.022345-28.036414-63.205517-38.029241-114.264276h-87.393104z m124.786759-340.391724c-53.495172 20.833103-97.421241 63.417379-124.998621 113.169655h87.145931c10.028138-50.635034 24.999724-89.723586 37.85269-113.204965zM143.254069 782.230069H192.441379v-47.563035H143.254069v47.563035z m-95.443862 0h46.327172v-47.563035H47.810207v47.563035z m208.083862-74.71669l27.188965 27.153655H239.545379v47.563035h43.467035l-24.116966 34.745379 28.248276 20.833104 72.598069-82.979311-75.634759-75.564138-28.248275 28.248276z m-111.545379-213.768827h-48.022069v45.620965h48.022069v-45.620965zM0 539.400828h46.539034v-45.620966H0v45.620966z m235.237517-106.46069l63.911724 60.839724H190.216828v45.620966h108.932413l-63.911724 60.804413 28.036414 28.036414 111.510069-111.439448-111.510069-111.439448-28.036414 27.542069zM144.34869 253.492966H49.11669v48.445793h95.232V253.528276z m115.217655 73.657379l28.036414 28.001103 77.400275-77.329655-77.400275-77.329655-28.036414 28.036414 29.590069 24.964414H193.041655v48.445793H289.191724l-29.590069 25.211586z"  /></svg>