<?xml version="1.0" standalone="no"?><!DOCTYPE svg PUBLIC "-//W3C//DTD SVG 1.1//EN" "http://www.w3.org/Graphics/SVG/1.1/DTD/svg11.dtd"><svg class="icon" width="200px" height="200.00px" viewBox="0 0 1024 1024" version="1.1" xmlns="http://www.w3.org/2000/svg"><path d="M733.405405 608.864865a745.444324 745.444324 0 0 0 8.994595-96.864865 745.444324 745.444324 0 0 0-8.994595-96.864865h179.891892a378.88 378.88 0 0 1 8.302703 96.864865 378.88 378.88 0 0 1-8.302703 96.864865z m-88.838919 290.594594A791.247568 791.247568 0 0 0 719.567568 719.567568h138.378378a388.428108 388.428108 0 0 1-213.37946 179.891891zM636.540541 608.864865H387.459459a608.864865 608.864865 0 0 1-3.459459-96.864865 605.958919 605.958919 0 0 1 3.459459-96.864865h249.081082a678.054054 678.054054 0 0 1 3.459459 96.864865 681.098378 681.098378 0 0 1-3.459459 96.864865z m-124.540541 310.659459A678.054054 678.054054 0 0 1 415.135135 719.567568h193.72973a678.054054 678.054054 0 0 1-96.864865 199.956756zM304.432432 304.432432H152.216216A412.921081 412.921081 0 0 1 378.88 124.540541 872.752432 872.752432 0 0 0 304.432432 304.432432zM152.216216 719.567568h152.216216a872.752432 872.752432 0 0 0 74.447568 179.891891A416.795676 416.795676 0 0 1 152.216216 719.567568z m-41.513513-110.702703a378.88 378.88 0 0 1-8.302703-96.864865 378.88 378.88 0 0 1 8.302703-96.864865h179.891892a745.444324 745.444324 0 0 0-8.994595 96.864865 745.444324 745.444324 0 0 0 8.994595 96.864865zM512 103.922162A681.236757 681.236757 0 0 1 608.864865 304.432432H415.135135a681.236757 681.236757 0 0 1 96.864865-200.51027zM871.783784 304.432432H719.567568a792.354595 792.354595 0 0 0-75.001082-179.891891A415.135135 415.135135 0 0 1 871.783784 304.432432zM512 0a512 512 0 1 0 512 512A512 512 0 0 0 512 0z" fill="#569B48" /></svg>