<?xml version="1.0" standalone="no"?><!DOCTYPE svg PUBLIC "-//W3C//DTD SVG 1.1//EN" "http://www.w3.org/Graphics/SVG/1.1/DTD/svg11.dtd"><svg class="icon" width="200px" height="200.00px" viewBox="0 0 1024 1024" version="1.1" xmlns="http://www.w3.org/2000/svg"><path d="M0 512a512 512 0 1 0 1024 0 512 512 0 1 0-1024 0Z" fill="#DEFDE5" /><path d="M273.066667 307.2v409.6q0 3.345067 0.341333 6.690133t0.955733 6.621867q0.682667 3.2768 1.6384 6.485333 0.989867 3.242667 2.2528 6.314667 1.297067 3.106133 2.8672 6.075733 1.570133 2.935467 3.447467 5.7344 1.877333 2.798933 3.9936 5.393067 2.116267 2.594133 4.5056 4.949333 2.389333 2.389333 4.949333 4.5056 2.594133 2.116267 5.393067 3.9936 2.798933 1.877333 5.7344 3.413334 2.9696 1.604267 6.075733 2.901333 3.072 1.262933 6.280534 2.2528 3.208533 0.955733 6.485333 1.6384 3.310933 0.648533 6.656 0.955733 3.345067 0.341333 6.690133 0.341334h341.333334q3.345067 0 6.690133-0.341334t6.621867-0.955733q3.2768-0.682667 6.485333-1.6384 3.242667-0.989867 6.314667-2.2528 3.106133-1.297067 6.075733-2.8672 2.935467-1.570133 5.7344-3.447467 2.798933-1.877333 5.393067-3.9936 2.594133-2.116267 4.949333-4.5056 2.389333-2.389333 4.5056-4.949333 2.116267-2.594133 3.9936-5.393067 1.877333-2.798933 3.413333-5.7344 1.604267-2.9696 2.901334-6.075733 1.262933-3.072 2.2528-6.280533 0.955733-3.242667 1.6384-6.485334 0.648533-3.310933 0.955733-6.656 0.341333-3.345067 0.341333-6.690133v-307.2l-170.666666-170.666667h-238.933334q-3.345067 0-6.690133 0.341334t-6.621867 0.955733q-3.310933 0.682667-6.485333 1.6384-3.242667 0.989867-6.314667 2.2528-3.106133 1.297067-6.075733 2.8672-2.935467 1.570133-5.7344 3.447467-2.798933 1.877333-5.393067 3.9936-2.594133 2.116267-4.949333 4.5056-2.389333 2.389333-4.5056 4.949333-2.116267 2.594133-3.9936 5.393067-1.877333 2.798933-3.413333 5.7344-1.604267 2.9696-2.901334 6.075733-1.262933 3.072-2.2528 6.280533-0.955733 3.208533-1.6384 6.485334-0.648533 3.310933-0.955733 6.656Q273.066667 303.854933 273.066667 307.2z" fill="#2ECD76" /><path d="M580.266667 238.933333v102.4q0 3.345067 0.341333 6.690134t0.955733 6.621866q0.682667 3.310933 1.6384 6.485334 0.989867 3.242667 2.2528 6.314666 1.297067 3.106133 2.8672 6.075734 1.570133 2.935467 3.447467 5.7344 1.877333 2.798933 3.9936 5.393066 2.116267 2.594133 4.5056 4.949334 2.389333 2.389333 4.949333 4.5056 2.594133 2.116267 5.393067 3.9936 2.798933 1.877333 5.7344 3.413333 2.9696 1.604267 6.075733 2.901333 3.072 1.262933 6.280534 2.2528 3.208533 0.955733 6.485333 1.6384 3.310933 0.648533 6.656 0.955734 3.345067 0.341333 6.690133 0.341333h102.4l-170.666666-170.666667z" fill="#B1F0CE" /><path d="M648.533333 674.167467h-273.066666q-2.525867 0-4.983467-0.477867-2.491733-0.512-4.8128-1.467733-2.321067-0.955733-4.437333-2.389334-2.082133-1.365333-3.857067-3.1744-1.809067-1.774933-3.208533-3.857066-1.365333-2.116267-2.3552-4.437334-0.955733-2.321067-1.467734-4.778666-0.477867-2.491733-0.477866-5.0176t0.477866-4.983467q0.512-2.491733 1.467734-4.8128 0.955733-2.321067 2.389333-4.437333 1.365333-2.082133 3.1744-3.857067 1.774933-1.809067 3.857067-3.208533 2.116267-1.365333 4.437333-2.3552 2.321067-0.955733 4.778667-1.467734 2.491733-0.477867 5.0176-0.477866h273.066666q2.525867 0 4.983467 0.477866 2.491733 0.512 4.8128 1.467734 2.321067 0.955733 4.437333 2.389333 2.082133 1.365333 3.857067 3.1744 1.809067 1.774933 3.208533 3.857067 1.365333 2.116267 2.3552 4.437333 0.955733 2.321067 1.467734 4.778667 0.477867 2.491733 0.477866 5.0176t-0.477866 4.983466q-0.512 2.491733-1.467734 4.8128-0.955733 2.321067-2.389333 4.437334-1.365333 2.082133-3.1744 3.857066-1.774933 1.809067-3.857067 3.208534-2.116267 1.365333-4.437333 2.3552-2.321067 0.955733-4.778667 1.467733-2.491733 0.477867-5.0176 0.477867zM580.266667 537.634133h-204.8q-2.525867 0-4.983467-0.477866-2.491733-0.512-4.8128-1.467734-2.321067-0.955733-4.437333-2.389333-2.082133-1.365333-3.857067-3.1744-1.809067-1.774933-3.208533-3.857067-1.365333-2.116267-2.3552-4.437333-0.955733-2.321067-1.467734-4.778667-0.477867-2.491733-0.477866-5.0176t0.477866-4.983466q0.512-2.491733 1.467734-4.8128 0.955733-2.321067 2.389333-4.437334 1.365333-2.082133 3.1744-3.857066 1.774933-1.809067 3.857067-3.208534 2.116267-1.365333 4.437333-2.3552 2.321067-0.955733 4.778667-1.467733 2.491733-0.477867 5.0176-0.477867h204.8q2.525867 0 4.983466 0.477867 2.491733 0.512 4.8128 1.467733 2.321067 0.955733 4.437334 2.389334 2.082133 1.365333 3.857066 3.1744 1.809067 1.774933 3.208534 3.857066 1.365333 2.116267 2.3552 4.437334 0.955733 2.321067 1.467733 4.778666 0.477867 2.491733 0.477867 5.0176t-0.477867 4.983467q-0.512 2.491733-1.467733 4.8128-0.955733 2.321067-2.389334 4.437333-1.365333 2.082133-3.1744 3.857067-1.774933 1.809067-3.857066 3.208533-2.116267 1.365333-4.437334 2.3552-2.321067 0.955733-4.778666 1.467734-2.491733 0.477867-5.0176 0.477866z" fill="#FFFFFF" /></svg>