<?xml version="1.0" standalone="no"?><!DOCTYPE svg PUBLIC "-//W3C//DTD SVG 1.1//EN" "http://www.w3.org/Graphics/SVG/1.1/DTD/svg11.dtd"><svg class="icon" width="200px" height="180.12px" viewBox="0 0 1137 1024" version="1.1" xmlns="http://www.w3.org/2000/svg"><path fill="#1296db" d="M835.072 195.925333l1.365333 61.44c19.342222 0.682667 34.474667 3.527111 52.394667 8.476445 13.767111 24.007111 31.744 67.811556 42.780444 127.089778h-93.809777v14.165333h96.540444c4.152889 27.534222 6.883556 61.44 7.566222 96.711111h-104.106666v14.165333h104.106666c0 32.426667-2.730667 64.284444-7.566222 96.711111h-96.540444v14.165334h93.070222c-11.719111 59.278222-29.582222 103.765333-43.406222 127.089778a214.186667 214.186667 0 0 1-52.394667 8.476444l-1.422222 61.44c166.229333-4.949333 297.927111-144.042667 297.927111-315.676444 0.682667-170.211556-130.332444-309.304889-296.504889-314.254223z m237.226667 307.882667h-111.047111c0-32.426667-2.787556-64.284444-7.623112-96.711111h97.28c13.084444 29.639111 19.968 63.544889 21.333334 96.711111zM911.530667 273.635556c55.864889 21.219556 102.058667 67.128889 130.332444 120.035555h-91.704889c-9.671111-53.646222-25.543111-96.028444-38.627555-120.035555z m0 475.306666c13.084444-24.007111 29.013333-66.389333 39.310222-120.035555h91.022222c-29.013333 52.224-74.524444 98.816-130.275555 120.035555z m42.097777-134.200889c4.096-27.534222 7.566222-60.700444 7.566223-96.711111h111.672889a278.072889 278.072889 0 0 1-22.016 96.711111h-97.28z m-195.868444 141.255111c17.92 4.949333 45.511111 7.793778 65.536 8.476445v-135.566222H715.093333c10.979556 59.278222 28.956444 103.082667 42.723556 127.089777z m-46.193778-141.255111h111.729778v-96.711111h-119.296c0.682667 32.426667 3.413333 64.967111 7.566222 96.711111z m-7.566222-110.876444h119.296V407.779556h-111.729778a636.586667 636.586667 0 0 0-7.566222 96.028444z m-187.562667 7.054222c0-173.681778 139.946667-314.936889 309.589334-314.936889h8.248889V0.284444L442.026667 63.146667v895.431111l391.623111 62.919111 0.682666-195.640889h-8.248888c-169.642667 0-309.589333-140.515556-309.589334-314.993778z m168.96 7.111111h-108.999111c1.365333 33.166222 8.988444 65.649778 22.072889 96.711111h94.435556a899.527111 899.527111 0 0 1-7.566223-96.711111z m28.899556-125.724444h108.999111V257.365333a326.087111 326.087111 0 0 0-65.536 9.159111c-14.506667 24.007111-31.744 67.128889-43.463111 125.724445z m-21.333333 15.530666h-95.175112a256.455111 256.455111 0 0 0-21.390222 96.711112h108.942222c0.682667-35.953778 3.413333-69.176889 7.623112-96.711112z m-84.821334 221.070223c27.591111 51.541333 72.362667 97.450667 127.544889 119.296-13.084444-24.007111-28.273778-65.649778-38.627555-119.296h-88.917334z m126.862222-354.531556c-54.499556 21.902222-99.271111 66.389333-126.862222 117.930667h88.917334c9.671111-52.963556 24.860444-93.240889 37.944888-117.930667zM146.204444 802.531556h49.607112v-49.436445h-50.346667l0.739555 49.493333z m-97.28 0h46.933334v-49.436445H48.924444v49.493333z m211.740445-77.653334l27.534222 28.216889h-44.088889v49.493333h44.088889l-24.803555 35.953778 29.013333 21.902222 73.728-86.129777-77.198222-79.075556-28.273778 29.582222zM147.569778 501.703111h-48.924445v47.331556h48.924445v-47.331556z m-146.887111 48.014222h47.559111v-47.331555H0.682667v47.331555z m239.274666-110.876444l64.853334 63.544889H193.706667v47.331555h110.990222L239.957333 613.262222l28.273778 29.013334 113.095111-115.825778-113.095111-116.565334-28.273778 29.013334z m-92.387555-187.164445H51.029333v50.176h96.540445v-50.119111z m117.191111 77.027556l28.273778 28.956444L371.655111 277.048889 293.034667 196.608l-28.273778 29.013333 30.378667 26.112H196.494222v50.062223h97.962667l-29.696 26.908444z"  /></svg>