<?xml version="1.0" standalone="no"?><!DOCTYPE svg PUBLIC "-//W3C//DTD SVG 1.1//EN" "http://www.w3.org/Graphics/SVG/1.1/DTD/svg11.dtd"><svg class="icon" width="200px" height="200.00px" viewBox="0 0 1024 1024" version="1.1" xmlns="http://www.w3.org/2000/svg"><path d="M518.419509 519.150152m-330.664595 0a330.664595 330.664595 0 1 0 661.32919 0 330.664595 330.664595 0 1 0-661.32919 0Z" fill="#FFED7F" /><path d="M518.419509 892.192032c-205.696255 0-373.03782-167.341565-373.03782-373.033762 0-205.696255 167.341565-373.04188 373.03782-373.041879 205.700314 0 373.04188 167.345624 373.04188 373.041879 0 205.692196-167.345624 373.033761-373.04188 373.033762z m0-661.325131c-158.963527 0-288.283251 129.323783-288.283251 288.28731 0 158.959468 129.319724 288.283251 288.283251 288.283251 158.955409 0 288.283251-129.319724 288.283251-288.283251S677.374918 230.866901 518.419509 230.866901z" fill="#E0D06F" /><path d="M206.524317 451.732113c-4.672055 0-9.417174-0.779352-14.072993-2.419239l-90.063907-31.70584c-22.073532-7.773228-33.670458-31.965624-25.89723-54.043216 7.769169-22.073532 31.965624-33.662339 54.043216-25.897229l90.063907 31.709899c22.073532 7.773228 33.670458 31.965624 25.89317 54.043215-6.125222 17.417713-22.491622 28.31241-39.966163 28.31241zM99.501377 639.966005c-19.999318 0-37.79453-14.215062-41.60605-34.58782-4.310793-22.994954 10.841928-45.145609 33.849059-49.452343l93.851073-17.580079c23.003072-4.314852 45.149668 10.850046 49.456402 33.849059 4.310793 23.01119-10.845987 45.145609-33.849059 49.456402L107.351729 639.231303c-2.634373 0.487095-5.264688 0.734702-7.850352 0.734702zM194.898978 838.879459a42.296102 42.296102 0 0 1-32.192936-14.795518c-15.233903-17.774917-13.179985-44.524563 4.590873-59.762525l72.487888-62.141173c17.762739-15.242021 44.520504-13.175926 59.754407 4.590872s13.179985 44.520504-4.590873 59.754407l-72.487888 62.149292a42.218979 42.218979 0 0 1-27.561471 10.204645zM376.902109 963.494655c-4.672055 0-9.417174-0.779352-14.072993-2.41924-22.073532-7.769169-33.670458-31.965624-25.897229-54.039156l31.70584-90.063908c7.769169-22.073532 31.965624-33.674517 54.047274-25.901289 22.073532 7.769169 33.670458 31.965624 25.89723 54.043216l-31.709899 90.063907c-6.129282 17.417713-22.495681 28.316469-39.970223 28.31647zM596.793131 980.3928c-19.995259 0-37.786412-14.211003-41.60605-34.58782l-17.571961-93.855132c-4.310793-23.007131 10.854105-45.145609 33.853119-49.456402 23.003072-4.286438 45.145609 10.850046 49.456402 33.861236l17.57196 93.859191c4.306734 23.003072-10.845987 45.137491-33.853118 49.452343-2.638432 0.491154-5.260628 0.726584-7.850352 0.726584zM795.795886 885.064205a42.271747 42.271747 0 0 1-32.196994-14.795518L701.445541 797.788917c-15.233903-17.770858-13.179985-44.520504 4.586813-59.754406 17.762739-15.237962 44.512385-13.184044 59.758466 4.582754l62.149292 72.483829c15.242021 17.766798 13.188103 44.516445-4.578695 59.754407a42.223038 42.223038 0 0 1-27.565531 10.208704zM920.37455 703.065132c-4.672055 0-9.425293-0.779352-14.077052-2.41518l-90.063908-31.726136c-22.073532-7.777287-33.670458-31.969683-25.897229-54.047275 7.777287-22.073532 32.010275-33.666398 54.047274-25.897229l90.063908 31.730195c22.073532 7.773228 33.670458 31.969683 25.897229 54.043215-6.133341 17.421773-22.491622 28.31241-39.970222 28.31241zM843.372912 500.681125c-20.003377 0-37.79859-14.215062-41.60605-34.587821-4.306734-23.003072 10.850046-45.145609 33.861236-49.452342l93.851073-17.567902c22.96654-4.294556 45.149668 10.845987 49.456402 33.857178 4.306734 23.003072-10.858164 45.145609-33.861236 49.452343l-93.859191 17.567901a42.702015 42.702015 0 0 1-7.842234 0.730643zM769.480567 346.328765a42.267688 42.267688 0 0 1-32.188877-14.799576c-15.246081-17.766798-13.188103-44.520504 4.590873-59.754407l72.471651-62.141174a42.377285 42.377285 0 0 1 59.762526 4.590873c15.229844 17.766798 13.175926 44.520504-4.590873 59.754407l-72.483829 62.145232a42.235215 42.235215 0 0 1-27.561471 10.204645zM628.218892 249.648481a42.377285 42.377285 0 0 1-14.064875-2.411121c-22.077591-7.773228-33.674517-31.965624-25.905348-54.043216l31.693663-90.055789c7.781346-22.073532 31.973743-33.65828 54.047274-25.905348 22.073532 7.773228 33.674517 31.969683 25.913466 54.047275l-31.709899 90.059848c-6.125222 17.413654-22.491622 28.308351-39.974281 28.308351zM457.520428 236.525324c-19.999318 0-37.790471-14.215062-41.60605-34.583761l-17.580079-93.842955c-4.310793-23.003072 10.845987-45.145609 33.849059-49.456402 23.01119-4.310793 45.145609 10.850046 49.452343 33.849059l17.580079 93.842955c4.310793 23.003072-10.841928 45.145609-33.849059 49.452343-2.634373 0.499273-5.260628 0.738761-7.846293 0.738761z" fill="#E0D06F" /><path d="M303.228956 310.490734a42.275807 42.275807 0 0 1-32.192935-14.799576l-62.145233-72.487889c-15.233903-17.766798-13.175926-44.520504 4.590873-59.754406 17.766798-15.229844 44.520504-13.175926 59.754407 4.590872l62.145232 72.487888c15.233903 17.766798 13.175926 44.520504-4.590872 59.754407a42.21492 42.21492 0 0 1-27.561472 10.208704z" fill="#E0D06F" /><path d="M395.947533 660.030269c-42.710133-43.408303-86.670477-86.771956-130.387274-129.035585 40.968768-40.335544 83.609896-82.274443 126.429625-124.753206 11.268136 11.223486 22.5931 22.495681 33.93836 33.808468-31.251218 31.141622-62.340071 62.039695-92.669867 92.272073a8598.805697 8598.805697 0 0 1 94.740022 94.537065 7757.519176 7757.519176 0 0 0-32.050866 33.171185z" fill="#FF0000" opacity=".47" /><path d="M640.396272 659.55941a7892.809875 7892.809875 0 0 0-31.880382-32.996642 8417.249069 8417.249069 0 0 1 95.052574-94.528947c-30.260791-30.094367-61.309053-60.890962-92.576507-91.983875 11.349319-11.292491 22.670224-22.540332 33.930242-33.731344 42.856262 42.417876 85.468976 84.19441 126.340324 124.282347-43.802038 42.149974-87.924748 85.485212-130.866251 128.958461z" fill="#16BD00" opacity=".47" /><path d="M509.517844 696.188971c-14.966001-3.401548-29.988829-6.892397-45.064427-10.468488 19.788244-103.426553 43.128223-207.376734 65.327588-311.132076 15.643875 3.417785 31.299927 6.855865 46.972217 10.306123-21.85028 103.48744-45.819424 207.48633-67.235378 311.294441z" fill="#005EB9" opacity=".47" /></svg>