<?xml version="1.0" standalone="no"?><!DOCTYPE svg PUBLIC "-//W3C//DTD SVG 1.1//EN" "http://www.w3.org/Graphics/SVG/1.1/DTD/svg11.dtd"><svg t="1727508572010" class="icon" viewBox="0 0 1024 1024" version="1.1" xmlns="http://www.w3.org/2000/svg" p-id="78408" data-spm-anchor-id="a313x.search_index.0.i40.23563a81JJpD7z" width="256" height="256" xmlns:xlink="http://www.w3.org/1999/xlink"><path d="M877.714286 0a109.714286 109.714286 0 0 1 109.714285 109.714286v804.571428a109.714286 109.714286 0 0 1-109.714285 109.714286H146.285714a109.714286 109.714286 0 0 1-109.714285-109.714286V109.714286a109.714286 109.714286 0 0 1 109.714285-109.714286h731.428572z m-18.285715 73.142857H164.571429a54.857143 54.857143 0 0 0-54.857143 54.857143v768a54.857143 54.857143 0 0 0 54.857143 54.857143h694.857142a54.857143 54.857143 0 0 0 54.857143-54.857143V128a54.857143 54.857143 0 0 0-54.857143-54.857143z m-171.885714 640a36.571429 36.571429 0 0 1 2.742857 73.051429L687.542857 786.285714H410.112l44.16 44.141715a36.571429 36.571429 0 0 1 2.121143 49.389714l-2.121143 2.340571a36.571429 36.571429 0 0 1-49.408 2.121143l-2.322286-2.121143-103.442285-103.442285-1.28-1.408a36.571429 36.571429 0 0 1 21.266285-64.073143L321.828571 713.142857h365.714286z m-83.035428-247.424l2.322285 2.139429 103.442286 103.442285 1.28 1.389715a36.571429 36.571429 0 0 1-21.266286 64.073143l-2.742857 0.091428h-365.714286a36.571429 36.571429 0 0 1-2.742857-73.033143l2.742857-0.109714h277.412572l-44.141714-44.141714a36.571429 36.571429 0 0 1-2.121143-49.389715l2.121143-2.322285a36.571429 36.571429 0 0 1 49.408-2.139429z m-307.931429-238.262857v135.497143l-0.073143 4.973714c-0.694857 19.492571-5.558857 34.596571-14.592 45.293714-9.801143 11.574857-24.118857 17.371429-42.953143 17.371429-6.070857 0-12.8-1.334857-20.114285-4.004571v-32l2.980571 1.536c4.882286 2.304 9.307429 3.474286 13.257143 3.474285 14.171429 0 21.266286-11.172571 21.266286-33.499428v-138.642286h40.228571z m92.891429-3.364571c12.672 0 24.868571 1.865143 36.626285 5.613714V261.485714l-4.077714-2.230857a68.937143 68.937143 0 0 0-31.433143-7.277714c-6.4 0-11.574857 1.152-15.488 3.437714-3.913143 2.304-5.888 5.302857-5.888 9.069714 0 6.326857 5.851429 11.465143 17.499429 15.36 12.507429 4.187429 21.906286 7.972571 28.196571 11.392 6.290286 3.419429 11.081143 7.917714 14.372572 13.494858 3.291429 5.577143 4.937143 12.050286 4.937142 19.382857 0 14.244571-5.705143 25.307429-17.115428 33.188571-11.428571 7.862857-26.678857 11.812571-45.750857 11.812572-14.994286 0-28.891429-2.377143-41.636572-7.131429V328.594286l4.608 2.651428c12.251429 6.637714 24.246857 9.965714 36.022857 9.965715 16.658286 0 24.996571-4.461714 24.996572-13.366858 0-6.345143-6.875429-11.629714-20.626286-15.872-17.170286-5.339429-28.946286-11.282286-35.364571-17.828571-6.418286-6.528-9.636571-15.396571-9.636572-26.550857 0-13.586286 5.504-24.228571 16.512-31.945143 10.989714-7.698286 25.417143-11.556571 43.245715-11.556571z m137.380571 0c22.235429 0 39.899429 6.4 52.992 19.2 13.074286 12.781714 19.620571 29.970286 19.620571 51.547428 0 22.674286-6.710857 40.704-20.114285 54.125714-13.421714 13.421714-31.597714 20.114286-54.491429 20.114286-22.509714 0-40.374857-6.418286-53.577143-19.309714-13.202286-12.873143-19.821714-30.390857-19.821714-52.553143 0-22.747429 6.820571-40.630857 20.443429-53.632 13.622857-12.982857 31.945143-19.492571 54.948571-19.492571z m186.496 0c30.665143 0 45.988571 18.998857 45.988571 56.996571V365.714286h-40.118857v-77.129143l-0.073143-3.620572c-0.841143-19.931429-8.868571-29.878857-24.045714-29.878857-7.68 0-14.043429 2.980571-19.126857 8.941715-5.083429 5.961143-7.625143 13.568-7.625143 22.820571V365.714286h-40.374857v-138.24h40.374857v21.997714h0.493714l2.084572-3.291429c10.002286-14.72 24.137143-22.089143 42.422857-22.089142zM525.842286 255.085714c-10.587429 0-18.816 3.620571-24.685715 10.88-5.888 7.241143-8.813714 17.499429-8.813714 30.756572 0 27.574857 11.245714 41.362286 33.755429 41.362285 21.577143 0 32.365714-14.153143 32.365714-42.496 0-27.008-10.88-40.502857-32.621714-40.502857zM276.717714 161.956571c7.003429 0 12.672 1.993143 17.005715 5.942858 4.315429 3.968 6.491429 8.941714 6.491428 14.939428 0 6.089143-2.194286 11.154286-6.619428 15.177143-4.425143 4.059429-10.057143 6.070857-16.877715 6.070857-6.765714 0-12.342857-2.048-16.749714-6.125714a19.785143 19.785143 0 0 1-6.637714-15.122286c0-6.162286 2.194286-11.190857 6.582857-15.067428 4.370286-3.876571 9.965714-5.814857 16.804571-5.814858z" fill="#ef930d" p-id="78409" data-spm-anchor-id="a313x.search_index.0.i46.23563a81JJpD7z" class=""></path></svg>