<?xml version="1.0" standalone="no"?><!DOCTYPE svg PUBLIC "-//W3C//DTD SVG 1.1//EN" "http://www.w3.org/Graphics/SVG/1.1/DTD/svg11.dtd"><svg t="1727508520120" class="icon" viewBox="0 0 1024 1024" version="1.1" xmlns="http://www.w3.org/2000/svg" p-id="77033" width="256" height="256" xmlns:xlink="http://www.w3.org/1999/xlink"><path d="M144.830099 374.344527V105.16406h-63.615165v271.356438c0 22.655703-13.183827 32.895568-29.247616 32.895568a56.959252 56.959252 0 0 1-32.191578-10.943856L0 447.495567c16.063789 10.943856 36.54352 17.53577 57.791241 17.535769 44.607415 0 87.038858-29.247616 87.038858-90.686809zM112.638522 75.340451c23.423693 0 38.783491-16.063789 38.783491-37.31151C151.422013 15.373238 136.062214 0.01344 112.638522 0.01344a36.351523 36.351523 0 0 0-37.311511 38.015501c0 21.183722 16.127788 37.31151 37.311511 37.31151zM305.339992 320.905228A147.198068 147.198068 0 0 1 216.829154 288.00966l-21.951712 44.607414c27.071645 24.127683 68.031107 36.54352 107.518589 36.543521 56.319261 0 103.870637-25.599664 103.870637-78.974964 0-93.630771-138.942176-70.975068-138.942177-114.814493 0-16.063789 14.655808-22.655703 35.135539-22.655702 22.655703 0 51.903319 8.767885 76.798992 23.423692l23.423693-46.079395a177.149675 177.149675 0 0 0-95.870742-27.839635c-52.671309 0-98.750704 24.895673-98.750704 78.974964-0.703991 92.92678 136.062214 66.623126 136.062214 114.878492 0 16.831779-16.831779 24.831674-38.783491 24.831674zM574.136464 102.220098a133.502248 133.502248 0 1 0 0 267.004496 133.502248 133.502248 0 0 0 0-267.004496z m0 212.60521a79.102962 79.102962 0 1 1 0-158.205924 79.102962 79.102962 0 0 1 0 158.205924zM888.37234 102.220098c-74.815018 0-135.678219 60.799202-135.678219 135.61422v131.326277h63.295169V237.834318a72.38305 72.38305 0 0 1 144.702101 0v131.326277H1023.98656V237.834318c0-74.751019-60.799202-135.61422-135.61422-135.61422zM401.978724 962.240811c-60.799202-34.047553-92.286789-89.662823-92.286789-162.621866V774.403276h72.127054c21.567717 0 36.287524-15.935791 21.823713-33.983554L269.820459 573.637911c-14.46381-18.111762-38.271498-18.111762-52.735308-0.063999L81.918925 741.571707c-14.527809 18.111762-3.903949 32.76757 21.695715 32.76757h68.351103v3.071959c0 105.342617 121.790402 197.053414 230.07698 198.525395 8.639887 0 11.007856-7.039908-0.063999-13.69582zM807.989395 594.885632l-6.07992-0.703991a27.327641 27.327641 0 0 0-26.367654 21.055724l-67.711111 293.500148a27.199643 27.199643 0 0 0 20.287733 32.383575l6.079921 0.703991a27.071645 27.071645 0 0 0 26.367654-20.927726l67.711111-293.500148a26.68765 26.68765 0 0 0-3.455955-20.415732 26.68765 26.68765 0 0 0-16.831779-12.095841zM885.044384 617.541335a26.68765 26.68765 0 0 0-19.135749-7.871897 27.135644 27.135644 0 0 0-19.135749 46.143394l111.870532 111.934531-111.870532 111.934531c-5.119933 5.055934-7.871897 11.903844-7.871897 19.135749a26.815648 26.815648 0 0 0 27.007646 27.071645 27.135644 27.135644 0 0 0 19.135749-7.935896l131.00628-131.07028a27.007646 27.007646 0 0 0 0-38.207498l-131.00628-131.134279zM577.208424 767.747363l111.870532-111.99853a27.071645 27.071645 0 0 0-38.271498-38.207498l-131.00628 131.070279a26.815648 26.815648 0 0 0-7.807898 19.135749c0 7.231905 2.751964 14.015816 7.871897 19.135749l131.00628 131.006281a26.815648 26.815648 0 0 0 38.271498 0.063999 27.007646 27.007646 0 0 0 0-38.207499l-111.934531-111.99853z" fill="#d4237a" p-id="77034"></path></svg>