<?xml version="1.0" standalone="no"?><!DOCTYPE svg PUBLIC "-//W3C//DTD SVG 1.1//EN" "http://www.w3.org/Graphics/SVG/1.1/DTD/svg11.dtd"><svg class="icon" width="200px" height="200.00px" viewBox="0 0 1024 1024" version="1.1" xmlns="http://www.w3.org/2000/svg"><path d="M778.158829 269.678309a5732.84735 5732.84735 0 0 0-256.133203-255.446374c-5.211577-4.870244-11.47213-7.063935-17.412163-6.119024L154.921626 63.496325c-12.358764 1.981398-21.59974 15.13522-20.808846 29.37548 14.872976 259.405008-8.570797 518.43122-69.315642 768.70348-3.350894 13.732423 6.331317 26.836293 21.787057 29.31304l689.609886 109.222504c15.451577 2.476748 29.229789-10.04852 30.574309-27.98517 17.258146-227.611057 10.993431-455.56761-18.452813-680.264846-1.115577-8.483382-4.786992-16.47974-10.156748-22.182504z" fill="#E3E3E3" /><path d="M778.158829 269.678309a5732.84735 5732.84735 0 0 0-256.133203-255.446374c-7.954732-7.430244-18.019902-8.387642-25.6-2.535024s-11.264 17.308098-9.361691 29.092422a3013.40722 3013.40722 0 0 1 31.019707 265.528195c1.153041 16.209171 12.966504 28.900943 26.582374 28.33483l223.082147-9.703025c9.956943-0.424585 18.019902-8.59161 20.284357-20.746406 2.276943-12.146472-1.677528-25.828943-9.873691-34.524618z" fill="#C4C4C4" /><path d="M710.266797 633.652033m-171.861334 0a171.861333 171.861333 0 1 0 343.722667 0 171.861333 171.861333 0 1 0-343.722667 0Z" fill="#A3D6FF" /><path d="M710.391675 848.579642c-118.018081 0-214.03265-96.014569-214.032651-214.03265s96.014569-214.03265 214.032651-214.032651 214.03265 96.014569 214.03265 214.032651-96.018732 214.03265-214.03265 214.03265z m0-365.626276c-83.589203 0-151.593626 68.004423-151.593626 151.593626s68.004423 151.593626 151.593626 151.593626 151.593626-68.004423 151.593626-151.593626-68.004423-151.593626-151.593626-151.593626z" fill="#80B5E0" /><path d="M537.960065 605.075772a31.198699 31.198699 0 0 1-10.373203-1.781593l-49.788878-17.541203a31.219512 31.219512 0 0 1 20.746406-58.892488l49.788878 17.541203a31.223675 31.223675 0 0 1-10.373203 60.674081zM478.78452 709.128325a31.227837 31.227837 0 0 1-5.711089-61.910374l51.878504-9.719675a31.219512 31.219512 0 0 1 11.497106 61.373399l-51.878504 9.719675a31.581659 31.581659 0 0 1-5.786017 0.536975zM531.537171 819.108423a31.219512 31.219512 0 0 1-20.334309-54.921366l40.081691-34.358114a31.219512 31.219512 0 0 1 40.635317 47.403707l-40.081691 34.358114a31.077984 31.077984 0 0 1-20.301008 7.517659zM632.147252 888.003642a31.152911 31.152911 0 0 1-10.364878-1.781593 31.21535 31.21535 0 0 1-19.081366-39.811122l17.528716-49.797203a31.219512 31.219512 0 0 1 58.892487 20.729756l-17.528715 49.797203a31.232 31.232 0 0 1-29.446244 20.862959zM753.703545 897.340358a31.227837 31.227837 0 0 1-30.649236-25.479285l-9.715512-51.886829a31.219512 31.219512 0 0 1 24.942309-36.43109c16.91265-3.151089 33.259187 7.992195 36.431089 24.942309l9.715512 51.88683a31.219512 31.219512 0 0 1-30.724162 36.968065zM863.733593 844.637659a31.140423 31.140423 0 0 1-23.714341-10.897692l-34.358114-40.073365a31.21535 31.21535 0 0 1 3.380033-44.019513 31.21535 31.21535 0 0 1 44.019512 3.380033l34.358114 40.073366a31.21535 31.21535 0 0 1-23.685204 51.537171zM932.616325 744.019252a31.177886 31.177886 0 0 1-10.36904-1.781593l-49.793041-17.537041a31.219512 31.219512 0 0 1 20.738081-58.892488l49.793041 17.537041a31.219512 31.219512 0 0 1-10.369041 60.674081zM890.028748 632.12852a31.227837 31.227837 0 0 1-5.706927-61.910374l51.895155-9.715512a31.236163 31.236163 0 0 1 36.431089 24.942309 31.223675 31.223675 0 0 1-24.942309 36.43109l-51.895154 9.715512a31.502569 31.502569 0 0 1-5.781854 0.536975zM849.193626 546.791024a31.219512 31.219512 0 0 1-20.334309-54.921365l40.073366-34.349789a31.219512 31.219512 0 0 1 40.635317 47.403707l-40.073366 34.349789a31.077984 31.077984 0 0 1-20.301008 7.517658zM771.090732 493.351545a31.152911 31.152911 0 0 1-10.364878-1.781594 31.21535 31.21535 0 0 1-19.081366-39.811122l17.528715-49.797203a31.219512 31.219512 0 0 1 58.892488 20.733919l-17.528715 49.797203a31.236163 31.236163 0 0 1-29.446244 20.858797zM676.712065 486.087805a31.227837 31.227837 0 0 1-30.649236-25.479285l-9.715512-51.886829a31.219512 31.219512 0 0 1 24.942309-36.431089c16.920976-3.155252 33.255024 7.992195 36.431089 24.942309l9.715513 51.886829a31.219512 31.219512 0 0 1-30.724163 36.968065zM591.42452 526.981203a31.148748 31.148748 0 0 1-23.718504-10.897691l-34.358114-40.077528a31.227837 31.227837 0 0 1 3.380033-44.023675 31.236163 31.236163 0 0 1 44.023675 3.380032l34.358114 40.077529a31.227837 31.227837 0 0 1-23.685204 51.541333z" fill="#80B5E0" /><path d="M713.093203 634.892488m-78.614894 0a78.614894 78.614894 0 1 0 157.229789 0 78.614894 78.614894 0 1 0-157.229789 0Z" fill="#80B5E0" /></svg>