<?xml version="1.0" standalone="no"?><!DOCTYPE svg PUBLIC "-//W3C//DTD SVG 1.1//EN" "http://www.w3.org/Graphics/SVG/1.1/DTD/svg11.dtd"><svg class="icon" width="200px" height="200.00px" viewBox="0 0 1024 1024" version="1.1" xmlns="http://www.w3.org/2000/svg"><path d="M135.649882 938.405647a62.644706 62.644706 0 0 1-53.308235-92.16l149.263059-261.541647a43.248941 43.248941 0 0 0 0-43.550118L154.804706 406.949647a43.610353 43.610353 0 0 1 9.396706-55.235765l307.561412-263.649882a62.704941 62.704941 0 0 1 80.293647 0l307.621647 263.649882a43.610353 43.610353 0 0 1 9.396706 55.235765l-74.932706 134.204235a43.309176 43.309176 0 0 0 0 43.550118l149.263058 261.481412a62.644706 62.644706 0 0 1-55.235764 92.16h-69.872941v-43.851294h69.872941a17.889882 17.889882 0 0 0 15.36-26.322824l-149.202824-262.144a88.124235 88.124235 0 0 1 0-87.16047l57.765647-99.508706-7.649882-3.011765a495.134118 495.134118 0 0 0-58.006588-17.588706c-30.117647-7.469176-60.476235-13.432471-91.136-17.950118l-1.626353 105.592471c0 35.84-71.68 107.700706-143.540706 107.700706S366.652235 522.24 366.652235 486.4v-106.616471c-30.479059 4.216471-60.837647 9.938824-90.834823 17.106824a505.976471 505.976471 0 0 0-57.705412 17.528471l-7.649882 3.072 59.030588 103.243294a88.124235 88.124235 0 0 1 0 87.16047l-149.504 260.216471a17.889882 17.889882 0 0 0 15.661176 26.383059h68.969412v43.911529H135.649882z m75.414589-567.657412c17.347765-6.023529 34.936471-11.264 52.826353-15.540706A1018.096941 1018.096941 0 0 1 512 326.656c83.004235-0.602353 165.767529 9.035294 246.422588 28.551529 18.793412 4.577882 37.345882 10.059294 55.536941 16.504471L523.203765 121.253647a17.227294 17.227294 0 0 0-22.588236 0L211.064471 370.748235z m155.828705 9.035294l83.727059 62.704942a19.877647 19.877647 0 0 0 27.949177-3.915295 19.576471 19.576471 0 0 0-3.915294-27.949176l-49.694118-37.225412c-19.395765 1.566118-38.791529 3.614118-58.066824 6.324706z m229.376-5.782588l-48.911058 36.623059a19.576471 19.576471 0 0 0-3.915294 27.949176 19.877647 19.877647 0 0 0 27.949176 3.915295l82.522353-61.861647a962.56 962.56 0 0 0-57.645177-6.625883z" fill="#1DBD9F" /><path d="M345.569882 648.372706a26.202353 26.202353 0 0 0-26.262588 26.503529v231.905883h-24.094118a28.611765 28.611765 0 0 0-17.950117 6.384941 22.106353 22.106353 0 0 0-5.481412 7.107765 19.456 19.456 0 0 0-1.927529 8.432941c-0.060235 2.891294 0.542118 5.722353 1.807058 8.432941 1.204706 2.650353 3.011765 5.12 5.360942 7.168a25.840941 25.840941 0 0 0 8.131764 4.818823c3.011765 1.204706 6.324706 1.807059 9.637647 1.807059h434.115765c6.806588 0 13.251765-2.349176 18.070588-6.445176a20.720941 20.720941 0 0 0 7.469177-15.661177 20.720941 20.720941 0 0 0-7.469177-15.661176 27.648 27.648 0 0 0-18.070588-6.445177h-24.335059v-231.905882a26.503529 26.503529 0 0 0-26.262588-26.503529H345.569882z m235.339294 83.184941a18.070588 18.070588 0 0 1-1.204705 25.539765l-39.936 36.141176 39.875764 36.141177a18.070588 18.070588 0 1 1-24.214588 26.74447l-42.586353-38.550588-42.526118 38.550588a18.070588 18.070588 0 0 1-24.274823-26.74447l39.875765-36.141177-39.875765-36.141176a18.070588 18.070588 0 0 1 24.274823-26.804706l42.526118 38.550588 42.586353-38.550588a18.070588 18.070588 0 0 1 25.479529 1.264941z" fill="#1DBD9F" /></svg>