<?xml version="1.0" standalone="no"?><!DOCTYPE svg PUBLIC "-//W3C//DTD SVG 1.1//EN" "http://www.w3.org/Graphics/SVG/1.1/DTD/svg11.dtd"><svg class="icon" width="200px" height="200.00px" viewBox="0 0 1024 1024" version="1.1" xmlns="http://www.w3.org/2000/svg"><path d="M535.904 170.144h-145.696L293.056 238.112l-24.288 74.144-151.776 80.32v74.176l54.656 80.32 91.04 49.44 60.736 37.056 109.28 49.44 42.496 24.704 285.344 18.56 109.28-37.088 72.832-105.056-18.208-117.376-66.784-105.056-139.648-173.024-72.832-37.056z" fill="#E00B0B" /><path d="M918.4 843.648c-18.24-6.176-36.448-6.176-60.736-6.176-36.416 0-66.784 6.176-84.992 18.56l-6.08 6.176v6.176c0 6.176 0 18.528-24.288 18.528-30.336 6.176-54.624 43.264-66.784 55.616-12.128 12.352-54.624 24.704-48.544 12.352 6.08-6.176 24.288-24.704 30.336-49.44 12.16-18.528 18.24-24.704 30.368-43.232 6.08-6.176 18.208-24.736 18.208-37.088 6.08-12.352 0-30.88 6.08-37.056 0-12.384 12.16-30.912 12.16-49.44 0-6.176-30.4 12.352-42.528 12.352-12.16 0-30.336-6.176-42.496-12.352-18.208 0-24.288 12.352-42.496 12.352-6.08 0-18.24-6.176-30.368-12.352-18.208 0-48.544 12.352-91.04 12.352-48.576 0-91.072-61.792-97.152-67.968-6.08-12.352-18.24-12.352-24.288 0-12.16 6.176-18.208 0-24.288-6.176-6.08-12.352-24.288-43.264-48.544-49.44-36.448-12.352-54.656 18.56-48.576 43.264 0 24.704 18.208 30.88 24.288 43.232 6.08 12.384 12.16 18.56 24.288 24.736 12.128 6.176 12.128 12.352 12.128 18.528 0 6.176-12.16 6.176-18.24 6.176-12.128 0-24.256 0-30.336-6.176l-24.288-24.704c-6.08-12.384-18.208-18.56-36.416-18.56-6.08 0-12.16 0-18.24 6.176-24.256 12.384-48.544 18.56-78.912 18.56H56.32C38.048 689.184 32 639.744 32 584.128 32 312.256 244.48 96 511.616 96c267.136 0 479.616 216.256 479.616 488.128 6.08 92.704-24.288 185.376-72.864 259.52z m-127.52-395.456c-6.08 18.56-12.16 37.088-42.496 55.616-6.08 0-6.08 0-6.08-6.176 12.16-18.56 12.16-24.704 18.24-30.88 6.08-12.384 6.08-24.736 0-61.792-18.24-67.968-54.656-154.496-85.024-185.376-24.256-24.704-72.832-37.088-115.328-24.704-18.24 6.176-48.576 18.528-103.232 6.176-97.12-24.736-115.328 30.88-121.408 49.408-6.08 24.736-18.24 86.528-18.24 86.528-6.048 24.704-12.128 67.968 145.728 98.88 72.864 12.32 78.944 30.88 78.944 49.408 6.08 24.704 12.128 37.056 24.256 43.264 12.16 6.176 0 12.352-12.128 12.352-30.368 6.176-145.696-30.912-212.48-67.968-54.656-37.088-54.656-67.968-42.496-92.704-84.992-6.176-145.728 6.176-157.856 49.44-18.24 67.968 145.696 185.376 339.968 247.168 200.352 61.76 406.784 18.56 431.04-111.232 6.08-55.616-42.464-98.88-121.408-117.408z m-188.192-179.2c-12.16 0-18.24 0-24.32-6.144 18.24-6.208 30.4-12.384 30.4-18.56 0-6.176-24.32-12.352-54.656-12.352h-12.16c12.16-6.176 24.32-12.352 42.528-12.352h18.208c30.336 0 54.624 12.352 54.624 30.88 0 6.176-24.288 18.56-54.624 18.56z m-121.44 55.616c-54.624 6.208-60.704 12.384-72.832 18.56-12.16 18.528-36.448-18.56-36.448-18.56-12.16 0-24.256-18.528-18.208-37.056 6.08-18.56 18.24-12.352 24.32-6.176 6.048 6.176 18.176 18.56 30.336 18.56s30.336-6.208 54.624-6.208c24.32 0 42.496 6.176 42.496 18.56 6.08 0 0 6.144-24.288 12.32z m97.152 481.984c6.08 6.176 18.24 12.352 30.368 6.176l12.128-12.352s6.08 12.352 0 18.528c0 6.176-6.08 12.352-12.16 12.352-6.08 6.176-18.208 12.352-36.416 0-12.16-6.176-12.16-6.176-24.288-6.176-12.16 0-12.16-6.176-12.16-18.56 6.08 0 24.32-6.144 42.528 0z" fill="#152935" /></svg>