<?xml version="1.0" standalone="no"?><!DOCTYPE svg PUBLIC "-//W3C//DTD SVG 1.1//EN" "http://www.w3.org/Graphics/SVG/1.1/DTD/svg11.dtd"><svg class="icon" width="200px" height="200.00px" viewBox="0 0 1024 1024" version="1.1" xmlns="http://www.w3.org/2000/svg"><path d="M520.192 220.997818a15.825455 15.825455 0 0 0-29.602909-10.938182c-13.498182 36.491636 3.165091 67.165091 19.409454 85.038546-14.894545 13.312-24.017455 30.859636-24.017454 50.129454 0 11.031273 2.978909 21.457455 8.285091 30.906182 7.074909-16.570182 43.101091-29.137455 86.434909-29.137454 43.380364 0 79.36 12.567273 86.434909 29.090909 5.306182-9.402182 8.285091-19.874909 8.285091-30.859637 0-19.223273-9.029818-36.770909-23.924364-50.129454 16.197818-17.826909 32.907636-48.500364 19.456-85.038546a15.778909 15.778909 0 1 0-29.649454 10.938182c8.704 23.552-3.863273 44.683636-17.361455 57.111273a114.269091 114.269091 0 0 0-43.240727-8.285091c-15.546182 0-30.254545 2.978909-43.194182 8.285091-13.498182-12.474182-26.018909-33.559273-17.314909-57.111273z" fill="#05BBB6" /><path d="M365.381818 340.386909a15.825455 15.825455 0 0 1 18.711273 12.194909l12.381091 58.88 61.486545 28.16c23.552-41.984 64.837818-70.935273 112.546909-74.612363l-0.372363 311.38909a139.170909 139.170909 0 0 1-93.230546-47.848727l-49.058909 35.048727-10.798545 38.493091a15.825455 15.825455 0 0 1-30.394182-8.517818l12.288-43.845818a15.825455 15.825455 0 0 1 6.050909-8.564364l53.573818-38.306909a163.607273 163.607273 0 0 1-19.874909-58.647272l-60.416 2.466909-28.858182 37.934545a15.778909 15.778909 0 1 1-25.134545-19.083636l33.373091-43.845818a15.825455 15.825455 0 0 1 11.869091-6.237091l67.723636-2.792728c0.744727-15.36 3.537455-30.208 8.052364-44.078545L376.087273 436.782545a15.825455 15.825455 0 0 1-8.843637-11.077818l-14.056727-66.653091a15.825455 15.825455 0 0 1 12.194909-18.711272zM570.507636 365.009455zM586.100364 364.683636zM586.100364 364.683636zM591.872 365.056c47.476364 3.863273 88.482909 32.768 111.941818 74.565818l61.44-28.16 12.427637-58.88a15.825455 15.825455 0 0 1 30.906181 6.516364l-14.056727 66.653091a15.825455 15.825455 0 0 1-8.843636 11.077818l-69.213091 31.697454c4.561455 13.917091 7.354182 28.718545 8.052363 44.125091l67.677091 2.792728a15.825455 15.825455 0 0 1 11.915637 6.237091l33.326545 43.845818a15.825455 15.825455 0 0 1-25.134545 19.083636l-28.858182-37.934545-60.369455-2.513455a163.607273 163.607273 0 0 1-19.968 58.833455l53.434182 38.167272a15.825455 15.825455 0 0 1 6.050909 8.564364l12.288 43.845818a15.825455 15.825455 0 0 1-30.440727 8.517818l-10.752-38.493091-48.919273-34.90909a139.077818 139.077818 0 0 1-93.090909 47.662545c-1.861818 0.139636 0.232727-311.296 0.232727-311.296z" fill="#05BBB6" /><path d="M887.296 252.602182c0-18.152727-7.447273-35.560727-20.573091-48.128l-113.338182-108.404364a66.606545 66.606545 0 0 0-46.08-18.478545H345.553455c-36.770909 0-66.606545 29.789091-66.606546 66.606545v29.789091H225.745455c-42.449455 0-76.8 34.350545-76.8 76.8V876.916364c0 42.449455 34.350545 76.846545 76.8 76.846545h475.182545a76.8 76.8 0 0 0 76.8-76.8v-40.029091h42.914909c36.770909 0 66.606545-29.789091 66.606546-66.56V252.555636zM820.596364 816.500364H345.506909a46.173091 46.173091 0 0 1-46.173091-46.173091V144.197818c0-25.506909 20.666182-46.173091 46.173091-46.173091h361.844364c9.681455 0 19.037091 3.072 26.810182 8.610909a13.777455 13.777455 0 0 0-0.139637 2.141091V170.821818c0 29.463273 23.831273 53.294545 53.248 53.294546h66.746182a13.963636 13.963636 0 0 0 2.792727-0.279273 46.173091 46.173091 0 0 1 10.007273 28.765091V770.327273a46.173091 46.173091 0 0 1-46.173091 46.173091z m-63.348364 20.48v39.936c0 31.185455-25.227636 56.413091-56.366545 56.413091H225.745455c-31.185455 0-56.366545-25.274182-56.366546-56.413091V250.786909c0-31.185455 25.227636-56.413091 56.366546-56.413091h53.154909V770.327273c0 36.770909 29.789091 66.653091 66.56 66.653091h411.834181z" fill="#05BBB6" /></svg>