<?xml version="1.0" standalone="no"?><!DOCTYPE svg PUBLIC "-//W3C//DTD SVG 1.1//EN" "http://www.w3.org/Graphics/SVG/1.1/DTD/svg11.dtd"><svg class="icon" width="200px" height="195.79px" viewBox="0 0 1046 1024" version="1.1" xmlns="http://www.w3.org/2000/svg"><path d="M345.575565 343.177246m-240.328793 0a240.328793 240.328793 0 1 0 480.657587 0 240.328793 240.328793 0 1 0-480.657587 0Z" fill="#FFED7F" /><path d="M345.575565 614.306367c-149.500682 0-271.129121-121.628439-271.129121-271.129121s121.628439-271.129121 271.129121-271.12912c149.500682 0 271.129121 121.628439 271.129121 271.12912s-121.624332 271.129121-271.129121 271.129121z m0-480.657587c-115.534081 0-209.528466 93.994385-209.528466 209.528466s93.994385 209.528466 209.528466 209.528466 209.528466-93.994385 209.528466-209.528466c0.004107-115.534081-93.990279-209.528466-209.528466-209.528466z" fill="#E0D06F" /><path d="M118.889263 294.175979a30.75926 30.75926 0 0 1-10.229815-1.757672L43.202592 269.375555a30.800327 30.800327 0 0 1-18.821053-39.280684 30.800327 30.800327 0 0 1 39.280684-18.821053l65.456856 23.042752a30.800327 30.800327 0 0 1 18.821053 39.280684 30.816754 30.816754 0 0 1-29.050869 20.578725zM41.104063 430.986926a30.808541 30.808541 0 0 1-5.634406-61.079102l68.212458-12.775976a30.788007 30.788007 0 0 1 35.941929 24.603301 30.792114 30.792114 0 0 1-24.603302 35.941929l-68.212458 12.775976a31.087797 31.087797 0 0 1-5.704221 0.533872zM110.44176 575.559555a30.800327 30.800327 0 0 1-20.06128-54.183935l52.684987-45.1656a30.792114 30.792114 0 0 1 43.428461 3.334648 30.800327 30.800327 0 0 1-3.334649 43.428462l-52.684986 45.169707a30.685339 30.685339 0 0 1-20.032533 7.416718zM242.723006 666.128944a30.75926 30.75926 0 0 1-10.229816-1.757672 30.792114 30.792114 0 0 1-18.821053-39.276577l23.042751-65.456856a30.800327 30.800327 0 1 1 58.101738 20.451418l-23.042752 65.456855a30.812647 30.812647 0 0 1-29.050868 20.582832zM402.54385 678.416222a30.816754 30.816754 0 0 1-30.241814-25.137174l-12.771869-68.216565a30.800327 30.800327 0 0 1 60.549336-11.33452l12.771869 68.216564a30.800327 30.800327 0 0 1-30.307522 36.471695zM547.173974 609.123699a30.730513 30.730513 0 0 1-23.395929-10.751368l-45.173813-52.68088a30.800327 30.800327 0 0 1 3.334649-43.428461 30.800327 30.800327 0 0 1 43.428461 3.334649l45.173813 52.680879a30.800327 30.800327 0 0 1-23.367181 50.845181zM637.722829 476.84656a30.738727 30.738727 0 0 1-10.229815-1.757672l-65.456856-23.055072a30.800327 30.800327 0 0 1 20.459631-58.105844l65.456855 23.055072a30.800327 30.800327 0 0 1-10.229815 59.863516zM581.756581 329.75241a30.808541 30.808541 0 0 1-5.6303-61.083209l68.216565-12.767762c16.689671-3.1211 32.812615 7.884884 35.941929 24.607408a30.800327 30.800327 0 0 1-24.607408 35.941929l-68.216565 12.767762c-1.913727 0.361391-3.823347 0.533872-5.704221 0.533872zM528.053131 217.565298a30.726406 30.726406 0 0 1-23.400036-10.755474 30.800327 30.800327 0 0 1 3.334649-43.428461l52.68088-45.1656a30.800327 30.800327 0 0 1 40.097919 46.76311l-52.68088 45.1656a30.652486 30.652486 0 0 1-20.032532 7.420825zM425.385373 147.299485a30.800327 30.800327 0 0 1-29.050869-41.034249l23.038645-65.452749a30.800327 30.800327 0 0 1 58.105844 20.455524l-23.038645 65.452749a30.816754 30.816754 0 0 1-29.054975 20.578725zM301.317548 137.759597a30.808541 30.808541 0 0 1-30.237708-25.137174l-12.775976-68.204244a30.792114 30.792114 0 0 1 24.603302-35.941929 30.792114 30.792114 0 0 1 35.941928 24.603301l12.775976 68.204245a30.792114 30.792114 0 0 1-30.307522 36.475801zM189.17561 191.516435a30.714086 30.714086 0 0 1-23.395929-10.755474L120.614082 128.080081a30.800327 30.800327 0 0 1 46.76311-40.093813l45.1656 52.684987a30.800327 30.800327 0 0 1-23.367182 50.84518z" fill="#E0D06F" /><path d="M781.847827 759.503216m-176.374994 0a176.374994 176.374994 0 1 0 352.749988 0 176.374994 176.374994 0 1 0-352.749988 0Z" fill="#5FEAFF" /><path d="M345.575565 343.177246m-46.372973 0a46.372973 46.372973 0 1 0 92.745946 0 46.372973 46.372973 0 1 0-92.745946 0Z" fill="#B3A659" /><path d="M781.847827 759.507323m-46.372973 0a46.372973 46.372973 0 1 0 92.745946 0 46.372973 46.372973 0 1 0-92.745946 0Z" opacity=".4" /></svg>