<?xml version="1.0" standalone="no"?><!DOCTYPE svg PUBLIC "-//W3C//DTD SVG 1.1//EN" "http://www.w3.org/Graphics/SVG/1.1/DTD/svg11.dtd"><svg t="1727508416150" class="icon" viewBox="0 0 1024 1024" version="1.1" xmlns="http://www.w3.org/2000/svg" p-id="69435" width="256" height="256" xmlns:xlink="http://www.w3.org/1999/xlink"><path d="M22.801067 15.633067m143.36 0l669.013333 0q143.36 0 143.36 143.36l0 669.013333q0 143.36-143.36 143.36l-669.013333 0q-143.36 0-143.36-143.36l0-669.013333q0-143.36 143.36-143.36Z" fill="#FEBE56" p-id="69436"></path><path d="M537.873067 750.3872c72.0896 0 129.024-25.6 173.806933-71.338667l-47.104-49.152c-33.3824 32.290133-72.840533 52.497067-123.6992 52.497067-98.645333 0-160.904533-72.0896-160.904533-189.917867 0-116.462933 66.833067-187.869867 163.157333-187.869866 45.602133 0 80.554667 18.158933 109.3632 44.4416l47.786667-49.834667c-34.133333-32.9728-88.746667-62.600533-158.651734-62.600533-141.175467 0-251.904 96.938667-251.904 258.594133 0 162.269867 107.7248 255.1808 248.149334 255.1808z" fill="#FFFFFF" p-id="69437"></path></svg>