<?xml version="1.0" standalone="no"?><!DOCTYPE svg PUBLIC "-//W3C//DTD SVG 1.1//EN" "http://www.w3.org/Graphics/SVG/1.1/DTD/svg11.dtd"><svg class="icon" width="200px" height="168.14px" viewBox="0 0 1218 1024" version="1.1" xmlns="http://www.w3.org/2000/svg"><path d="M1025.46563 35.505137c-274.364057-19.412322-548.728114-19.412322-823.097023 0-66.492057 5.008379-130.620664 66.341611-139.97255 134.998143C28.050806 435.520303 23.459791 700.54218 48.63272 965.554351a6114.003109 6114.003109 0 0 0 1130.568797 0c25.172929-265.012171 20.577062-530.034047-13.76819-795.051071-9.351886-68.656531-73.485346-129.989763-139.967697-134.998143z" fill="#4A4A4A" /><path d="M263.206825 693.165498c-18.325232-18.160227-36.601934-36.247659-54.79128-54.228323a19803.7669 19803.7669 0 0 0 83.5749-80.163184 67578.938237 67578.938237 0 0 1-81.323071-81.332778A13180.09327 13180.09327 0 0 0 266.434123 424.052474a36906.595488 36906.595488 0 0 0 134.444891 135.29418 26314.68891 26314.68891 0 0 1-137.672189 133.818844zM719.566256 693.864341c-79.823469 0.514427-159.646938 0.451336-239.465555-0.208682-0.087355-25.541763-0.116474-51.083526-0.087355-76.620436 79.872 0.397953 159.744 0.44163 239.616 0.12618 0.024265 25.566028 0 51.132057-0.06309 76.702938z" fill="#DBDBDB" /><path d="M1024.89782 30.97236a5751.958445 5751.958445 0 0 0-821.961403 0c-66.394995 5.05691-130.518749 66.438673-139.962844 135.095204a3605.183697 3605.183697 0 0 0-15.811336 142.874692 15690.980095 15690.980095 0 0 1 1133.50491 0 3607.241403 3607.241403 0 0 0-15.81619-142.874692c-9.439242-68.656531-73.562995-130.038294-139.953137-135.095204z" fill="#94E2FF" /></svg>