<?xml version="1.0" standalone="no"?><!DOCTYPE svg PUBLIC "-//W3C//DTD SVG 1.1//EN" "http://www.w3.org/Graphics/SVG/1.1/DTD/svg11.dtd"><svg class="icon" width="200px" height="200.00px" viewBox="0 0 1024 1024" version="1.1" xmlns="http://www.w3.org/2000/svg"><path d="M297.748453 1.067304A225.253651 225.253651 0 0 0 51.708572 248.119696v528.351437c0 158.547123 90.530288 247.528867 246.039881 247.528867h428.827681c158.011088 0 245.980322-88.981744 245.980322-247.528867V248.119696C972.318218 92.133627 884.348984 1.067304 726.397455 1.067304z" fill="#67C23A" /><path d="M272.971743 765.690882a40.798189 40.798189 0 0 1 0-42.942327 40.143036 40.143036 0 0 1 38.415813-18.93989h401.132559a40.381273 40.381273 0 0 1 0 80.286072H311.506675a37.403303 37.403303 0 0 1-5.00299 0.357356 40.083476 40.083476 0 0 1-33.531942-18.761211z m38.534932-215.307231a39.904798 39.904798 0 0 1 0-79.869155h401.01344a39.904798 39.904798 0 0 1 0 79.869155z m0-231.209591a39.904798 39.904798 0 1 1 0-79.750037v-0.536034h152.88898a40.143036 40.143036 0 0 1 0 80.286071z" fill="#FFFFFF" /></svg>