<?xml version="1.0" standalone="no"?><!DOCTYPE svg PUBLIC "-//W3C//DTD SVG 1.1//EN" "http://www.w3.org/Graphics/SVG/1.1/DTD/svg11.dtd"><svg class="icon" width="256px" height="256.00px" viewBox="0 0 1024 1024" version="1.1" xmlns="http://www.w3.org/2000/svg"><path d="M909.610667 860.010667l-33.92 33.941333-110.570667-84.970667a142.848 142.848 0 0 1-95.509333 36.949334 144 144 0 1 1 144-144c0 25.6-7.253333 49.28-18.922667 70.08l114.922667 88z m-239.978667-254.08a96 96 0 1 0-4.373333 191.936 96 96 0 0 0 4.373333-191.936z m-74.474667-383.253334l121.792 143.253334-121.792 143.210666-21.568-25.344 100.266667-117.866666-100.266667-117.888 21.568-25.365334zM237.632 749.930667v-48.021334h144v48.021334h-144z m196.821333-96h-196.842666v-48h212.245333a239.253333 239.253333 0 0 0-15.402667 48z m-52.821333-152.256l-135.744-135.722667 135.744-135.744 24 24-111.765333 111.744 111.765333 111.722667-24 24z m384-279.744a48.021333 48.021333 0 0 0-48.021333-48.021334H237.632a48 48 0 0 0-48.021333 48.021334v576a48 48 0 0 0 48.021333 47.978666H478.72a240.277333 240.277333 0 0 0 48.213333 48.021334H237.632a96.021333 96.021333 0 0 1-96.021333-96v-576c0-53.013333 43.008-96 96.021333-96h479.978667a96.021333 96.021333 0 0 1 96.021333 96v289.088a238.72 238.72 0 0 0-48-28.842667V221.930667z m0 0" fill="#1875F0" /></svg>