<?xml version="1.0" standalone="no"?><!DOCTYPE svg PUBLIC "-//W3C//DTD SVG 1.1//EN" "http://www.w3.org/Graphics/SVG/1.1/DTD/svg11.dtd"><svg class="icon" width="200px" height="200.00px" viewBox="0 0 1024 1024" version="1.1" xmlns="http://www.w3.org/2000/svg"><path d="M219.935355 0.000524h585.423516a146.3231 146.3231 0 0 1 146.191986 146.191987v585.423516h-878.463058V146.192511A146.454214 146.454214 0 0 1 219.935355 0.000524z" fill="#FB6321" opacity=".3" /><path d="M54.731854 396.62004l439.887099 251.083098a35.531864 35.531864 0 0 0 36.05632 0l438.575959-251.083098a36.449661 36.449661 0 0 1 49.823278 13.766958 34.745181 34.745181 0 0 1 4.588986 18.355945v449.06507a146.3231 146.3231 0 0 1-146.191986 146.191987H146.511577A146.3231 146.3231 0 0 1 0.31959 877.808013V428.742943a36.646332 36.646332 0 0 1 36.711889-36.711889 41.759774 41.759774 0 0 1 17.700375 4.588986z" fill="#FC703E" /><path d="M745.702051 229.449831H238.946869a33.565156 33.565156 0 0 1-33.434042-33.434042 33.565156 33.565156 0 0 1 33.434042-33.434042h506.099613a33.565156 33.565156 0 0 1 33.434041 33.434042 32.778472 32.778472 0 0 1-32.778472 33.434042zM550.997925 399.242317H238.946869a33.565156 33.565156 0 0 1-33.434042-33.434041 33.565156 33.565156 0 0 1 33.434042-33.434042H550.997925a33.565156 33.565156 0 0 1 33.434042 33.434042 33.171814 33.171814 0 0 1-33.434042 33.434041z" fill="#FFFFFF" /></svg>