<?xml version="1.0" standalone="no"?><!DOCTYPE svg PUBLIC "-//W3C//DTD SVG 1.1//EN" "http://www.w3.org/Graphics/SVG/1.1/DTD/svg11.dtd"><svg class="icon" width="200px" height="200.00px" viewBox="0 0 1024 1024" version="1.1" xmlns="http://www.w3.org/2000/svg"><path d="M512 30.208C245.76 30.208 30.208 245.76 30.208 512c0 266.24 215.552 481.792 481.792 481.792 266.24 0 481.792-215.552 481.792-481.792 0-266.24-215.552-481.792-481.792-481.792z m38.4 290.304c0-10.752 8.704-18.944 18.944-18.944h38.4c10.752 0 18.944 8.704 18.944 18.944v76.8c0 10.752-8.704 18.944-18.944 18.944h-38.4c-10.752 0-18.944-8.704-18.944-18.944v-76.8z m0 172.544c0-10.752 8.704-18.944 18.944-18.944h38.4c10.752 0 18.944 8.704 18.944 18.944v76.8c0 10.752-8.704 18.944-18.944 18.944h-38.4c-10.752 0-18.944-8.704-18.944-18.944v-76.8zM397.312 320.512c0-10.752 8.704-18.944 18.944-18.944h38.4c10.752 0 18.944 8.704 18.944 18.944v76.8c0 10.752-8.704 18.944-18.944 18.944h-38.4c-10.752 0-18.944-8.704-18.944-18.944v-76.8z m0 172.544c0-10.752 8.704-18.944 18.944-18.944h38.4c10.752 0 18.944 8.704 18.944 18.944v76.8c0 10.752-8.704 18.944-18.944 18.944h-38.4c-10.752 0-18.944-8.704-18.944-18.944v-76.8z m-153.6-172.544c0-10.752 8.704-18.944 18.944-18.944h38.4c10.752 0 18.944 8.704 18.944 18.944v76.8c0 10.752-8.704 18.944-18.944 18.944h-38.4c-10.752 0-18.944-8.704-18.944-18.944v-76.8z m0 248.832v-76.8c0-10.752 8.704-18.944 18.944-18.944h38.4c10.752 0 18.944 8.704 18.944 18.944v76.8c0 10.752-8.704 18.944-18.944 18.944h-38.4c-10.24 0.512-18.944-8.192-18.944-18.944z m498.176 115.2v18.944c0 10.752-8.704 18.944-18.944 18.944H301.568c-10.752 0-18.944-8.704-18.944-18.944v-18.944c0-10.752 8.704-18.944 18.944-18.944h421.376c10.24-0.512 18.944 8.192 18.944 18.944z m38.4-115.2c0 10.752-8.704 18.944-18.944 18.944h-38.4c-10.752 0-18.944-8.704-18.944-18.944v-76.8c0-10.752 8.704-18.944 18.944-18.944h38.4c10.752 0 18.944 8.704 18.944 18.944v76.8z m0-172.032c0 10.752-8.704 18.944-18.944 18.944h-38.4c-10.752 0-18.944-8.704-18.944-18.944v-76.8c0-10.752 8.704-18.944 18.944-18.944h38.4c10.752 0 18.944 8.704 18.944 18.944v76.8z" fill="#30ba78" /></svg>