<?xml version="1.0" standalone="no"?><!DOCTYPE svg PUBLIC "-//W3C//DTD SVG 1.1//EN" "http://www.w3.org/Graphics/SVG/1.1/DTD/svg11.dtd"><svg t="1727508496114" class="icon" viewBox="0 0 1024 1024" version="1.1" xmlns="http://www.w3.org/2000/svg" p-id="76781" width="256" height="256" xmlns:xlink="http://www.w3.org/1999/xlink"><path d="M64 800v-576A96 96 0 0 1 160 128h704A96 96 0 0 1 960 224v576a96 96 0 0 1-96 96h-704A96 96 0 0 1 64 800z" fill="#FA8857" fill-opacity=".4" p-id="76782"></path><path d="M32 224v576q0 52.992 37.504 90.496T160 928h704q52.992 0 90.496-37.504T992 800v-576q0-52.992-37.504-90.496T864 96h-704q-52.992 0-90.496 37.504T32 224z m82.752 621.248Q96 826.496 96 800v-576q0-26.496 18.752-45.248T160 160h704q26.496 0 45.248 18.752t18.752 45.248v576q0 26.496-18.752 45.248t-45.248 18.752h-704q-26.496 0-45.248-18.752z" fill="#FA8857" p-id="76783"></path><path d="M434.432 549.568H192V474.432h242.432v75.136z" fill="#FA8857" p-id="76784"></path><path d="M494.016 512L371.328 638.72l-51.456-53.12L391.168 512 319.872 438.4l51.456-53.12L494.016 512z" fill="#FA8857" p-id="76785"></path><path d="M510.208 256.64c13.632-20.032 37.12-32.64 69.696-32.64v75.136a33.856 33.856 0 0 0-9.344 1.024v161.728c0 15.168-5.248 28.032-10.368 37.248-3.2 5.76-6.912 10.88-10.56 15.424 3.968 5.632 8 12.16 11.456 19.072 4.48 9.152 9.472 22.08 9.472 36.8v153.344a33.856 33.856 0 0 0 9.344 1.088v75.072c-32.64 0-56.064-12.608-69.696-32.576a71.872 71.872 0 0 1-12.352-37.376v-0.512-0.256-0.064-0.064l36.352-0.064h-36.352V571.456a23.68 23.68 0 0 0-1.536-3.648 81.728 81.728 0 0 0-8.192-12.736 154.752 154.752 0 0 0-12.864-14.656l-0.768-0.704-0.064-0.064V539.52l-33.536-31.808 37.44-26.624 0.64-0.512a87.488 87.488 0 0 0 18.24-19.2 15.872 15.872 0 0 0 0.64-1.152V295.04h36.352l-36.352-0.064v-0.064-0.128-0.192-0.512a53.568 53.568 0 0 1 0.256-4.288 71.872 71.872 0 0 1 12.16-33.152zM762.688 767.36c-13.696 20.032-37.12 32.64-69.696 32.64v-75.136c4.736 0 7.68-0.576 9.344-1.024V562.112c0-15.168 5.184-28.032 10.368-37.248 3.2-5.76 6.912-10.88 10.56-15.424a145.664 145.664 0 0 1-11.52-19.072 83.84 83.84 0 0 1-9.408-36.8V300.224a33.856 33.856 0 0 0-9.344-1.088V224.064c32.576 0 56 12.608 69.696 32.576a71.872 71.872 0 0 1 12.352 37.376V294.912l-36.352 0.064h36.352v157.568a23.68 23.68 0 0 0 1.472 3.648c1.92 3.712 4.736 8.064 8.32 12.736a154.752 154.752 0 0 0 12.8 14.656l0.704 0.704 0.128 0.064v0.064l33.472 31.808-37.376 26.624-0.64 0.512a87.488 87.488 0 0 0-18.304 19.2 15.872 15.872 0 0 0-0.576 1.152v165.312h-36.352l36.352 0.064v0.896a53.568 53.568 0 0 1-0.256 4.288 71.872 71.872 0 0 1-12.16 33.152z" fill="#FA8857" p-id="76786"></path></svg>