<?xml version="1.0" standalone="no"?><!DOCTYPE svg PUBLIC "-//W3C//DTD SVG 1.1//EN" "http://www.w3.org/Graphics/SVG/1.1/DTD/svg11.dtd"><svg class="icon" width="256px" height="256.00px" viewBox="0 0 1024 1024" version="1.1" xmlns="http://www.w3.org/2000/svg"><path d="M128 127.872C472.32 127.872 526.208 0 526.208 0s52.48 127.872 398.208 127.872v524.416c0 207.36-398.208 371.712-398.208 371.712S128 859.648 128 652.288V127.872z" fill="#F5222D" /><path d="M355.008 360.96l35.2-35.84a590.848 590.848 0 0 0-84.16-75.648l-35.2 32.96c35.84 28.48 63.68 54.656 84.16 78.528z m38.656 410.176c40.96-81.344 62.016-178.624 62.592-292.416V395.072h296.384V260.288H406.784V478.72c-0.64 104.704-18.24 189.44-53.504 255.424l40.384 36.992z m309.504-420.992H456.256v-43.2h246.912v43.2zM335.616 499.84l36.48-36.416A681.408 681.408 0 0 0 286.08 388.288l-35.84 33.536c36.416 27.904 64.832 54.08 85.312 77.952z m178.112 263.936V554.944h75.648v58.048a337.088 337.088 0 0 0-45.504-43.84l-25.024 23.936c20.48 15.936 35.84 31.296 47.168 45.44l23.36-23.296v144.512h45.504v-204.8h80.768v152.448c0 10.24-4.48 16-13.632 16l-39.808-1.216 10.816 40.448h45.44c27.904 0 42.112-14.272 42.112-42.112V512.256H634.88v-34.688h129.728v-46.08H468.736v46.08H589.44v34.688H469.888v251.52h43.84z m-209.92-2.24c22.72-62.592 43.2-129.728 62.016-200.32l-46.72-18.688a1914.944 1914.944 0 0 1-64.256 197.952l48.96 21.056z m386.24-125.76l24.448-23.872a350.4 350.4 0 0 0-47.744-42.112l-24.448 23.936c19.84 14.72 35.84 28.992 47.744 42.048z m-3.968 72.32l24.448-23.936a315.584 315.584 0 0 0-46.08-44.928L640 663.04c19.328 15.936 34.688 31.296 46.08 44.928z m-122.304 7.936l24.448-24.512a310.208 310.208 0 0 0-44.928-46.08l-25.024 23.936c19.328 16.512 34.688 31.872 45.44 46.656z" fill="#FFFFFF" /></svg>