<?xml version="1.0" standalone="no"?><!DOCTYPE svg PUBLIC "-//W3C//DTD SVG 1.1//EN" "http://www.w3.org/Graphics/SVG/1.1/DTD/svg11.dtd"><svg class="icon" width="200px" height="200.00px" viewBox="0 0 1024 1024" version="1.1" xmlns="http://www.w3.org/2000/svg"><path fill="#1296db" d="M810.666667 362.666667h-106.666667V298.666667a21.333333 21.333333 0 0 0-21.333333-21.333334h-106.666667V256a21.333333 21.333333 0 0 0-21.333333-21.333333h-85.333334a21.333333 21.333333 0 0 0-21.333333 21.333333v21.333333H341.333333a21.333333 21.333333 0 0 0-21.333333 21.333334v64H213.333333a21.333333 21.333333 0 0 0-21.333333 21.333333v341.333333a21.333333 21.333333 0 0 0 21.333333 21.333334h106.666667V640a21.333333 21.333333 0 0 1 42.666667 0v106.666667h42.666666V640a21.333333 21.333333 0 0 1 42.666667 0v106.666667h42.666667V640a21.333333 21.333333 0 0 1 42.666666 0v106.666667h42.666667V640a21.333333 21.333333 0 0 1 42.666667 0v106.666667h42.666666V640a21.333333 21.333333 0 0 1 42.666667 0v106.666667H810.666667a21.333333 21.333333 0 0 0 21.333333-21.333334V384a21.333333 21.333333 0 0 0-21.333333-21.333333zM896 21.333333H128A106.794667 106.794667 0 0 0 21.333333 128v768c0 58.794667 47.872 106.666667 106.666667 106.666667h768c58.794667 0 106.666667-47.872 106.666667-106.666667V128c0-58.794667-47.872-106.666667-106.666667-106.666667z m-768 85.333334a21.333333 21.333333 0 1 1 0 42.666666 21.333333 21.333333 0 0 1 0-42.666666z m0 810.666666a21.333333 21.333333 0 1 1 0-42.666666 21.333333 21.333333 0 0 1 0 42.666666z m682.666667-128H213.333333c-35.285333 0-64-28.714667-64-64V384c0-35.285333 28.714667-64 64-64h42.666667a21.333333 21.333333 0 0 0 21.333333-21.333333c0-35.285333 28.714667-64 64-64h54.101334a21.333333 21.333333 0 0 0 18.474666-10.666667c11.392-19.712 32.64-32 55.424-32h85.333334c22.784 0 44.032 12.288 55.466666 32a21.333333 21.333333 0 0 0 18.474667 10.666667H682.666667c35.285333 0 64 28.714667 64 64a21.333333 21.333333 0 0 0 21.333333 21.333333h42.666667c35.285333 0 64 28.714667 64 64v341.333333c0 35.285333-28.714667 64-64 64z m85.333333 128a21.333333 21.333333 0 1 1 0-42.666666 21.333333 21.333333 0 0 1 0 42.666666z m0-768a21.333333 21.333333 0 1 1 0-42.666666 21.333333 21.333333 0 0 1 0 42.666666z" /></svg>