<?xml version="1.0" standalone="no"?><!DOCTYPE svg PUBLIC "-//W3C//DTD SVG 1.1//EN" "http://www.w3.org/Graphics/SVG/1.1/DTD/svg11.dtd"><svg class="icon" width="200px" height="200.00px" viewBox="0 0 1024 1024" version="1.1" xmlns="http://www.w3.org/2000/svg"><path d="M513.6 440.8c240 0 432.8-80.8 432.8-180 0-18.4-5.6-34.4-18.4-50.4-5.6-7.2-11.2-13.6-16-19.2-3.2-4-7.2-7.2-11.2-9.6-4-4-9.6-7.2-15.2-11.2-4-1.6-7.2-5.6-11.2-7.2-7.2-5.6-16-9.6-23.2-15.2-16-9.6-36-16-56-24.8-20.8-8-43.2-15.2-64.8-19.2-15.2-4-30.4-7.2-46.4-11.2-42.4-8-84.8-12.8-128-15.2-15.2 1.6-28.8 1.6-44 1.6s-28.8 0-45.6 1.6c-45.6 1.6-88.8 7.2-128.8 15.2-16 4-32 5.6-46.4 9.6-20.8 5.6-44 11.2-63.2 18.4-19.2 8-36 15.2-52 20.8-5.6 4-13.6 7.2-18.4 11.2-18.4 11.2-32.8 20.8-45.6 34.4-9.6 9.6-16 18.4-20.8 26.4-8.8 13.6-13.6 28-12.8 44 1.6 99.2 194.4 180 435.2 180z" fill="#92E7F4" /><path d="M513.6 512.8c-169.6 0-339.2-40-432.8-115.2V512.8c0 99.2 193.6 180 432.8 180 240 0 432.8-80.8 432.8-180v-115.2c-94.4 75.2-264 115.2-432.8 115.2z m-308 72c-19.2 0-36-16-36-36s16-36 36-36c19.2 0 36 16 36 36 0.8 19.2-16 36-36 36z" fill="#03B8D6" /><path d="M513.6 764.8c-169.6 0-339.2-40-432.8-115.2v134.4h1.6c20.8 92 205.6 162.4 431.2 162.4s410.4-70.4 431.2-162.4h1.6V648.8c-94.4 76.8-264 116-432.8 116z m-308 72.8c-19.2 0-36-16-36-36 0-19.2 16-36 36-36 19.2 0 36 16 36 36 0.8 20-16 36-36 36z" fill="#03B8D6" /></svg>