<?xml version="1.0" standalone="no"?><!DOCTYPE svg PUBLIC "-//W3C//DTD SVG 1.1//EN" "http://www.w3.org/Graphics/SVG/1.1/DTD/svg11.dtd"><svg class="icon" width="200px" height="200.00px" viewBox="0 0 1024 1024" version="1.1" xmlns="http://www.w3.org/2000/svg"><path d="M512 512m-512 0a512 512 0 1 0 1024 0 512 512 0 1 0-1024 0Z" fill="#EF2E3A" /><path d="M398.628571 570.660571a139.958857 139.958857 0 0 0-7.68-55.021714 58.185143 58.185143 0 0 0-30.72-26.843428 133.997714 133.997714 0 0 0-56.137142-10.660572 123.867429 123.867429 0 0 0-51.565715 9.746286 64.292571 64.292571 0 0 0-30.902857 27.062857 118.016 118.016 0 0 0-9.508571 54.710857 113.481143 113.481143 0 0 0 6.765714 42.660572 68.498286 68.498286 0 0 0 17.005714 26.148571 375.716571 375.716571 0 0 0 41.691429 30.372571 242.194286 242.194286 0 0 1 39.68 29.568 60.598857 60.598857 0 0 1 7.862857 37.632 38.016 38.016 0 0 1-4.022857 19.712 13.824 13.824 0 0 1-12.617143 6.637715 13.184 13.184 0 0 1-11.885714-5.229715 52.589714 52.589714 0 0 1-3.291429-23.533714v-39.643428h-78.628571v21.339428a168.466286 168.466286 0 0 0 7.497143 56.521143 62.701714 62.701714 0 0 0 31.451428 32.786286 121.161143 121.161143 0 0 0 57.965714 12.891428 124.434286 124.434286 0 0 0 54.308572-11.172571 63.689143 63.689143 0 0 0 31.634286-27.666286 124.068571 124.068571 0 0 0 8.045714-51.291428 127.250286 127.250286 0 0 0-14.628572-69.485715 243.876571 243.876571 0 0 0-71.314285-55.094857 64.950857 64.950857 0 0 1-23.954286-19.913143 53.796571 53.796571 0 0 1-4.388571-24.557714 34.944 34.944 0 0 1 4.022857-18.925714 12.653714 12.653714 0 0 1 11.52-6.235429 10.971429 10.971429 0 0 1 10.057143 4.626286 47.780571 47.780571 0 0 1 2.925714 21.522286v24.155428h78.811428v-12.8z m199.131429 240a37.723429 37.723429 0 0 1-18.651429-2.816 18.395429 18.395429 0 0 1-4.571428-13.769142 85.577143 85.577143 0 0 0 32-13.988572 44.891429 44.891429 0 0 0 16.091428-24.630857 259.931429 259.931429 0 0 0 4.205715-58.916571v-105.782858a254.555429 254.555429 0 0 0-3.291429-47.542857 75.940571 75.940571 0 0 0-47.36-55.405714 127.012571 127.012571 0 0 0-50.651428-9.654857 113.773714 113.773714 0 0 0-42.971429 7.844571 75.446857 75.446857 0 0 0-31.451429 23.222857 82.029714 82.029714 0 0 0-16.274285 32.804572 250.806857 250.806857 0 0 0-3.84 50.596571v100.772572a246.125714 246.125714 0 0 0 6.582857 65.828571 66.377143 66.377143 0 0 0 27.428571 36.315429 88.832 88.832 0 0 0 49.371429 15.085714 66.450286 66.450286 0 0 0 3.291428 25.270857 22.473143 22.473143 0 0 0 12.8 10.587429 103.387429 103.387429 0 0 0 32.731429 3.657143h63.817143v-39.442286h-29.257143z m-55.588571-92.324571a159.670857 159.670857 0 0 1-2.377143 36.406857 10.477714 10.477714 0 0 1-11.154286 7.643429 9.947429 9.947429 0 0 1-10.605714-6.637715 142.262857 142.262857 0 0 1-2.377143-34.998857V568.685714a72.448 72.448 0 0 1 3.474286-30.262857 11.794286 11.794286 0 0 1 10.24-5.138286 9.929143 9.929143 0 0 1 10.24 6.345143 94.884571 94.884571 0 0 1 2.56 29.056v149.686857z m121.234285-233.362286v325.686857h136.228572v-65.170285h-51.382857V484.973714h-84.845715zM408.868571 394.368l4.388572 6.619429 2.194286 0.64 2.377142-0.438858 2.194286-1.060571 2.194286-1.499429 2.377143-3.2 1.828571-4.918857 2.377143-7.460571 2.742857-12.178286 1.645714-5.76 0.914286-4.918857 0.731429-3.401143 0.365714-1.92-0.365714-2.358857-0.365715-2.340571-0.548571-1.499429-0.548571-0.64-1.462858-1.28-1.828571-2.139429-1.645714-2.139428-1.097143-1.481143v-0.219429l-0.182857-0.420571h-0.731429l-0.182857-0.438857h-0.182857l-0.182857-0.64v-0.420572l-0.365715 0.420572-1.097142 1.718857-1.828572 3.2-1.645714 4.059429-4.754286 10.88v-19.218286l0.548572-11.958857 1.097142-16 1.645715-20.937143 1.28-18.578286 1.097143-14.939428 0.365714-11.099429v-7.314286l-0.365714-5.12-1.097143-6.198857-0.914286-6.198857-0.731429-4.041143-1.828571-4.699428-1.645714-3.2-2.194286-2.578286-2.925714-2.121143-1.097143-1.078857-1.28-1.481143-1.828572-2.578286-1.645714-2.56-2.377143-3.2-1.645714-2.139428-1.462857-0.420572h-2.011429l-1.828571 0.420572-1.28 0.859428-1.28 1.28-1.462857 2.139429-2.011429 3.657143-1.645714 4.059428-1.462857 4.48-1.828572 5.485715-1.645714 6.198857-1.828571-2.139429-0.914286-0.859428-1.097143-0.64-0.548571-0.64-0.731429-0.420572-1.097143-0.64-1.828571-1.92-2.56-3.2-3.108572-4.699428-4.205714-2.56-5.302857 2.56-5.302857 6.180571-4.388572 8.978286-0.731428 2.340571-0.548572 0.64h-0.365714l-0.365714-0.64-0.548572-0.859428-0.731428-0.64-0.731429-0.841143-1.097143-0.438857-1.828571-1.481143-2.377143-2.779429-2.925714-3.657143-3.291429-4.900571-1.462857-1.92-1.462857 0.64-2.194286 3.657143-2.377143 5.979428-2.377143 7.478857-3.108571 10.038858-2.377143 8.740571-1.28 5.339429h-0.182857l-0.182857 0.219428h-0.731429l-0.365714 0.420572-1.28 1.28-1.097143 1.499428-0.182857 2.56v4.059429l1.645714 12.8 2.925715 9.819428 3.84 5.979429 3.84 0.420571 2.194285-1.92 1.097143-2.139428 0.914286-3.2 0.182857-4.059429 0.365714-4.699428 0.914286-4.059429 1.462857-4.900571 2.377143-6.619429 2.194286-5.12-0.548572 10.459429-0.182857 4.260571-0.182857 4.278857-0.182857 2.980572-0.182857 1.92-0.548572 2.358857-0.731428 4.059428-0.731429 5.76-1.097143 6.4-0.914285 6.838857-0.731429 6.619429-0.914286 4.699429-0.548571 3.2-0.548572 2.56-0.365714 4.059428-0.731428 4.059429-0.548572 4.48-0.731428 4.48-0.548572 5.12-0.731428 4.498285-0.365715 3.84-0.548571 10.678858 0.365714 9.819428 1.645714 9.6 2.742858 8.758857 1.645714 2.56 0.914286 1.499429 1.097142 0.64h1.828572l2.56-0.219429 1.828571-1.92 1.462857-2.980571 0.914286-4.278857 0.365714-2.56 0.548572-4.699429 0.365714-5.485714 0.365714-6.180572 0.731429-11.739428 0.182857-7.698286 0.182857-6.820571 0.731429-8.758857 1.828571-20.114286 3.108572-19.858286 4.022857-17.499428 4.388571-14.098286 2.56-5.12 3.291429-5.12 3.108571-4.699429 2.377143-2.139428 1.462857-0.859429-0.182857 13.458286-0.548571 18.157714-1.097143 14.939429-1.828572 14.098285-2.56 15.579429-0.914285 5.485714-0.914286 6.180572-0.914286 6.4-0.548571 5.485714-0.731429 4.278857-0.365714 4.681143-0.365714 2.998857-0.548572 1.92-0.365714 5.339429v6.838857l0.548571 6.820571 1.28 5.778286 0.365715 0.841143 0.365714 1.078857v1.060571l0.548571 2.980572 1.28 3.657143 1.828572 2.980571 1.645714 1.718857 1.28 0.841143 1.28 0.438857 1.097143-0.438857 1.645714-0.841143 1.645715-1.718857 1.645714-2.980571 1.097143-4.059429 1.097143-4.059428 0.548571-5.979429 0.914286-9.6 0.548571-13.238857 0.731429-16.877714 0.365714-10.459429 0.914286-7.68 0.365714-6.198857 1.28-7.314286 2.56-15.158857 3.291429-16.219429 2.742857-13.458285 1.462857-6.4 0.365714-1.28 0.731429-1.700572 0.731428-1.938285 0.731429-2.340572 2.194286-4.278857 2.011428-4.041143 2.56-3.419428 2.011429-2.358858h1.462857l0.365714 1.92 0.548572 5.138286v7.899429l-0.548572 10.88-0.914286 13.019428-1.462857 14.098286-1.462857 14.738286-1.28 11.958857-0.548571 11.52-0.548572 12.379428 0.365715 12.397715 0.914285 21.339428 2.56 17.517715z m95.634286-8.539429l0.731429 0.420572h0.731428l0.548572 0.219428h1.28l1.097143-0.219428 1.28-0.420572 1.462857-0.438857 5.485714-2.779428 5.851429-5.961143 5.851428-8.118857 5.302857-10.038857 2.011429-3.84 1.462857-2.139429 0.548571-0.420571 0.548572 0.841142 0.731428 2.998858 2.56 4.900571 3.291429 4.699429 3.108571 3.419428 4.571429 3.84 4.937143 3.2 4.571428 1.938286 3.84 0.841143 3.291429-0.841143 3.108571-1.28 2.56-1.718857 1.097143-2.139429v-2.761143l-0.365714-2.779428-0.182857-2.358857-0.548572-1.700572-0.365714-0.64-0.182857-0.64v-0.64l0.182857-0.438857-0.182857-0.201143-0.914286-0.438857-1.097143-0.420571-1.28-0.64-3.474285-1.700572-3.84-2.56-3.474286-2.779428-2.377143-2.358858-3.474286-8.100571-1.462857-11.117714-0.365714-15.798857 1.462857-20.918858 1.28-11.958857 2.011429-10.038857 2.194285-9.142857 2.925715-7.68 1.28-3.657143 0.365714-2.56-0.182857-3.657143-1.097143-3.84-0.365714-1.92-0.731429-0.859428-0.365714-0.420572h-1.462857l-0.365715-0.438857v-0.64l-0.182857-0.219428-0.365714-0.420572-0.365714 0.420572h-1.28l-0.365715-0.420572h-0.182857l-0.365714-0.420571-0.182857-0.219429h-0.548572l-2.011428-1.060571-3.657143-2.56-3.108571-2.779429-1.462858-1.718857-0.182857-0.64-0.182857-0.420571h-0.731428l-0.548572 0.420571-0.365714-0.420571-0.548572-0.64-0.365714-0.64-1.097143-1.499429-0.548571-0.64-1.097143 0.219429-0.548571 1.499428-1.28 1.060572h-2.194286l-3.108572-1.499429-3.108571-2.779429-4.571429-4.260571-4.388571-2.779429-4.388571-1.700571-4.388572-0.219429h-3.291428l-2.925715 0.64-2.742857 1.700572-4.388571 3.218286-9.142857 8.740571-7.314286 11.757714-5.851429 16.859429-5.668571 22.418286-1.828572 9.142857-1.28 6.838857-0.731428 7.460571-0.365714 10.678857-0.365715 13.458286 0.365715 10.24 1.462857 8.539429 2.742857 9.142857 1.828571 5.979428 2.011429 4.278858 2.56 3.657142 3.657143 4.699429 4.937143 4.699429 4.937142 4.059428 6.217143 2.779429z m3.108572-44.635428l-6.582858 7.478857-1.645714 1.499429-2.194286 1.060571-1.828571 0.859429-1.28 0.841142h-2.56l-0.914286-1.481142-0.731428-2.56-0.731429-5.138286-0.548571-7.68V327.314286l0.731428-8.740572 0.182857-2.358857 0.182858-2.56 0.182857-2.139428v-1.700572l3.657143-18.285714 6.034285-18.285714 7.68-14.939429 8.228572-9.819429 4.388571-2.56 4.022857-1.28h4.022857l2.742858 0.859429 2.925714 2.56 1.28 2.56 0.365714 3.419429-0.365714 4.48-0.548572 3.2-0.365714 2.779428-0.731428 2.340572-0.548572 1.718857-0.914286 2.56-1.28 4.48-1.645714 5.76-2.011428 6.619428-6.4 23.771429-6.582858 17.517714z m109.531428 136.868571l5.851429 0.420572 4.937143-2.56 3.657142-4.260572 0.914286-5.339428 0.365714-1.92 0.182858-1.718857 0.365714-2.139429 0.914286-1.700571 2.742857-9.142858 3.657143-13.878857 3.108571-14.098285 1.828571-8.96 0.182858-1.499429 0.182857-2.340571 0.182857-3.2 0.548571-3.218286 0.365715-3.401143 0.182857-4.498286 0.182857-4.699428v-13.659429l2.011428 0.64 1.28 0.438857 1.828572 0.420572 2.377143 0.219428 2.56 0.64 3.291428 0.201143 2.925715-0.201143 2.742857-0.859428 3.657143-1.060572 11.337142-5.138285 10.24-6.619429 8.777143-7.68 7.497143-9.398857 0.914286-1.28 1.097143-1.28 1.097143-1.700572 1.28-1.078857 4.388571-9.142857 4.388571-15.36 4.022858-18.797714 2.377142-19.437714v-10.459429l-1.097142-13.659429-2.011429-13.659428-2.56-10.971429-2.194286-4.699428-2.925714-5.76-3.474286-4.48-2.925714-3.2-1.462857-0.859429-1.828572-1.060571-2.194285-1.28-2.011429-1.078857-2.194286-0.859429-1.462857-1.481143-1.462857-0.64-0.731428-1.078857-0.548572-0.64-1.645714-1.481143-1.828572-1.499428-2.011428-1.28-5.12-2.998858-4.754286-1.28-4.571428 0.438858-4.754286 1.700571-4.388572 2.779429 0.548572-4.48v-4.498286l-0.731429-4.260572-1.097143-2.779428-1.28-1.060572-0.548571 0.420572h-0.365714l-0.365715-0.420572-0.182857-0.219428-0.365714-0.420572-0.365714-0.438857h-1.097143l-2.56-1.060571-4.022857-2.779429-3.657143-2.779428-2.377143-2.56-0.182857-0.64-0.365714-0.420572h-0.182858v0.420572h-0.548571l-0.548571-0.64-0.914286-1.060572-1.28-1.28h-1.462857l-0.914286 2.340572-0.731429 4.48-0.731428 2.139428-0.548572 2.139429-0.548571 2.139428-0.731429 1.060572-0.731428 1.28-0.548572 1.718857-1.097142 2.340571-1.097143 2.340572-3.291429 7.899428-3.474286 7.698286-5.485714 9.142857-7.862857 12.16-2.377143 4.278857-2.011428 2.56-1.828572 1.28-1.462857 0.420572-1.28 0.219428-1.28 0.64-0.548571 0.438858-0.548572 0.64-0.365714 5.961142 1.462857 8.338286 3.474286 8.96 3.657143 6.198857 1.828571 2.139429 1.28 1.060571 2.011429 0.420572 2.377142 0.219428 4.022858-0.64 2.925714-2.139428 2.011428-3.2 0.731429-4.059429 0.182857-1.92 0.914286-1.828571 1.462857-3.2 2.194286-3.657143 4.571428-7.314286-2.377143 17.517714-1.097142 8.539429-0.914286 8.32-1.097143 8.338286-0.365714 7.314285-1.462857 30.738286-2.011429 27.428572-1.828571 22.198857-1.462858 14.299428-2.011428 10.038857-2.194286 10.678858-2.011428 9.6-2.377143 8.758857-1.645715 5.339428-0.914285 2.998857-0.914286 1.481143-0.548571 0.438857-0.731429-0.438857-0.548571-0.201143-0.182858-0.438857-0.365714-0.420571-0.182857-0.420572-0.182857-0.219428-0.182857-0.420572h-1.097143l-0.365714-0.438857-0.548572-0.64-0.548571-0.64-0.731429-0.64-0.365714-0.420571-0.548572 0.420571-0.548571 1.078857-0.182857 1.28-0.365714 2.56-0.731429 2.340572-0.365714 3.2-0.365715 3.84v2.998857l0.182858 3.419429 0.548571 3.419428 0.914286 2.56 0.365714 1.92 0.731429 1.700572 0.548571 1.078857 0.548571 0.64 0.182858 0.841143 0.182857 0.64v0.438857l0.548571 1.700571 1.097143 2.358857 2.011429 2.980572 1.828571 2.340571 0.548571 0.438857 0.548572 0.64 1.097143 0.219429z m51.017143-137.142857l-2.925714 1.700572-3.108572 1.499428-3.474285 1.28-2.925715 1.060572-2.56 0.420571-5.12 0.658286 0.365715-10.971429 0.365714-4.48 0.182857-4.918857 0.365714-3.84 0.365715-2.980571 0.182857-2.56 0.365714-2.779429 0.365714-2.358857 0.182857-1.92 0.182858-1.700572 0.182857-1.718857 0.182857-1.700571v-1.499429l0.182857-2.139428 0.548571-3.401143 0.182858-4.918857 0.182857-4.900572 0.182857-8.557714 0.182857-5.961143 0.548571-4.699428 0.365715-4.278858 0.182857-1.060571 0.731428-1.078857 1.097143-0.64 1.28-0.64 2.194286-1.481143 2.011429-2.139429 1.462857-1.92 0.365714-2.56 0.365714-2.139428 0.548572-2.779429 1.462857-2.779428 1.462857-2.779429 2.56-3.2 4.205714-4.260571 4.205715-4.278857 3.84-3.419429 6.217142-2.340571 6.582858 1.060571 5.851428 4.059429 4.388572 7.058285 1.28 3.2 0.731428 3.401143 0.365714 5.339429v8.978285l-0.365714 11.099429-0.731428 8.539429-1.28 8.118857-2.194286 8.100571-1.645714 4.498286-1.462858 4.48-2.011428 3.84-1.645714 2.56-0.548572 0.859428-0.731428 1.700572-1.28 1.92-0.914286 2.139428-2.742857 5.339429-3.108572 4.059429-4.571428 4.48-6.582857 5.76-1.645715 1.28-2.56 1.718857z" fill="#FFFFFF" /></svg>