<?xml version="1.0" standalone="no"?><!DOCTYPE svg PUBLIC "-//W3C//DTD SVG 1.1//EN" "http://www.w3.org/Graphics/SVG/1.1/DTD/svg11.dtd"><svg class="icon" width="200px" height="200.00px" viewBox="0 0 1024 1024" version="1.1" xmlns="http://www.w3.org/2000/svg"><path d="M768 1024H116.363636c-51.2 0-93.090909-41.890909-93.090909-93.090909V139.636364c0-51.2 41.890909-93.090909 93.090909-93.090909h512l232.727273 232.727272v651.636364c0 51.2-41.890909 93.090909-93.090909 93.090909z" fill="#73E673" /><path d="M907.636364 930.909091H256c-51.2 0-93.090909-41.890909-93.090909-93.090909V93.090909c0-51.2 41.890909-93.090909 93.090909-93.090909h512l232.727273 232.727273v605.090909c0 51.2-41.890909 93.090909-93.090909 93.090909z" fill="#52CC66" /><path d="M907.636364 930.909091H256c-51.2 0-93.090909-41.890909-93.090909-93.090909V93.090909c0-51.2 41.890909-93.090909 93.090909-93.090909h512l232.727273 232.727273v605.090909c0 51.2-41.890909 93.090909-93.090909 93.090909z" fill="#39C451" /><path d="M861.090909 232.727273h139.636364L768 0v139.636364c0 51.2 41.890909 93.090909 93.090909 93.090909zM826.181818 791.272727h-488.727273c-18.618182 0-34.909091-16.290909-34.90909-34.909091s16.290909-34.909091 34.90909-34.909091h488.727273c18.618182 0 34.909091 16.290909 34.909091 34.909091s-16.290909 34.909091-34.909091 34.909091zM826.181818 628.363636h-488.727273c-18.618182 0-34.909091-16.290909-34.90909-34.909091s16.290909-34.909091 34.90909-34.90909h488.727273c18.618182 0 34.909091 16.290909 34.909091 34.90909s-16.290909 34.909091-34.909091 34.909091z" fill="#91F291" /><path d="M588.8 337.454545c-27.927273 20.945455-62.836364 34.909091-100.072727 34.909091s-72.145455-13.963636-100.072728-34.909091C351.418182 367.709091 325.818182 414.254545 325.818182 465.454545h325.818182c0-51.2-25.6-97.745455-62.836364-128z" fill="#FFFFFF" /><path d="M488.727273 209.454545m-93.090909 0a93.090909 93.090909 0 1 0 186.181818 0 93.090909 93.090909 0 1 0-186.181818 0Z" fill="#FFFFFF" /></svg>