<?xml version="1.0" standalone="no"?><!DOCTYPE svg PUBLIC "-//W3C//DTD SVG 1.1//EN" "http://www.w3.org/Graphics/SVG/1.1/DTD/svg11.dtd"><svg class="icon" width="200px" height="200.00px" viewBox="0 0 1024 1024" version="1.1" xmlns="http://www.w3.org/2000/svg"><path fill="#1296db" d="M212.992 526.336h2.048-2.048zM813.056 768h96.256c20.48 0 38.912 16.384 38.912 38.912v96.256c0 20.48-16.384 38.912-38.912 38.912h-96.256c-20.48 0-38.912-16.384-38.912-38.912v-38.912h-18.432c-53.248 0-96.256-43.008-96.256-96.256V614.4H563.2v192.512c0 20.48-16.384 38.912-38.912 38.912H120.832c-20.48 0-38.912-16.384-38.912-38.912V401.408c0-20.48 16.384-38.912 38.912-38.912h192.512V190.464H120.832c-22.528 0-38.912-16.384-38.912-38.912V112.64c0-20.48 16.384-38.912 38.912-38.912h788.48c20.48 0 38.912 16.384 38.912 38.912v38.912c0 20.48-16.384 38.912-38.912 38.912H331.776v174.08h192.512c20.48 0 38.912 16.384 38.912 38.912V593.92h96.256v-153.6c0-53.248 43.008-96.256 96.256-96.256h18.432v-38.912c0-20.48 16.384-38.912 38.912-38.912h96.256c20.48 0 38.912 16.384 38.912 38.912v96.256c0 20.48-16.384 38.912-38.912 38.912h-96.256c-20.48 0-38.912-16.384-38.912-38.912v-38.912h-18.432c-43.008 0-77.824 34.816-77.824 77.824v153.6h96.256v-38.912c0-20.48 16.384-38.912 38.912-38.912h96.256c20.48 0 38.912 16.384 38.912 38.912v96.256c0 20.48-16.384 38.912-38.912 38.912h-96.256c-20.48 0-38.912-16.384-38.912-38.912V614.4h-96.256V768c0 43.008 34.816 77.824 77.824 77.824h18.432v-38.912c0-22.528 18.432-38.912 38.912-38.912z"  /></svg>