<?xml version="1.0" standalone="no"?><!DOCTYPE svg PUBLIC "-//W3C//DTD SVG 1.1//EN" "http://www.w3.org/Graphics/SVG/1.1/DTD/svg11.dtd"><svg t="1727508187633" class="icon" viewBox="0 0 1024 1024" version="1.1" xmlns="http://www.w3.org/2000/svg" p-id="29534" width="256" height="256" xmlns:xlink="http://www.w3.org/1999/xlink"><path d="M972.8 216.064l-192.256-204.8A38.144 38.144 0 0 0 753.664 0h-665.6a40.192 40.192 0 0 0-38.912 41.472v941.056A40.192 40.192 0 0 0 88.064 1024H947.2a40.2176 40.2176 0 0 0 38.912-41.472V245.504A42.752 42.752 0 0 0 972.8 216.064zM652.8 768l-137.216-203.008L378.624 768h-95.488l184.576-264.704L295.424 256h95.488l124.672 185.088L640 256h95.488L563.2 503.04 748.032 768H652.8z" fill="#5EC5A2" p-id="29535"></path></svg>