<?xml version="1.0" standalone="no"?><!DOCTYPE svg PUBLIC "-//W3C//DTD SVG 1.1//EN" "http://www.w3.org/Graphics/SVG/1.1/DTD/svg11.dtd"><svg class="icon" width="200px" height="200.00px" viewBox="0 0 1024 1024" version="1.1" xmlns="http://www.w3.org/2000/svg"><path fill="#1296db" d="M792.8 276.8h155.2c28.8 0 52-23.2 52-52V70.4c0-28.8-23.2-52-52-52H792.8c-28.8 0-52 23.2-52 52v52H543.2c-14.4 0-25.6 11.2-25.6 25.6v338.4H396.8V351.2c0-28-23.2-52-52-52h-52c-14.4 0-25.6 11.2-25.6 25.6h-112c0-14.4-11.2-25.6-25.6-25.6H78.4c-28 0-52 23.2-52 52v323.2c0 28 23.2 52 52 52h266.4c28 0 52-23.2 52-52V537.6h120.8v340c0 14.4 11.2 25.6 25.6 25.6h197.6v52c0 28.8 23.2 52 52 52h155.2c28.8 0 52-23.2 52-52V800c0-28.8-23.2-52-52-52H792.8c-28.8 0-52 23.2-52 52v52H576.8V537.6h164.8v52c0 28.8 23.2 52 52 52h155.2c28.8 0 52-23.2 52-52V434.4c0-28.8-23.2-52-52-52H792.8c-28.8 0-52 23.2-52 52v52H576.8V173.6h164.8v52c0 28 22.4 51.2 51.2 51.2z"  /></svg>