<?xml version="1.0" standalone="no"?><!DOCTYPE svg PUBLIC "-//W3C//DTD SVG 1.1//EN" "http://www.w3.org/Graphics/SVG/1.1/DTD/svg11.dtd"><svg t="1727507401081" class="icon" viewBox="0 0 1024 1024" version="1.1" xmlns="http://www.w3.org/2000/svg" p-id="31392" xmlns:xlink="http://www.w3.org/1999/xlink" width="256" height="256"><path d="M440 852H208V148h560v344c0 4.4 3.6 8 8 8h56c4.4 0 8-3.6 8-8V108c0-17.7-14.3-32-32-32H168c-17.7 0-32 14.3-32 32v784c0 17.7 14.3 32 32 32h272c4.4 0 8-3.6 8-8v-56c0-4.4-3.6-8-8-8z m114.315-642.976c4.043 1.083 6.514 5.094 5.505 8.861l-78.532 293.086c-1.01 3.767-2.381 4.922-9.198 4.922h-49.072c-4.044-1.084-6.514-5.094-5.505-8.862l83.096-293.085c1.764-3.814 4.454-4.922 9.197-4.922z m-165.591 0.619c4.476-3.788 11.276-0.603 11.276 5.251v53.979c0 1.98-0.947 3.96-2.496 5.251L302.99 353.5l94.514 79.376c1.635 1.29 2.496 3.185 2.496 5.251v53.979c0 5.854-6.8 9.04-11.276 5.251l-165.27-138.52c-3.272-2.754-3.272-7.834 0-10.589z m188.609 5.251c0-5.854 6.8-9.04 11.276-5.251l165.27 138.52c3.272 2.754 3.272 7.834 0 10.589L588.61 497.357c-4.476 3.788-11.276 0.603-11.276-5.251v-53.979c0-1.98 0.947-3.96 2.496-5.251l94.514-79.376-94.514-79.376c-1.635-1.29-2.496-3.185-2.496-5.251zM885.7 903.5l-93.3-93.3C814.7 780.7 828 743.9 828 704c0-97.2-78.8-176-176-176s-176 78.8-176 176 78.8 176 176 176c35.8 0 69-10.7 96.8-29l94.7 94.7c1.6 1.6 3.6 2.3 5.6 2.3 2 0 4.1-0.8 5.6-2.3l31-31c3.1-3.1 3.1-8.1 0-11.2zM652 816c-61.9 0-112-50.1-112-112s50.1-112 112-112 112 50.1 112 112-50.1 112-112 112z" fill="#d4237a" p-id="31393"></path></svg>