<?xml version="1.0" standalone="no"?><!DOCTYPE svg PUBLIC "-//W3C//DTD SVG 1.1//EN" "http://www.w3.org/Graphics/SVG/1.1/DTD/svg11.dtd"><svg t="1723860786993" class="icon" viewBox="0 0 1024 1024" version="1.1" xmlns="http://www.w3.org/2000/svg" p-id="6003" xmlns:xlink="http://www.w3.org/1999/xlink" width="200" height="200"><path d="M931.7376 0.50176H87.3472C41.85088 0.50176 0.512 37.77536 0.512 78.6944v844.3904c0 54.40512 37.34528 95.44704 86.84544 95.44704h844.32896c49.5616 0 86.85568-41.04192 86.85568-95.4368V78.6944c0-40.9088-41.35936-78.19264-86.784-78.19264zM87.3472 64.12288h844.32896c13.68064 0 22.72256 11.14112 23.22432 14.57152v176.31232H64.12288V78.9504c0.512-3.6864 9.54368-14.82752 23.22432-14.82752z m844.32896 890.7776H87.40864c-13.99808 0-23.28576-12.78976-23.28576-31.80544v-604.4672h890.7776v604.4672c0 19.01568-9.28768 31.80544-23.15264 31.80544h-0.07168zM191.3856 127.75424h-63.62112v63.62112h63.62112v-63.62112z m127.26272 0h-63.63136v63.62112h63.63136v-63.62112z m127.25248 0H382.2592v63.62112h63.63136v-63.62112z m284.91776 393.5232l42.496 42.57792a31.8464 31.8464 0 1 0 45.056-45.056l-63.63136-63.62112a31.81568 31.81568 0 0 0-43.52-1.3312L638.0544 518.0416a189.85984 189.85984 0 0 0-45.43488-45.3632l35.18464-36.4544a31.81568 31.81568 0 1 0-45.68064-44.2368l-53.4528 55.36768a136.73472 136.73472 0 0 0-36.63872-0.31744l-55.41888-55.49056a31.83616 31.83616 0 0 0-44.99456 45.056l35.6352 35.6352a187.2384 187.2384 0 0 0-46.25408 45.80352l-73.17504-64.26624a31.81568 31.81568 0 0 0-43.45856 1.46432l-63.62112 63.63136a31.81568 31.81568 0 0 0 44.98432 44.98432l42.496-42.56768 62.3616 54.71232a266.0864 266.0864 0 0 0-12.8 50.52416L305.152 608.83968a31.81568 31.81568 0 0 0-37.08928 4.89472l-66.816 63.63136a31.81568 31.81568 0 1 0 43.90912 46.05952l50.01216-47.7184 40.07936 21.82144 1.024 0.256a266.01472 266.01472 0 0 0 15.39072 66.24256H286.8224a31.81568 31.81568 0 0 0-22.528 9.28768l-63.62112 63.62112a31.8464 31.8464 0 1 0 45.04576 45.056l54.272-54.34368h82.26816c1.4336-0.18432 2.8672-0.48128 4.25984-0.89088 31.6928 39.8336 75.07968 64.512 122.99264 64.512 47.9232 0 91.31008-24.6784 122.99264-64.512 1.40288 0.45056 2.80576 0.70656 4.25984 0.89088h82.2784l54.272 54.34368a31.83616 31.83616 0 0 0 44.98432-45.056l-63.63136-63.62112a31.81568 31.81568 0 0 0-22.45632-9.28768h-64.90112a263.35232 263.35232 0 0 0 15.4624-66.24256l0.95232-0.256 40.0896-21.76 50.0736 47.65696a31.81568 31.81568 0 1 0 43.89888-46.05952l-66.80576-63.63136a31.81568 31.81568 0 0 0-37.09952-4.89472l-32.63488 17.6128a265.0112 265.0112 0 0 0-12.8-50.45248l62.3616-54.71232z m-221.2864 306.3808c-60.38528 0-111.36-72.8576-111.36-159.0784s50.97472-159.06816 111.34976-159.06816c60.38528 0 111.34976 72.8576 111.34976 159.06816 0 86.2208-50.96448 159.06816-111.34976 159.06816z m0-222.69952a31.81568 31.81568 0 0 0-31.82592 31.80544v63.63136a31.81568 31.81568 0 0 0 63.63136 0v-63.63136a31.81568 31.81568 0 0 0-31.81568-31.80544z" fill="#1296db" p-id="6004"></path></svg>