<?xml version="1.0" standalone="no"?><!DOCTYPE svg PUBLIC "-//W3C//DTD SVG 1.1//EN" "http://www.w3.org/Graphics/SVG/1.1/DTD/svg11.dtd"><svg t="1727507937999" class="icon" viewBox="0 0 1024 1024" version="1.1" xmlns="http://www.w3.org/2000/svg" p-id="7736" xmlns:xlink="http://www.w3.org/1999/xlink" width="256" height="256"><path d="M693.101714 570.514286V453.485714a29.257143 29.257143 0 0 0-29.257143-29.257143h-307.2a29.257143 29.257143 0 0 0-29.257142 29.257143v117.028572a29.257143 29.257143 0 0 0 29.257142 29.257143h307.2a29.257143 29.257143 0 0 0 29.257143-29.257143z" fill="#E2B55F" p-id="7737"></path><path d="M693.101714 903.314286v-117.028572a29.257143 29.257143 0 0 0-29.257143-29.257143h-307.2a29.257143 29.257143 0 0 0-29.257142 29.257143v117.028572a29.257143 29.257143 0 0 0 29.257142 29.257143h307.2a29.257143 29.257143 0 0 0 29.257143-29.257143z" fill="#DC8961" p-id="7738"></path><path d="M693.101714 237.714286v-117.028572a29.257143 29.257143 0 0 0-29.257143-29.257143h-307.2a29.257143 29.257143 0 0 0-29.257142 29.257143v117.028572a29.257143 29.257143 0 0 0 29.257142 29.257143h307.2a29.257143 29.257143 0 0 0 29.257143-29.257143z" fill="#E2B55F" p-id="7739"></path><path d="M861.988571 481.206857v-27.282286a14.628571 14.628571 0 0 0-22.528-12.288l-103.204571 65.682286a22.016 22.016 0 0 0 0 37.083429l103.204571 65.682285a14.628571 14.628571 0 0 0 22.528-12.288v-18.797714c25.746286 24.137143 42.569143 57.344 42.569143 94.354286 0 72.411429-58.88 131.218286-131.145143 131.218286h-18.358857v80.457142h18.358857a211.894857 211.894857 0 0 0 211.602286-211.602285 212.114286 212.114286 0 0 0-123.026286-192.219429z" fill="#DC8961" p-id="7740"></path><path d="M287.670857 174.518857a21.942857 21.942857 0 0 1 0 37.010286l-103.204571 65.755428a14.628571 14.628571 0 0 1-22.454857-12.434285v-18.651429c-25.746286 24.283429-42.569143 57.417143-42.569143 94.354286 0 72.411429 58.806857 131.218286 131.145143 131.218286h18.285714v80.457142h-18.285714A211.821714 211.821714 0 0 1 38.985143 340.626286a212.114286 212.114286 0 0 1 123.026286-192.219429v-27.282286a14.628571 14.628571 0 0 1 22.454857-12.288l103.204571 65.682286z" fill="#E2B55F" p-id="7741"></path></svg>